<?xml version="1.0" standalone="no"?>
<!DOCTYPE svg PUBLIC "-//W3C//DTD SVG 1.1//EN" "http://www.w3.org/Graphics/SVG/1.1/DTD/svg11.dtd" >
<svg>
<metadata>
Created by FontForge 20110222 at Mon Mar  7 12:11:32 2011
 By www-data
Copyright [c] - Roger White - 1994 - All Rights Reserved - see .txt file for terms for distribution and use.
</metadata>
<defs>
<font id="NewtownBoldItalic" horiz-adv-x="500" >
  <font-face 
    font-family="Newtown"
    font-weight="700"
    font-style="italic"
    font-stretch="normal"
    units-per-em="1000"
    panose-1="2 11 8 0 0 0 0 0 0 0"
    ascent="800"
    descent="-200"
    x-height="557"
    cap-height="749"
    bbox="-221 -264 1330 994"
    underline-thickness="50"
    underline-position="-50"
    slope="12"
    unicode-range="U+0020-2122"
  />
    <missing-glyph />
    <glyph glyph-name="space" unicode=" " horiz-adv-x="298" 
 />
    <glyph glyph-name="space" unicode="&#xa0;" horiz-adv-x="298" 
 />
    <glyph glyph-name="exclam" unicode="!" horiz-adv-x="313" 
d="M359 749h-214l-149 -595h214zM214 159h-216l-48 -189h216z" />
    <glyph glyph-name="quotedbl" unicode="&#x22;" horiz-adv-x="330" 
d="M367 731h-160l-84 -331h160zM207 731h-158l-84 -331h158z" />
    <glyph glyph-name="numbersign" unicode="#" horiz-adv-x="770" 
d="M839 542h-137l123 203h-182l-120 -203h-47l120 203h-179l-123 -203h-144l-96 -158h144l-34 -57h-138l-99 -160h141l-120 -201h177l124 201h48l-123 -201h180l122 201h143l96 160h-143l34 57h137zM429 384l-36 -59h-51l36 59h51z" />
    <glyph glyph-name="dollar" unicode="$" horiz-adv-x="752" 
d="M798 749h-270l16 64h-120l-13 -63h-26q-56 0 -92 -6l-30 -6l-30 -9l-59 -29q-24 -15 -38 -32q-16 -17 -37 -48q-36 -51 -52 -110q-9 -43 -9 -80l1 -25q0 -24 11 -48t27 -40q17 -17 40 -30q22 -13 43 -18q50 -10 136 -10h-11l-24 -102h-272l-48 -187h273l-16 -70h118
l17 70h11h29q52 0 97 6l33 9l16 5q30 10 43 19l36 27q20 15 30 27l13 15l13 17l12 19l9 22q11 19 17 41l15 50q5 19 7 33q1 7 1 29l-2 26l-3 20q-16 53 -56 79q-23 14 -38 18l-24 8q-6 2 -14 2l-29 4l-30 1h-28l-38 1l27 112h270zM360 558l-27 -110h-6q-51 0 -69 12
q-2 2 -2 10l5 28q7 37 37 48l21 6l24 4zM496 241l-3 -18q-14 -44 -32 -51q-22 -8 -37 -11q-19 -3 -43 -3l25 102h-11h18l28 1l36 -3l16 -7z" />
    <glyph glyph-name="percent" unicode="%" horiz-adv-x="922" 
d="M899 255v17q0 11 -2 25q-1 11 -6 21q-12 28 -20 39q-29 35 -79 50q-15 7 -26 7q-8 2 -39 2h-8q-16 0 -40 -2q-14 -1 -33 -5l-18 -6q-9 -4 -13 -5l-30 -12q-65 -32 -95 -88q-15 -24 -24 -51l-20 -62q-7 -15 -7 -30l-1 -35l1 -20q0 -10 2 -22q2 -10 6 -21q10 -22 22 -38
q26 -32 77 -47l36 -7h3q13 -2 19 -2h16l49 5l28 3l30 6q70 18 127 114l3 4q4 7 5 10q2 4 6 14l6 17l18 57q5 17 5 32q2 14 2 30zM734 238l-1 -16l-6 -25q-12 -52 -36 -73l-11 -9q-2 -2 -14 -5q-12 -4 -23 -4q-25 0 -28 6q-8 13 -8 28q0 21 6 45l5 20l10 21l14 21l14 15
q9 9 17 10q6 1 26 1q23 0 29 -11q6 -12 6 -24zM781 747h-152l-497 -777h152zM482 603v26q0 88 -84 107l-51 11l-19 4h-21h-22l-25 -2l-28 -5l-21 -5q-39 -11 -77 -40l-22 -17l-16 -17q-9 -9 -15 -21l-12 -21q-25 -43 -35 -80l-8 -42q-2 -10 -2 -24l-1 -31l1 -30
q11 -82 106 -108q31 -11 75 -11q36 0 75 9q59 12 92 33t48 54q25 45 38 80l18 58l4 32q0 2 1 8q1 2 1 5v12v15zM318 578l-4 -30l-8 -33q-9 -36 -31 -55t-51 -19q-22 0 -29 10q-6 12 -6 27l2 25q13 43 21 61l9 13l10 12q23 18 51 18h7l3 -2l15 -5q6 -1 7 -7q4 -4 4 -15z" />
    <glyph glyph-name="ampersand" unicode="&#x26;" horiz-adv-x="805" 
d="M831 448h-411l-46 -183h124l95 194q28 58 28 67l-22 -27l-54 -90l-70 -122l-11 -17l-15 -23l-12 -20l-23 -23l-37 -30q-42 -30 -76 -30l-52 1l-21 4q-14 7 -21 16q-5 12 -5 22l1 13l7 19q6 14 14 22l7 7q15 12 27 13l26 3l10 1h60l46 183h-65q-41 0 -61 11q-7 3 -7 21
l3 20q10 25 34 39q28 17 292 17l49 193h-284l-46 -3l-42 -7q-48 -14 -78 -32q-81 -48 -114 -134l-12 -35l-6 -49l-1 -21l2 -31q9 -40 18 -52l10 -14l13 -15l14 -14q20 -20 46 -32h12q-1 7 -10 21l-36 44q-19 -12 -36 -24q-2 -1 -9 -6q-4 -4 -8 -7q-15 -12 -21 -18
q-10 -10 -17 -19q-39 -42 -54 -102l-7 -41l-1 -21q0 -58 35 -102q45 -54 105 -66q11 -2 25 -6q6 0 35 -4l56 -3q69 0 130 15q60 15 102 41q91 58 142 124l18 23l30 46l34 60h95z" />
    <glyph glyph-name="quotesingle" unicode="'" horiz-adv-x="197" 
d="M219 749h-177l-47 -185h57l-33 -138q79 57 103 80l9 9q10 9 13 13q4 4 10 13l4 6q25 32 37 80l13 56q4 9 5 23z" />
    <glyph glyph-name="parenleft" unicode="(" horiz-adv-x="348" 
d="M476 749h-169q-20 -20 -52 -56t-47 -54q-41 -49 -75 -103q-40 -61 -64 -116q-25 -57 -41 -125q-8 -30 -13 -70q-4 -31 -4 -69q0 -43 6 -88q14 -90 72 -225h154q-49 160 -49 235l-1 28q0 88 24 182q13 57 36 112q20 49 47 99q28 49 65 103q44 62 111 147z" />
    <glyph glyph-name="parenright" unicode=")" horiz-adv-x="348" 
d="M336 439l-1 29l-4 56q-13 102 -75 225h-152q27 -86 38 -140q12 -58 12 -95v-24q0 -43 -6 -93q-7 -55 -19 -100q-14 -53 -33 -104q-22 -54 -48 -101q-11 -20 -30 -50l-1 -2q-24 -37 -34 -50q-31 -43 -52 -70q-35 -46 -60 -77h169q57 57 98 109q42 53 76 105q39 58 64 114
q24 55 41 119q8 35 13 76q4 33 4 73z" />
    <glyph glyph-name="asterisk" unicode="*" 
d="M478 578l-44 126l-77 -39l21 84h-150l-23 -92l-65 45l-96 -114l66 -47l-85 -41l43 -130l75 39l-21 -82h150l23 91l67 -45l97 119l-67 43z" />
    <glyph glyph-name="plus" unicode="+" horiz-adv-x="832" 
d="M763 378h-242l62 248h-165l-62 -248h-244l-41 -158h244l-62 -250h164l62 250h243z" />
    <glyph glyph-name="comma" unicode="," horiz-adv-x="197" 
d="M219 155h-177l-47 -185h58l-32 -139q28 21 60 47q25 20 40 34q26 23 38 41q25 34 35 73l12 55l5 29q4 9 5 17q2 9 3 28z" />
    <glyph glyph-name="hyphen" unicode="-" horiz-adv-x="387" 
d="M417 362h-400l-47 -185h400z" />
    <glyph glyph-name="period" unicode="." horiz-adv-x="197" 
d="M214 155h-183l-47 -185h183z" />
    <glyph glyph-name="slash" unicode="/" horiz-adv-x="420" 
d="M582 757h-146l-598 -879h142z" />
    <glyph glyph-name="zero" unicode="0" horiz-adv-x="773" 
d="M794 504v16q0 63 -27 112t-73 78q-77 47 -243 47q-164 0 -285 -98q-120 -97 -168 -292q-20 -85 -20 -146q0 -94 45 -157q38 -53 106 -79q69 -26 166 -26q197 0 315 103q119 102 155 239q29 124 29 203zM573 460q0 -14 -8 -54l-8 -39l-9 -35l-14 -40q-32 -78 -84 -115
q-52 -39 -125 -39q-90 0 -114 55q-10 23 -10 57q0 45 15 100q14 58 33 97q20 41 44 68q62 63 125 63q42 0 66 -4q28 -5 38 -10q30 -13 39 -36l5 -18l6 -42z" />
    <glyph glyph-name="one" unicode="1" horiz-adv-x="264" 
d="M340 749h-222l-195 -779h222z" />
    <glyph glyph-name="two" unicode="2" horiz-adv-x="682" 
d="M735 565l-1 25v6l-1 32l-6 15l-8 18l-10 18q-28 42 -84 58q-23 10 -48 10q-18 2 -25 2h-24h-436l-47 -185h194q244 0 255 -8q5 -5 5 -17l-5 -29q-7 -40 -51 -48q-11 -4 -56 -4h-13h-16h-20q-48 0 -89 -3q-46 -3 -65 -7q-86 -18 -136 -65q-32 -32 -52 -67q-22 -38 -35 -91
l-64 -255h693l47 183h-467q7 29 19 59q11 27 18 34q26 23 116 23q30 0 89 2h3q20 1 42 2h12q97 12 156 59q39 31 59 64q24 34 33 73l12 59z" />
    <glyph glyph-name="three" unicode="3" horiz-adv-x="633" 
d="M672 557v52l-3 30l-10 31q-13 28 -45 43l-32 15q-2 1 -12 5l-6 2q-18 4 -29 7q-34 7 -89 7h-367l-46 -183q371 0 389 -12q9 -9 9 -21l-3 -18q-9 -36 -37 -51q-12 -6 -17 -7q-5 -2 -17 -4l-37 -1h-259l-46 -183q319 0 337 -12q10 -9 10 -21l-4 -17q-9 -38 -35 -52
q-28 -14 -73 -14h-319l-47 -183h399q78 0 144 27q91 39 121 101l23 47l10 32l7 28q5 10 5 19l1 22q0 14 -3 29q-4 18 -7 27q-11 31 -37 55q32 24 59 54q44 47 56 90q3 11 6 20q1 2 1 8q0 3 1 7q2 10 2 21z" />
    <glyph glyph-name="four" unicode="4" horiz-adv-x="773" 
d="M774 749h-242l-554 -463l-43 -185h460l-33 -131h217l33 131h97l46 183h-97zM500 521l-59 -237h-187z" />
    <glyph glyph-name="five" unicode="5" horiz-adv-x="686" 
d="M758 749h-662l-119 -476h191q240 0 251 -11q6 -7 6 -20l-4 -23q-9 -37 -33 -51q-25 -15 -66 -15h-374l-47 -183h423q127 0 209 51q93 58 123 178l2 5q4 14 5 19q2 10 3 14q0 3 2 13v12v16q0 67 -35 111q-29 36 -70 50q-21 8 -47 13q-23 4 -53 4h-216l27 110h438z" />
    <glyph glyph-name="six" unicode="6" horiz-adv-x="727" 
d="M800 749q-255 0 -409 -25q-157 -25 -217 -70q-127 -98 -176 -295q-19 -77 -19 -143q0 -100 49 -159q76 -97 216 -97l110 3l74 8q79 18 128 46q66 38 106 95l16 26l13 27l21 85q5 15 5 22l1 15q0 66 -61 112q-33 24 -77 34q-49 11 -105 11h-214q16 36 31 56q18 24 33 34
q50 32 143 32h286zM478 235l-5 -26q-8 -35 -48 -53q-34 -15 -107 -15q-64 0 -95 32q-15 21 -15 54l1 18l3 18h224q26 0 38 -12q4 -4 4 -16z" />
    <glyph glyph-name="seven" unicode="7" horiz-adv-x="635" 
d="M766 749h-701l-46 -183h427l-596 -596h277l595 612z" />
    <glyph glyph-name="eight" unicode="8" horiz-adv-x="736" 
d="M779 573v42q0 75 -91 112q-53 22 -134 22l-242 -2l-48 -7q-71 -19 -97 -34q-58 -29 -83 -81l-22 -43q-8 -15 -11 -26q-2 -5 -4 -13q0 -2 -1 -4q0 -2 -1 -3q-2 -8 -3 -16l-3 -33q0 -33 13 -63q13 -32 30 -55q-47 -24 -74 -56q-38 -47 -61 -134q-2 -8 -4 -23v-3
q-1 -9 -1 -23q0 -65 48 -110q25 -25 69 -37q39 -13 99 -13q160 0 278 14q114 13 147 33q89 56 110 150q12 54 12 87q0 14 -2 30q-2 11 -6 20q-10 31 -40 55l34 28l28 31q38 50 47 89q13 36 13 66zM549 533l-4 -17q-9 -37 -37 -52q-24 -12 -69 -12q-152 0 -172 11q-7 6 -7 18
l3 20q8 36 36 52q25 13 74 13h110l28 -2q20 -3 30 -11q8 -8 8 -20zM475 236l-3 -17q-9 -36 -35 -51q-27 -15 -72 -15q-155 0 -173 12q-8 8 -8 20l2 19q9 35 38 52q25 13 74 13h111l28 -2q20 -3 30 -11q8 -8 8 -20z" />
    <glyph glyph-name="nine" unicode="9" horiz-adv-x="728" 
d="M744 504l-4 57q-4 23 -13 47q-43 115 -178 138l-67 9q-30 3 -78 3q-24 0 -53 -3q-22 -2 -56 -8q-76 -17 -128 -47q-65 -36 -107 -98l-23 -43l-25 -90q-4 -8 -4 -19v-19q0 -66 61 -112q28 -22 74 -34q45 -12 108 -12h213l-9 -19l-10 -16q-24 -35 -61 -60q-19 -16 -51 -19
q-8 -2 -21 -3l-5 -1q-7 -1 -16 -1l-35 -1h-283l-46 -183q252 0 413 26q158 26 214 70q124 97 167 272q13 54 18 92q5 42 5 74zM516 493l-4 -37h-222q-26 0 -38 12q-3 5 -5 20l4 23q5 19 17 30q13 12 29 19q13 7 25 10q11 3 22 3h3q19 2 27 2h29q67 0 96 -29q11 -9 12 -19
l3 -15l2 -8v-11z" />
    <glyph glyph-name="colon" unicode=":" horiz-adv-x="213" 
d="M253 423h-181l-47 -185h181zM186 155h-181l-47 -185h181z" />
    <glyph glyph-name="semicolon" unicode=";" horiz-adv-x="213" 
d="M265 423h-181l-47 -185h181zM192 155h-175l-47 -185h56l-33 -138q63 45 101 80q25 22 37 41q27 40 37 81l13 57l5 26z" />
    <glyph glyph-name="less" unicode="&#x3c;" horiz-adv-x="832" 
d="M818 630l-702 -260l-35 -136l573 -264l43 167l-350 160l429 160z" />
    <glyph glyph-name="equal" unicode="=" horiz-adv-x="832" 
d="M785 481h-648l-37 -156h648zM735 272h-650l-40 -157h650z" />
    <glyph glyph-name="greater" unicode="&#x3e;" horiz-adv-x="832" 
d="M754 366l-574 260l-42 -165l351 -160l-430 -160l-45 -177l705 266z" />
    <glyph glyph-name="question" unicode="?" horiz-adv-x="693" 
d="M739 579q0 40 -11 68q-28 81 -115 96l-39 5l-57 1h-427l-47 -185h107q341 0 354 -13l1 -11l-5 -27q-8 -34 -39 -47q-22 -9 -82 -9q-144 0 -195 -12q-24 -8 -35 -12q-8 -3 -19 -7l-7 -3q-3 -2 -9 -4q-7 -4 -13 -7q-13 -7 -30 -21q-53 -44 -80 -117l-8 -20l-7 -20l-23 -86
h230l13 54l6 16q9 23 23 32q26 18 125 18l117 1q27 0 44 4q18 4 40 12q47 21 70 40q26 20 39 36q17 19 32 44q8 12 12 21q1 3 5 11q3 8 3 9l16 49q11 49 11 84zM185 157l-48 -187h-226l48 187h226z" />
    <glyph glyph-name="at" unicode="@" horiz-adv-x="1000" 
d="M1019 467l-1 30l-5 30l-9 27q-10 33 -27 54q-19 29 -32 41q-40 43 -94 64q-24 13 -52 22q-20 7 -53 10l-25 4q-10 2 -22 2l-51 2l-60 -3l-74 -12q-31 -7 -48 -13l-9 -3q-29 -9 -50 -16l-58 -26l-33 -17l-24 -15q-29 -17 -53 -38l-43 -37l-39 -38l-31 -35l-25 -34l-21 -33
l-15 -25q-7 -9 -9 -14q-3 -5 -5 -13l-18 -42l-14 -33l-12 -43q-6 -22 -9 -42q-4 -17 -4 -36l-2 -37l1 -27l8 -49l14 -41l19 -38l25 -39q17 -22 35 -37q23 -20 48 -34q54 -33 118 -47q29 -8 66 -13q29 -4 65 -4q69 0 160 18q32 9 51 16q14 5 47 18q6 3 9 4q71 33 142 74
l-51 117l-49 -31l-13 -7l-32 -15l-19 -8l-31 -12l-20 -8l-29 -7l-32 -8l-37 -7q-34 -7 -77 -7l-59 4l-50 10l-40 15l-23 11l-21 16l-19 16l-10 11l-12 13l-5 8l-11 20q-9 21 -15 61l-4 20v15q0 24 6 45l6 28l10 32l13 31q18 37 49 84q31 50 97 105q65 54 140 82q48 16 82 22
q33 6 64 8h41h6q40 0 73 -9l38 -17l42 -24q41 -23 50 -74q5 -17 7 -30q1 -6 1 -27l-2 -24l-5 -22q-10 -48 -39 -95q-29 -48 -59 -73l-14 -13l-15 -11l-32 -19q-33 -14 -52 -14l1 -5l6 -3v6l4 15l167 335h-147l-23 -28q-41 41 -122 41h-4l-32 -6l-21 -5q-25 -6 -48 -19
l-28 -15l-20 -13l-20 -16l-19 -17l-16 -15l-20 -23l-26 -36l-32 -58l-10 -19l-9 -22l-9 -32q-5 -25 -6 -32t-1 -30l1 -23l5 -20q13 -48 52 -73q17 -12 46 -20l28 -4l27 -1q26 0 47 6q11 2 23 6l4 1q6 2 26 12q20 11 45 30q23 18 50 49l-56 32q-5 -11 -11 -33l-2 -20
q0 -49 42 -69q18 -9 37 -13q15 -4 32 -4l46 3l40 10q47 13 77 31q35 18 58 36l51 46l22 24l20 25l36 56q18 30 27 54q13 29 16 43l11 38l3 19v8q3 8 3 13t-1 8zM578 348l-48 -98q-15 -30 -33 -45l-31 -28l-10 -8l-17 -8q-13 -7 -35 -7q-13 2 -18 9q-5 8 -5 20l1 14l2 13
l14 37l19 41q4 8 14 23l2 2q3 5 8 10q4 5 7 10q10 12 16 18l18 15q34 28 62 28q20 0 27 -9q7 -8 7 -31v-6z" />
    <glyph glyph-name="A" unicode="A" horiz-adv-x="723" 
d="M692 -30l-138 779h-200l-521 -779h232l105 172h269l23 -172h230zM412 329h-123l100 159z" />
    <glyph glyph-name="B" unicode="B" horiz-adv-x="756" 
d="M786 606q0 76 -63 106l-48 19q-18 7 -41 10q-29 6 -59 8h-43h-393l-195 -779h435q124 0 201 46q90 54 114 150q8 30 9 43q2 16 2 38q0 38 -14 64l-15 24q-9 14 -18 21q36 24 59 49q45 48 55 90l10 45l2 20zM555 532l-4 -18q-9 -35 -31 -47q-22 -13 -59 -13h-180l25 106
h196q21 0 31 -3t16 -9t6 -16zM483 239l-4 -21q-5 -18 -11 -28q-7 -12 -19 -19q-20 -14 -60 -14h-182l26 110h53q180 0 192 -12q5 -5 5 -16z" />
    <glyph glyph-name="C" unicode="C" horiz-adv-x="654" 
d="M746 749q-333 0 -377 -6q-46 -6 -89 -21q-19 -6 -39 -15q-17 -8 -36 -20q-36 -24 -67 -55q-54 -56 -92 -134q-20 -37 -30 -70q-7 -22 -8 -27q-8 -26 -9 -28l-3 -12q-5 -19 -8 -30q-12 -54 -12 -97q0 -50 17 -103q36 -116 152 -148l36 -8q12 -2 26 -2l66 -3h278l47 185
h-327l-26 5q-36 13 -42 58l-1 19q0 35 14 93q8 37 18 64q8 25 20 51q16 34 31 53q19 22 36 34q43 34 107 34h272z" />
    <glyph glyph-name="D" unicode="D" horiz-adv-x="771" 
d="M795 491q0 21 -3 40q-4 24 -7 36q-3 11 -12 33l-4 10q-3 8 -11 23l-2 4q-69 112 -265 112h-352l-195 -779h372q44 0 86 5q38 4 66 15q58 16 145 76q20 14 40 36q13 13 35 43q12 18 28 50q6 11 14 28q7 16 9 23q8 18 25 81l21 78q7 29 8 45q2 24 2 41zM564 481l-2 -33
l-8 -42l-9 -40q-10 -45 -24 -84l-22 -45q-16 -25 -25 -35q-26 -35 -62 -41l-33 -5l-38 -1h-135l101 409h151l40 -2l33 -6q19 -6 28 -33q5 -20 5 -42z" />
    <glyph glyph-name="E" unicode="E" horiz-adv-x="676" 
d="M746 749q-138 0 -264 -2q-94 -1 -123 -6q-14 -2 -38 -8l-11 -2q-23 -6 -29 -9q-44 -13 -76 -34q-39 -26 -67 -56q-32 -34 -51 -62q-19 -26 -41 -69q-19 -37 -30 -72q-7 -22 -8 -27q-8 -26 -9 -28l-3 -12q-5 -19 -8 -30q-12 -54 -12 -98q0 -50 17 -103q36 -116 152 -148
l36 -8q12 -2 26 -2l66 -3h278l47 185h-327l-27 5l-18 9l-17 23q-6 9 -6 36v6l5 37h418l47 185h-417q48 108 171 108h272z" />
    <glyph glyph-name="F" unicode="F" horiz-adv-x="678" 
d="M781 749q-39 0 -187 -5q-133 -6 -157 -6q-129 -12 -171 -29q-94 -45 -151 -138q-22 -36 -43 -92q-19 -52 -42 -141l-92 -368h217l74 295h431l46 183h-429q26 56 59 82q46 34 130 34h268z" />
    <glyph glyph-name="G" unicode="G" horiz-adv-x="742" 
d="M820 749l-212 -1l-175 -2q-41 0 -52 -1q-7 -1 -12 -1q-10 0 -13 -1q-2 0 -9 -2q-9 -1 -15 -2q-10 -2 -30 -8l-30 -11q-64 -31 -109 -67q-44 -34 -79 -87q-58 -80 -85 -189q-13 -55 -17 -87q-5 -40 -5 -71l1 -21q0 -43 14 -79q14 -37 37 -63l16 -17l16 -13q24 -18 42 -27
l53 -19l42 -9l21 -1h406l122 486h-419l-47 -187h201l-26 -108q-203 0 -228 25q-18 20 -18 59v4q0 21 6 54q8 40 16 70q18 82 60 130q52 61 133 61h348z" />
    <glyph glyph-name="H" unicode="H" horiz-adv-x="727" 
d="M781 749h-214l-72 -291h-213l72 291h-215l-195 -779h215l75 301h213l-75 -301h214z" />
    <glyph glyph-name="I" unicode="I" horiz-adv-x="309" 
d="M361 749h-222l-195 -779h222z" />
    <glyph glyph-name="J" unicode="J" horiz-adv-x="559" 
d="M623 749h-220l-119 -475l-22 -50q-15 -28 -26 -39q-14 -14 -34 -21q-39 -15 -88 -15h-202l-46 -179h237l62 1l37 3q133 22 207 107q64 73 98 202z" />
    <glyph glyph-name="K" unicode="K" horiz-adv-x="672" 
d="M854 749h-269l-302 -284l71 284h-215l-195 -779h215l75 301l156 -301h261l-213 391z" />
    <glyph glyph-name="L" unicode="L" horiz-adv-x="557" 
d="M531 149l-217 4q-31 0 -56 5t-32 9q-21 12 -21 41l2 17l10 49l10 43l109 432h-214q-114 -463 -114 -612q0 -59 15 -80q29 -44 83 -65q53 -22 139 -22h240z" />
    <glyph glyph-name="M" unicode="M" horiz-adv-x="957" 
d="M1012 749h-279l-280 -483l-39 483h-275l-195 -779h219l87 394l34 -394h206l218 377l-102 -377h211z" />
    <glyph glyph-name="N" unicode="N" horiz-adv-x="777" 
d="M834 749h-216l-103 -435l-138 435h-238l-195 -779h219l109 461l147 -461h220z" />
    <glyph glyph-name="O" unicode="O" horiz-adv-x="773" 
d="M793 505v16q0 64 -26 114q-24 46 -73 79q-79 49 -242 49q-168 0 -290 -104q-115 -96 -165 -290q-20 -85 -20 -151q0 -94 41 -153q74 -110 274 -110q197 0 316 103q120 104 156 243q14 59 22 115q7 48 7 89zM566 464q0 -44 -15 -98q-25 -103 -76 -163q-59 -65 -108 -65
q-55 0 -78 4l-30 8l-19 6q-18 8 -25 21q-8 14 -8 24l-1 27v4q0 68 21 147q19 79 71 135q59 65 150 65q43 0 70 -13t39 -43l7 -28l1 -4l1 -4v-10v-13z" />
    <glyph glyph-name="P" unicode="P" horiz-adv-x="742" 
d="M782 555l-4 51q-14 66 -67 101q-21 15 -43 23q-12 5 -31 10l-5 1q-16 3 -34 3q-15 2 -48 4q-18 1 -59 1h-352l-195 -779h215l63 252l220 -1h22l30 4l24 5l18 6l19 2q80 21 143 93q54 62 74 139q8 30 8 45q1 6 1 8q1 12 1 17v15zM550 517l-4 -24q-12 -47 -47 -67
q-32 -17 -87 -17h-143l37 151h151q57 0 79 -13q14 -11 14 -30z" />
    <glyph glyph-name="Q" unicode="Q" horiz-adv-x="773" 
d="M801 496q0 85 -50 159q-77 107 -273 107q-194 0 -313 -101t-146 -211q-28 -106 -31 -135l-6 -49l-1 -37q0 -144 73 -208q74 -66 217 -66q62 0 119 9q60 10 103 25l13 -19h256l-104 137q15 18 37 52q12 18 18 30l6 12q3 7 7 15q31 58 65 193q10 41 10 87zM566 466
q0 -44 -15 -100q-25 -103 -76 -163q-58 -66 -151 -66l-28 3l-22 6l-13 5q-31 13 -43 39t-12 58l1 13q0 24 9 63l14 57q10 39 25 72q23 40 41 61q57 66 153 66q42 0 70 -15q29 -15 39 -42q6 -16 8 -33v-24z" />
    <glyph glyph-name="R" unicode="R" horiz-adv-x="750" 
d="M771 569q0 35 -11 68q-23 78 -99 97q-19 5 -24 6q-3 1 -13 1l-33 5l-57 3h-395l-195 -779h215l70 281h131l89 -281h233l-106 310q12 5 34 15q18 8 26 14q24 16 53 46q27 29 42 60q18 35 28 75q8 23 9 39zM554 530l-3 -22q-12 -36 -33 -52q-22 -18 -96 -18h-145l29 122
h161l54 -3q25 -5 29 -9q4 -5 4 -18z" />
    <glyph glyph-name="S" unicode="S" horiz-adv-x="756" 
d="M811 749h-437q-128 0 -209 -51q-92 -59 -131 -203q-5 -22 -7 -35q-1 -7 -1 -30q0 -103 96 -145q10 -5 32 -10q12 -3 36 -7q12 -2 38 -4q13 -1 40 -1h12h14l51 1h32l76 -2q31 0 41 -12v-8q0 -4 -3 -21q-1 -5 -4 -16q-1 -5 -1 -6q-6 -18 -32 -29q-16 -8 -24 -8
q-10 -1 -18 -3h-12h-17h-402l-48 -189q66 0 145 3q78 1 170 6q81 4 138 4q159 13 198 37q94 61 118 151q19 78 19 118v4v4q0 9 -2 25q-1 8 -5 22q-7 23 -18 36q-10 16 -19 21l-17 15q-22 17 -54 24l-22 4l-25 3l-59 1q-228 0 -242 12q-5 5 -5 16l3 19q9 34 37 50
q29 15 73 15h397z" />
    <glyph glyph-name="T" unicode="T" horiz-adv-x="619" 
d="M749 747h-683l-47 -185h230l-148 -592h221l148 592h232z" />
    <glyph glyph-name="U" unicode="U" horiz-adv-x="768" 
d="M824 749h-214q-132 -540 -169 -575q-22 -21 -48 -28q-27 -9 -72 -9q-73 0 -92 31q-6 11 -6 33q0 33 12 78l118 470h-216l-126 -505q-7 -21 -9 -36l-1 -42l2 -30q7 -37 34 -96q17 -35 75 -56q30 -12 48 -15q15 -4 49 -4l83 -3l88 4q30 0 54 6l52 15q57 21 90 51
q12 12 30 32q10 11 23 28q25 33 35 54q9 18 19 48l22 75z" />
    <glyph glyph-name="V" unicode="V" horiz-adv-x="701" 
d="M879 749h-230l-320 -483l-75 483h-232l143 -779h197z" />
    <glyph glyph-name="W" unicode="W" horiz-adv-x="1105" 
d="M1248 749h-222l-248 -472l-22 472h-224l-237 -469l-24 469h-220l63 -779h230l224 447l15 -447h234z" />
    <glyph glyph-name="X" unicode="X" horiz-adv-x="646" 
d="M796 749h-256l-180 -203l-81 203h-242l163 -384l-374 -395h262l197 222l80 -222h247l-166 393z" />
    <glyph glyph-name="Y" unicode="Y" horiz-adv-x="619" 
d="M817 749h-256l-224 -250l-99 250h-234l185 -435l-87 -344h217l83 334z" />
    <glyph glyph-name="Z" unicode="Z" horiz-adv-x="734" 
d="M791 749h-669l-48 -189h371l-476 -417l-42 -173h669l48 187h-364l469 419z" />
    <glyph glyph-name="bracketleft" unicode="[" horiz-adv-x="348" 
d="M467 749h-310l-227 -906h310l44 171h-125l139 561h125z" />
    <glyph glyph-name="backslash" unicode="\" horiz-adv-x="420" 
d="M358 -122l-160 879h-136l160 -879h136z" />
    <glyph glyph-name="bracketright" unicode="]" horiz-adv-x="348" 
d="M415 749h-309l-44 -174h125l-139 -561h-125l-44 -171h309z" />
    <glyph glyph-name="asciicircum" unicode="^" horiz-adv-x="1000" 
d="M816 409l-203 334h-153l-370 -334h203l211 168l129 -168h183z" />
    <glyph glyph-name="underscore" unicode="_" 
d="M552 -105h-564l-40 -159h564z" />
    <glyph glyph-name="grave" unicode="`" 
d="M357 560l-87 199h-238l197 -199h128z" />
    <glyph glyph-name="a" unicode="a" horiz-adv-x="635" 
d="M612 419q0 10 -2 28q-1 11 -5 24q-6 23 -15 32q-51 54 -170 54h-309l-43 -169q322 0 342 -11q8 -5 8 -23v-4q-60 0 -119 -3q-67 -3 -97 -7q-86 -10 -112 -26q-85 -47 -110 -141q-5 -20 -7 -34q-1 -7 -1 -30q0 -52 29 -87q45 -52 132 -52h397q43 172 64 282q18 102 18 167
zM378 185l-12 -51h-150l-17 2q-10 1 -16 4l2 15q3 10 7 13l14 10q11 6 19 6l29 1h124z" />
    <glyph glyph-name="b" unicode="b" horiz-adv-x="611" 
d="M603 351l-1 20q-3 30 -10 49q-7 20 -21 45q-27 53 -95 76q-48 17 -121 17l-75 -1l48 192h-202l-195 -779q223 0 355 22q134 21 182 60q89 75 114 174q21 75 21 125zM393 324l-4 -30l-5 -25q-9 -36 -21 -62q-13 -27 -30 -39q-36 -27 -75 -27l-48 1l-33 1l59 239h62
q69 0 85 -21q10 -10 10 -37z" />
    <glyph glyph-name="c" unicode="c" horiz-adv-x="527" 
d="M599 557q-18 0 -71 -1q-50 -1 -53 -1q-88 -3 -125 -3q-34 0 -64 -3q-33 -5 -59 -13q-76 -19 -148 -108q-60 -75 -82 -162q-9 -40 -9 -76q0 -49 17 -92q33 -91 120 -113q14 -5 22 -6q7 -1 16 -5q12 0 18 -1l60 -3h211l44 173q-265 0 -288 21q-7 6 -9 14q-2 10 -2 25
q0 16 8 53q19 79 57 103q38 23 123 23h170z" />
    <glyph glyph-name="d" unicode="d" horiz-adv-x="609" 
d="M678 749h-205l-48 -192l-102 1q-37 0 -70 -6q-32 -6 -59 -15q-71 -27 -126 -82q-41 -37 -69 -97q-4 -8 -10 -24q-3 -8 -7 -22q-12 -36 -18 -62q-7 -27 -7 -63q0 -28 6 -57q17 -64 59 -107l18 -13l29 -17l20 -10l36 -9l23 -4h43h292zM421 388q0 8 -15 20l-15 12l-69 -277
l-18 -1h-38q-70 0 -92 19q-12 12 -12 33l5 29l13 49l14 38l13 22q11 14 27 27l9 6l16 10q9 5 24 6l35 1l32 1h39h18q14 0 14 5z" />
    <glyph glyph-name="e" unicode="e" horiz-adv-x="527" 
d="M603 557q-92 0 -179 -5q-73 -4 -137 -14q-115 -18 -159 -54q-94 -73 -129 -211q-12 -55 -12 -97q0 -76 38 -126q33 -40 83 -59q53 -21 121 -21h227l43 169l-218 2q-37 0 -57 3q-1 0 -7 1q-14 2 -15 3q-7 6 -7 22v7h313l43 171h-310q10 16 33 28t78 12h208z" />
    <glyph glyph-name="f" unicode="f" horiz-adv-x="393" 
d="M514 749q-49 0 -126 -3q-68 -4 -80 -4q-72 -7 -94 -19q-24 -16 -37 -32q-18 -19 -26 -43l-27 -91h-99l-42 -165h99l-105 -422h209l105 422h133l42 165h-139l-2 -15l7 15q2 6 2 12q3 7 16 13q12 6 33 6l40 -1l49 -6z" />
    <glyph glyph-name="g" unicode="g" horiz-adv-x="609" 
d="M684 557h-294q-86 0 -142 -19q-57 -23 -121 -74q-46 -32 -74 -93q-4 -7 -10 -23l-9 -24q-2 -5 -8 -26l-2 -8q-1 -6 -5 -23l-3 -12q-5 -18 -8 -37q-2 -14 -2 -36q0 -25 5 -52q5 -25 15 -48q42 -97 148 -109l37 -3l31 -1h11h18l53 1q-20 -22 -56 -22h-272l-43 -167
q218 0 342 18q121 16 156 43q70 59 97 170zM478 400q-1 7 -8 11q-7 3 -27 3l-68 -275h-65l-29 1l-25 3q-27 6 -36 32l-3 28q0 24 11 66l2 6q5 21 8 28q6 14 10 21q13 22 32 35q40 26 122 26l60 1h2q4 0 8 3q6 6 6 11z" />
    <glyph glyph-name="h" unicode="h" horiz-adv-x="602" 
d="M560 422q0 28 -6 49t-14 29q-25 25 -59 40t-81 15l-122 2l48 192h-200l-195 -779h200l102 410h28q95 0 104 -9q2 -2 2 -13l-2 -14l-4 -18l-89 -356h205q48 198 64 285q19 102 19 167z" />
    <glyph glyph-name="i" unicode="i" horiz-adv-x="266" 
d="M334 749h-208l-48 -191h208zM286 557h-208l-147 -587h208z" />
    <glyph glyph-name="j" unicode="j" horiz-adv-x="266" 
d="M358 749h-208l-48 -191h208zM310 557h-208q-144 -584 -165 -596q-14 -8 -48 -8l-66 -1l-44 -171h73l87 -1q72 0 142 61q62 53 94 176z" />
    <glyph glyph-name="k" unicode="k" horiz-adv-x="602" 
d="M731 557h-272l-224 -198l97 390h-203l-195 -779h203l52 206l119 -206h262l-194 294z" />
    <glyph glyph-name="l" unicode="l" horiz-adv-x="262" 
d="M332 749h-208l-195 -779h208z" />
    <glyph glyph-name="m" unicode="m" horiz-adv-x="877" 
d="M853 421q0 27 -8 54q-7 23 -16 32q-26 24 -67 38q-40 12 -103 12h-557l-147 -587h202l102 410h100l-102 -410h207l102 411l19 1h56q16 -1 19 -6q3 -4 3 -15q0 -16 -6 -37l-89 -354h203q43 173 64 283q18 102 18 168z" />
    <glyph glyph-name="n" unicode="n" horiz-adv-x="600" 
d="M584 423q0 65 -25 87q-47 47 -172 47h-285l-147 -587h202l102 410h46l50 1q32 0 37 -5l1 -10l-2 -18l-6 -24l-89 -354h205q48 194 64 283q19 104 19 170z" />
    <glyph glyph-name="o" unicode="o" horiz-adv-x="609" 
d="M624 341q0 84 -45 139q-69 88 -206 88q-131 0 -237 -82q-108 -83 -141 -214q-11 -49 -11 -88q0 -82 45 -138q69 -87 207 -87t241 82t137 215q8 30 8 45q1 6 1 8q1 12 1 17v15zM416 317q0 -6 -2 -20q-1 -8 -5 -26q-15 -61 -54 -100q-22 -21 -43 -29q-22 -9 -48 -9
q-46 0 -63 33l-8 19l-1 25q0 21 6 45q15 62 55 99q41 38 92 38q49 0 61 -31q10 -19 10 -44z" />
    <glyph glyph-name="p" unicode="p" horiz-adv-x="611" 
d="M651 329l-4 56q-15 90 -76 131q-62 41 -154 41h-291l-194 -776h202l47 189l92 -1q70 0 136 20q67 20 118 70q28 28 43 49q7 10 9 13q7 10 9 13q4 6 11 20l3 6l7 12q7 13 9 18q3 6 6 16q2 8 4 12l3 9q4 10 5 14q2 7 3 16l8 42zM442 330q0 -21 -10 -62q-18 -76 -66 -104
q-36 -21 -129 -21h-12l59 240l23 1h75q35 0 52 -20q8 -13 8 -34z" />
    <glyph glyph-name="q" unicode="q" horiz-adv-x="609" 
d="M678 557q-112 0 -205 -6q-98 -6 -156 -16q-132 -22 -177 -61q-91 -81 -120 -195q-9 -38 -11 -57q-3 -25 -3 -47q0 -21 1 -26q0 -2 1 -5q2 -12 4 -20l6 -24q1 -6 6 -17q39 -89 138 -107q32 -7 89 -7h12h65l-47 -188h203zM432 384l-60 -241h-62q-67 0 -85 23q-9 15 -9 37
q0 27 9 58q18 75 52 98q31 25 76 25h79z" />
    <glyph glyph-name="r" unicode="r" horiz-adv-x="471" 
d="M506 455q0 39 -13 55q-17 23 -48 35t-85 12h-258l-147 -587h202l106 426l35 -1l14 -1l-3 -2q0 -12 -6 -30l-10 -36l-11 -49h194l24 112q6 36 6 66z" />
    <glyph glyph-name="s" unicode="s" horiz-adv-x="594" 
d="M632 557q-227 0 -349 -12t-152 -33q-37 -22 -58 -54t-30 -65q-13 -56 -13 -92v-8q0 -26 10 -45q9 -20 24 -31q25 -22 88 -31q4 -1 9 -2q5 0 14 -2h44h11h16l85 1q24 0 33 -4l2 -4l-2 -5q-4 -19 -17 -25t-40 -6h-317l-43 -169h397q83 0 144 64q54 56 69 114l7 29l3 40
l-2 28q-12 44 -44 70q-31 28 -89 34l-156 3l-29 -2q-2 0 -7 5v4q5 21 24 27q6 2 17 2h38h270z" />
    <glyph glyph-name="t" unicode="t" horiz-adv-x="414" 
d="M474 557h-149l48 192h-203l-48 -192h-97l-42 -165h97q-51 -219 -51 -303l4 -38l1 -2q7 -19 10 -23q38 -56 132 -56h151l42 164h-61q-39 0 -54 4q-18 3 -21 10q-3 8 -3 18l4 35l49 191h149z" />
    <glyph glyph-name="u" unicode="u" horiz-adv-x="602" 
d="M642 557h-203l-102 -412h-74q-50 0 -57 7q-2 4 -2 11l5 33l91 361h-202q-44 -181 -63 -284q-20 -109 -20 -170q0 -30 6 -51q7 -20 16 -31q53 -51 172 -51h286z" />
    <glyph glyph-name="v" unicode="v" horiz-adv-x="609" 
d="M730 557h-224l-213 -321l-46 321h-216l102 -587h190z" />
    <glyph glyph-name="w" unicode="w" horiz-adv-x="873" 
d="M1006 557h-217l-165 -297l-21 297h-195l-165 -296l-19 296h-207l59 -587h196l163 288l20 -288h204z" />
    <glyph glyph-name="x" unicode="x" horiz-adv-x="553" 
d="M692 557h-248l-135 -136l-62 136h-228l142 -286l-294 -301h244l128 131l64 -131h228l-139 282z" />
    <glyph glyph-name="y" unicode="y" horiz-adv-x="602" 
d="M666 557h-203l-102 -412h-89h-16l-20 1l-9 7l-1 10l2 19l6 24l88 351h-200q-46 -181 -65 -290q-11 -56 -16 -97q-4 -31 -4 -70l4 -44q6 -19 12 -26q37 -49 135 -58l120 -2q-20 -22 -56 -22h-272l-43 -167q125 0 197 4q80 4 145 12q121 16 157 46q33 29 55 68q24 39 37 97
z" />
    <glyph glyph-name="z" unicode="z" horiz-adv-x="584" 
d="M644 557h-558l-44 -175h264l-327 -251l-40 -161h558l44 173h-264l327 253z" />
    <glyph glyph-name="braceleft" unicode="{" 
d="M587 751l-62 1q-67 0 -100 -5l-45 -11l-29 -13q-13 -6 -23 -13l-15 -12l-3 -2l-12 -13l-17 -26l-18 -42l-15 -52l-30 -121q-18 -67 -39 -82q-16 -10 -33 -15q-16 -4 -46 -4h-35l-40 -162q57 0 82 -3q24 -3 30 -12q3 -6 3 -18l-3 -24l-6 -28q-42 -177 -42 -219
q0 -52 48 -82q43 -25 128 -25l26 1h50l41 161l-55 1l-43 4l-3 8v6q0 15 6 39l30 118l6 24q1 2 1 10q1 7 1 9q2 14 2 30v9q0 20 -7 35q-7 16 -19 29l-3 3l11 7q34 22 50 53q15 24 30 81q40 158 49 173q10 12 25 16q12 4 34 4h48z" />
    <glyph glyph-name="bar" unicode="|" 
d="M465 794h-166l-264 -1058h166z" />
    <glyph glyph-name="braceright" unicode="}" 
d="M477 341h-50l-30 2l-27 5q-9 5 -11 18l-1 11l2 9l7 38l31 124l1 5q8 36 10 50q3 21 3 39v6q0 25 -10 44t-29 28q-25 18 -61 26q-33 6 -78 6h-28l-45 -1l-42 -162l57 -1l41 -1l3 -23l-2 -16l-5 -18q-40 -170 -40 -197q0 -39 26 -68l2 -2q-24 -13 -40 -32q-30 -35 -50 -110
q-35 -143 -41 -153l-9 -19q-9 -13 -20 -13l-32 -4q-2 0 -7 -1l-7 -1h-16h-23l-41 -161h67h26h10h12l32 3l19 2l41 11l30 14q41 21 62 59q10 15 18 40l15 49l3 11q45 182 68 199q12 12 33 17q20 3 50 3h34z" />
    <glyph glyph-name="asciitilde" unicode="~" horiz-adv-x="1000" 
d="M868 718h-165l-7 -37l-9 -22l-5 -16l-6 -15q-11 -23 -28 -29q-14 -7 -27 -7l-25 5l-14 11l-10 11l-16 19l-11 13q-61 67 -128 67q-27 0 -57 -5q-25 -4 -56 -14q-55 -19 -100 -81q-22 -33 -39 -72q-16 -39 -36 -111h160l22 72l11 18l7 10q12 15 24 18q17 7 26 7l20 -4
l7 -5l10 -12l12 -15l20 -23q63 -66 149 -66l33 4l38 8q28 11 52 25q19 11 30 19q6 5 15 12q17 15 32 36l25 44l11 23l9 28l11 30z" />
    <glyph glyph-name="quotesinglbase" unicode="&#x201a;" horiz-adv-x="214" 
d="M221 155h-179l-47 -185h56l-33 -142q77 62 107 89q24 22 38 43q21 33 35 87l10 38l4 18z" />
    <glyph glyph-name="florin" unicode="&#x192;" horiz-adv-x="773" 
d="M775 749h-161l-56 -4l-42 -11q-46 -19 -64 -45l-29 -41l-13 -27l-14 -29l-56 -123h-134l-45 -177h99l-119 -262l-15 -31l-11 -12q-10 -12 -22 -13l-24 -4l-31 -1h-39l-45 -177h73l15 -1h16l53 2l21 3l34 6l20 6l17 7l16 9l13 9q39 27 58 58l20 35l20 41l24 52l120 273
h151l45 177h-115l34 74q11 23 17 27q5 4 23 4h22l28 -1h14l37 -3z" />
    <glyph glyph-name="quotedblbase" unicode="&#x201e;" horiz-adv-x="367" 
d="M391 155h-179l-47 -185h56l-32 -140q76 57 106 86q21 19 38 43l19 41q9 20 16 47l10 38l4 18zM221 155l-9 -52l-4 -18l-10 -38q-14 -54 -35 -87q-14 -21 -38 -43q-30 -27 -107 -89l33 142h-56l47 185h179z" />
    <glyph glyph-name="ellipsis" unicode="&#x2026;" horiz-adv-x="1000" 
d="M947 155h-184l-47 -185h184zM613 155h-183l-47 -185h183zM281 155h-184l-47 -185h184z" />
    <glyph glyph-name="dagger" unicode="&#x2020;" 
d="M562 548h-147l50 201h-212l-50 -201h-147l-47 -183h147l-121 -489h212l121 489h147z" />
    <glyph glyph-name="daggerdbl" unicode="&#x2021;" 
d="M564 557h-147l48 192h-212l-48 -192h-147l-46 -181h147l-26 -110h-147l-47 -183h147l-51 -207h212l51 207h147l47 183h-147l26 110h147z" />
    <glyph glyph-name="circumflex" unicode="&#x2c6;" 
d="M433 560l-86 199h-150l-186 -199h146l90 62l60 -62h126z" />
    <glyph glyph-name="perthousand" unicode="&#x2030;" horiz-adv-x="1352" 
d="M781 747h-152l-497 -777h152zM482 603v26q0 88 -84 107q-66 15 -97 15l-25 -1l-14 -1l-23 -4l-27 -6q-42 -12 -78 -40q-22 -16 -38 -35q-17 -20 -27 -40l-21 -41l-13 -41l-8 -42q-2 -12 -2 -25l-2 -34l1 -26q6 -40 32 -68q26 -27 74 -39q31 -11 75 -11q36 0 75 9
q55 11 90 34t50 54l23 47l17 37l16 53l4 32q0 2 1 8q1 2 1 5v12v15zM317 575q0 -21 -10 -57q-11 -39 -32 -58q-22 -19 -51 -19q-22 0 -29 10q-5 12 -5 23v4q0 19 6 40l6 21l12 28q8 15 17 22q21 15 46 18l13 -1l6 -2l10 -4l10 -7zM899 255q-1 53 -23.5 86.5t-53.5 49.5
t-58 20.5t-47 4.5q-69 0 -133 -31q-66 -32 -94 -87l-16 -29l-9 -22l-13 -35l-7 -26q-7 -27 -7 -64l1 -22q0 -10 2 -22q2 -10 6 -21q10 -22 22 -38q26 -32 76 -47q15 -7 39 -7l36 -2q69 2 118 24.5t76.5 51.5t39 50t14.5 30q0 -16 3.5 -34t14 -38.5t32 -40.5t55.5 -34
q29 -9 77 -9q43 0 74 6l34 12l16 7l25 14l27 18q31 25 57 71l13 25l9 18l9 22l6 24l9 49l1 27l-1 15q0 53 -22 87t-59 43q-64 15 -103 15q-60 0 -106.5 -22.5t-76.5 -52.5t-44 -53t-19 -33zM1164 241l-3 -20l-5 -24l-9 -27l-8 -19q-9 -19 -18 -27q-21 -18 -50 -18
q-26 0 -29 8q-4 7 -4 24l1 22l5 25q17 51 33 69q22 19 53 19q22 0 28 -11q6 -12 6 -21zM652 107q-25 2 -34.5 14t-10.5 19q0 21 6 45l5 20l10 21q12 20 28 36q9 9 17 10q6 1 26 1q8 -2 19.5 -12.5t11.5 -37.5q0 -11 -3 -26q-12 -52 -36 -73q-20 -17 -39 -17z" />
    <glyph glyph-name="Scaron" unicode="&#x160;" horiz-adv-x="756" 
d="M716 968h-146l-90 -62l-60 62h-127l87 -199h150zM784 749h-439l-62 -4l-36 -4l-16 -4q-52 -14 -92 -38l-25 -18l-18 -15q-19 -19 -36 -45q-32 -45 -56 -138q-6 -30 -6 -54q0 -36 13 -63t34 -47q59 -56 184 -56l202 -2l18 -1l16 -10l1 -10l-1 -11l-3 -13q-10 -34 -28 -42
q-16 -9 -36 -12q-18 -3 -43 -3h-401l-49 -191l291 2l214 4l24 2l28 5l52 19l43 20q49 35 69 68l22 35q12 15 15 28l9 26l10 32l9 49q0 1 1 5q2 7 3 12v20q0 56 -27 86l-21 20l-20 19q-18 11 -47 20q-43 8 -107 8h-200q-32 0 -44 12q-1 1 -1 14q0 16 6 41q8 26 33 36
q26 9 71 9h397z" />
    <glyph glyph-name="guilsinglleft" unicode="&#x2039;" horiz-adv-x="398" 
d="M475 468h-245l-245 -197l145 -211h228l-146 198z" />
    <glyph glyph-name="OE" unicode="&#x152;" horiz-adv-x="1201" 
d="M1274 749l-317 -1l-26 -2l-34 -5l-23 -2l-37 -9l-42 -15l-37 -19l-30 -18l-12 11l-30 18l-18 13l-17 9l-38 15q-22 7 -52 12q-19 3 -49 5h-4q-15 1 -49 1q-55 0 -107 -11q-51 -10 -99 -33q-96 -44 -161 -135q-63 -88 -89 -195q-26 -109 -26 -176v-15q0 -38 13 -73
q9 -34 28 -60q37 -57 105 -82q69 -26 171 -26q80 0 152 24l68 27l66 32q25 -22 49 -34q31 -19 77 -29q39 -6 93 -6h280l47 185h-289l-39 2l-29 5q-19 7 -28 19l-8 22l-3 24l1 18l3 26h420l47 185h-421v-14l6 18l31 49q19 24 52 37q23 10 39 13q22 5 46 5h273zM570 473
q0 -50 -14 -108q-13 -53 -40 -108q-11 -25 -27 -43q-16 -21 -28 -31q-29 -24 -65 -36q-36 -13 -75 -13q-36 0 -66 14q-16 6 -27 15q-10 9 -15 18q-13 22 -13 63q0 49 12 94q3 17 9 38q5 17 11 32l14 35l13 29l21 35q12 15 27 27l16 13l16 9l13 8q9 5 24 8l25 7q8 2 24 4
q8 1 22 1l37 -4l31 -8q27 -13 41 -31q14 -22 14 -68z" />
    <glyph glyph-name="quoteleft" unicode="&#x2018;" horiz-adv-x="197" 
d="M225 749h-185l-11 -57l-11 -36q-9 -43 -9 -73l1 -24q3 -13 8 -25q5 -10 12 -21q18 -29 64 -75l30 126h54z" />
    <glyph glyph-name="quoteright" unicode="&#x2019;" horiz-adv-x="197" 
d="M219 749h-177l-47 -185h57l-33 -138q79 57 103 80l9 9q10 9 13 13q4 4 10 13l4 6q25 32 37 80l13 56q4 9 5 23z" />
    <glyph glyph-name="quotedblleft" unicode="&#x201c;" horiz-adv-x="367" 
d="M395 749h-184l-7 -32l-8 -26l-9 -36q-1 -5 -1 -8q-4 -21 -5 -27q-2 -14 -2 -36l1 -25q8 -26 20 -46q21 -31 63 -75l30 126h55zM225 749l-47 -185h-54l-30 -126q-46 46 -64 75q-7 11 -12 21q-5 12 -8 25l-1 24q0 30 9 73l11 36l11 57h185z" />
    <glyph glyph-name="quotedblright" unicode="&#x201d;" horiz-adv-x="367" 
d="M384 749h-172l-47 -185h56l-33 -138q78 58 101 78q21 19 38 43q28 40 41 95l14 64l1 12zM214 749l-1 -31l-1 -12l-14 -64q-15 -62 -40 -96q-13 -19 -38 -41q-33 -28 -102 -78l33 137h-56l47 185h172z" />
    <glyph glyph-name="bullet" unicode="&#x2022;" horiz-adv-x="197" 
d="M208 395q0 18 -6 33q-8 15 -16 24q-9 10 -19 16q-21 15 -62 15t-87 -49l-9 -13l-6 -12q-5 -5 -8 -14q-4 -14 -6 -23l-1 -18q0 -26 20 -52q31 -31 74 -31q27 0 48 10q22 12 40 31q29 37 35 61z" />
    <glyph glyph-name="endash" unicode="&#x2013;" horiz-adv-x="1000" 
d="M1052 362h-1060l-43 -185h1060z" />
    <glyph glyph-name="emdash" unicode="&#x2014;" 
d="M556 362h-564l-47 -185h564z" />
    <glyph glyph-name="tilde" unicode="&#x2dc;" 
d="M471 753h-114l-17 -25q-9 -10 -17 -12l-19 3l-28 9l-33 8l-21 2h-22l-25 -3l-27 -10q-11 -5 -26 -18l-24 -24l-15 -17l-10 -16l-44 -84h116q19 31 31 34l22 -4l14 -3l16 -1l28 -11l16 -1l20 -1q21 0 43 8q20 7 43 24q21 16 40 46q9 11 24 40q16 28 29 56z" />
    <glyph glyph-name="trademark" unicode="&#x2122;" horiz-adv-x="832" 
d="M778 745h-154l-62 -103l-15 103h-145l-83 -328h128l18 70l10 -70h73l32 50l-13 -50h128zM411 745l-30 -117h-82l-53 -211h-136l53 211h-82l30 117h300z" />
    <glyph glyph-name="scaron" unicode="&#x161;" horiz-adv-x="594" 
d="M606 759h-146l-90 -63l-60 63h-126l86 -200h150zM607 557q-275 0 -421 -35q-144 -36 -159 -93q-22 -89 -22 -132l1 -18q9 -44 35 -64l12 -9l15 -6l29 -10l26 -5l21 -1l22 -1h21l46 1l55 1q52 0 52 -16q-12 -30 -58 -30h-317l-43 -169h397q29 0 51 6q23 6 37 16l17 10
l15 10l20 18q22 22 43 54q22 33 34 84q5 23 5 32l1 16l-2 29q-10 39 -37 63q-25 25 -60 34q-21 8 -35 8q-14 2 -20 2h-20h-127l-20 -2q-8 0 -8 6l7 16q6 8 18 13q11 3 33 3h13h10h270z" />
    <glyph glyph-name="guilsinglright" unicode="&#x203a;" horiz-adv-x="398" 
d="M388 260l-147 208h-229l147 -198l-264 -210h245z" />
    <glyph glyph-name="oe" unicode="&#x153;" horiz-adv-x="920" 
d="M996 557q-19 0 -71 -1q-50 -1 -53 -1q-88 -3 -124 -3q-44 0 -73 -3q-27 -4 -43 -9q-42 -10 -81 -42q-34 31 -64 46q-51 21 -115 21q-65 0 -127 -21q-40 -14 -58 -26l-27 -16l-25 -18l-25 -20l-24 -23q-7 -8 -16 -19q-3 -4 -11 -14l-3 -5l-18 -28q-27 -39 -42 -104
q-8 -32 -8 -46v-3q-2 -14 -2 -17v-18l2 -34q9 -60 41 -103q38 -47 83 -66q5 -3 17 -7q1 -1 9 -3q3 -1 4 -1l32 -7q17 -4 50 -4h6h7q21 0 34 3l42 9q40 11 77 27l37 19l18 9l14 -16l16 -14q28 -22 61 -25l23 -3l21 -1h30h12h227l43 169q-268 0 -292 7q-7 1 -10 7t-3 18v6h314
l43 171h-312q12 19 22 24l17 7q8 5 18 5q15 4 54 4h210zM416 313l-1 -16l-4 -20q-8 -40 -28 -72t-53 -52q-29 -20 -63 -20l-25 2l-3 1l-10 4q-25 12 -31 39q-5 17 -5 33l4 38l2 5q4 13 8 24q6 20 10 29l8 13l9 14l25 24q13 12 41 25l11 4l14 1l19 3l18 -2l21 -6
q24 -14 28 -36q5 -17 5 -35z" />
    <glyph glyph-name="Ydieresis" unicode="&#x178;" horiz-adv-x="619" 
d="M606 981h-183l-48 -187h183zM432 981l-48 -187h-183l48 187h183zM789 749h-256l-224 -250l-99 250h-234l185 -435l-87 -344h217l83 334z" />
    <glyph glyph-name="exclamdown" unicode="&#xa1;" horiz-adv-x="313" 
d="M361 749h-216l-48 -189h216zM313 563l-149 -593h-214l149 593h214z" />
    <glyph glyph-name="cent" unicode="&#xa2;" horiz-adv-x="410" 
d="M487 612h-106l16 63h-121l-16 -65l-27 -2q-28 -4 -47 -11q-44 -12 -109 -63q-65 -52 -80 -115l-16 -67q-4 -11 -4 -29l1 -34l1 -26q0 -23 10 -44q9 -22 22 -38q21 -21 35 -30q19 -12 38 -16l39 -11l14 -1l-17 -67h121l16 62h106l39 152h-106l46 190h106zM218 445
l-41 -167q-13 9 -16 16q-4 5 -4 23l1 19l6 24q12 50 34 70z" />
    <glyph glyph-name="sterling" unicode="&#xa3;" horiz-adv-x="682" 
d="M725 749h-224h-15l-72 -4l-23 -2l-27 -5q-27 -6 -54 -19q-23 -11 -41 -27l-29 -29l-21 -24q-20 -22 -26 -48q-11 -20 -21 -52q-12 -36 -24 -82l-3 -13h-129l-41 -163h129l-31 -128h-129l-47 -183h693l47 183h-349l31 128h175l41 163h-177l2 8l9 39l8 25l8 17l12 14l16 8
q27 9 265 9z" />
    <glyph glyph-name="currency" unicode="&#xa4;" horiz-adv-x="605" 
d="M671 646l-74 99l-131 -104q-49 29 -109 29t-120 -28l-79 103l-110 -89l76 -103l-30 -42q-4 -6 -10 -18q-3 -6 -7 -18l-11 -36l-4 -28l-2 -28l3 -32q0 -15 3 -21l3 -6l-131 -103l74 -101l131 104q46 -28 94 -28q55 0 91 11l25 7l21 10l78 -104l111 91l-79 103q11 13 20 28
q4 6 11 20l3 6q15 32 21 52q8 22 8 33q2 10 2 17v14q0 29 -9 57zM414 461l-2 -16l-13 -36l-17 -24q-13 -15 -25 -23q-17 -14 -29 -18l-24 -9l-18 -4q-10 -2 -23 -2q-14 1 -36 13q-21 15 -27 32l-3 25l3 26q7 30 28 57q23 26 53 40q13 7 23 9q8 1 17 5h16q26 0 45 -13
q20 -14 26 -32t6 -30z" />
    <glyph glyph-name="yen" unicode="&#xa5;" horiz-adv-x="619" 
d="M817 749h-256l-224 -250l-99 250h-234l107 -246h-99l-31 -119h182l2 -4h-184l-28 -119h222l-73 -291h217l73 291h230l28 119h-175l4 4h173l31 119h-95z" />
    <glyph glyph-name="brokenbar" unicode="&#xa6;" 
d="M449 729h-166l-109 -431h167zM325 229h-166l-109 -429h167z" />
    <glyph glyph-name="section" unicode="&#xa7;" 
d="M584 749h-270q-101 0 -156 -40l-24 -18l-20 -17l-32 -36q-25 -37 -39 -90q-5 -20 -7 -34q-1 -7 -1 -30l2 -29q7 -26 19 -45q-33 -22 -43 -41q-27 -39 -36 -78l-3 -19l-1 -23l2 -26l6 -24q18 -53 70 -74l25 -8q12 -4 27 -4q17 -4 59 -4h11h13h28h14q17 -3 22 -8l4 -5
l-1 -4l-7 -15q-7 -14 -20 -19t-41 -5h-19h-213l-45 -177h280l25 2h17l39 6l39 15q21 8 37 21l23 16l18 17l28 33q2 2 5 6q6 9 9 14q8 12 11 18t7 16l3 9q0 1 2 8l7 29l3 13l2 15l3 25v12q0 28 -9 49l-7 13l-9 16l9 -7q24 18 41 41q15 21 22 43l8 42l3 27l-5 43
q-12 58 -72 79q-48 17 -158 17h-19l-13 1l-5 5l-7 6l1 3l6 16q10 16 23 21l10 3l20 1h33h201zM325 330q-6 -15 -15 -24q-12 -10 -30 -20h-67q-23 0 -34 8l-1 4q2 7 15 20q4 7 12 10l18 9l10 1l8 1h8l13 1h19l27 1q17 0 17 -11z" />
    <glyph glyph-name="dieresis" unicode="&#xa8;" 
d="M452 753h-183l-47 -187h183zM279 753l-47 -187h-183l47 187h183z" />
    <glyph glyph-name="copyright" unicode="&#xa9;" horiz-adv-x="832" 
d="M820 445l-1 24l-5 21q-4 21 -10 50l-1 2q-4 16 -9 32l-19 37l-25 36q-16 21 -39 40q-23 17 -58 34q-65 32 -147 32q-77 0 -137 -23q-50 -19 -94 -43l-33 -22l-35 -25l-32 -27l-15 -14l-10 -12l-18 -18l-16 -20l-29 -42q-13 -16 -19 -28l-15 -35l-17 -42l-7 -21l-5 -14
q-12 -55 -12 -100q0 -47 12 -77l11 -32l12 -27l15 -26l13 -21q31 -38 87 -76q60 -42 120 -42l63 1l19 1l37 6l44 11l53 16q10 5 18 8q19 9 24 12q9 4 23 12q26 15 62 44q69 52 103 107l26 39q19 32 27 53q17 43 25 76l9 41l1 6l3 12v15zM699 427l-2 -30l-7 -31
q-3 -13 -13 -37l-17 -38l-18 -33q-4 -6 -10 -14q0 -1 -1 -2q-9 -10 -12 -15l-27 -30l-24 -22l-26 -19l-16 -11l-33 -19l-33 -16l-26 -11l-24 -6q-33 -6 -68 -6q-39 0 -69 9q-27 9 -56 26q-25 16 -43 42q-19 23 -28 54l-12 41l-1 32q0 27 6 52q13 59 50 116q19 27 41 50
q17 20 44 40q51 38 111 62q56 21 108 21q22 0 27 -1l8 -1q13 -2 23 -4q20 -4 42 -16q20 -10 36 -24l31 -32q8 -11 14 -22q6 -9 8 -19l6 -16l7 -28l4 -16v-26zM642 461l-4 33l-10 33q-10 21 -25 34q-15 16 -34 25q-43 21 -94 21h-16l-8 -1q-17 -2 -29 -4q-27 -6 -49 -15
q-43 -23 -69 -40q-22 -18 -46 -46q-27 -28 -41 -61l-7 -14l-5 -16l-8 -21l-11 -46l-4 -26l-1 -24l1 -25l4 -26q16 -60 58 -96q20 -17 54 -26q6 -2 14 -4q3 -1 5 -2q6 -2 9 -2l36 -1l35 2q77 9 129 52q30 22 50 52q12 17 20 34q10 22 14 33q1 4 7 19l6 18h-156
q-19 -43 -39 -60q-19 -18 -50 -18q-27 0 -32 23q-5 17 -5 31l2 26l6 25q12 50 27 72q3 4 4 6l9 15q6 8 10 12l12 11l14 10l18 7l14 1q21 -3 26 -11q7 -7 7 -19l-9 -44h158z" />
    <glyph glyph-name="ordfeminine" unicode="&#xaa;" horiz-adv-x="477" 
d="M477 620q0 49 -27 82q-27 32 -56 38l-15 3q-12 5 -24 5l-20 1h-260l-35 -136h212l39 -4l6 -1l7 -2l3 -7l4 5h-117l-26 -1l-24 -1l-26 -4l-18 -4q-33 -9 -69 -36l-16 -18l-13 -17q-13 -18 -24 -65l-3 -31q0 -34 21 -64q15 -19 121 -31q107 -12 291 -12l64 254q2 8 4 23v3
q1 7 1 20zM275 470q-111 0 -118 -4q-9 -5 -13 -16q-1 1 -1 3q-1 2 -1 3l22 -2h107z" />
    <glyph glyph-name="guillemotleft" unicode="&#xab;" horiz-adv-x="631" 
d="M713 468h-244l-244 -197l144 -211h225l-146 198zM475 468l-263 -210l146 -198h-228l-145 211l245 197h245z" />
    <glyph glyph-name="logicalnot" unicode="&#xac;" horiz-adv-x="832" 
d="M779 452h-650l-40 -156h490l-37 -148h160z" />
    <glyph glyph-name="registered" unicode="&#xae;" horiz-adv-x="832" 
d="M819 433v12l-1 33l-3 28q-6 29 -9 39q0 1 -4 11q-5 13 -7 18q-2 6 -8 18q-4 7 -5 10q-3 6 -13 20l-26 34q-12 13 -27 25l-21 17q-4 5 -13 7l-15 9l-15 8q-60 31 -146 31q-80 0 -131 -20l-47 -18l-18 -8l-48 -26l-30 -21l-43 -34q-24 -19 -48 -45q-27 -30 -48 -63
q-17 -24 -23 -37q-9 -16 -18 -36q-15 -36 -27 -81q-4 -15 -4 -22q0 -2 -3 -18l-1 -10l-3 -44v-20l5 -38q7 -28 22 -68q17 -36 34 -58q39 -55 107 -87q68 -33 111 -33l52 1l19 1l37 6l44 11l53 16q10 5 18 8q19 9 24 12q9 4 23 12q26 15 62 44q69 52 103 107l26 39
q19 30 27 52l14 39l12 39l7 39q1 5 3 17q2 14 2 24zM699 433q0 -14 -3 -34q-4 -26 -7 -37l-7 -26l-11 -26l-17 -30l-23 -35l-33 -40q-9 -10 -21 -20q-1 -1 -15 -12q-3 -2 -6 -5q-54 -38 -107 -60q-63 -21 -113 -21l-33 2l-35 8l-31 13l-39 25q-19 15 -31 34q-12 20 -21 48
q-9 25 -11 44q-2 20 -2 29q0 28 6 55l20 59q5 11 15 30q4 9 17 27q22 30 37 45l46 43l19 14q4 3 14 10l6 3q8 4 13 7q24 15 52 27q59 22 115 22q73 0 124 -36t72 -96l7 -25q3 -15 3 -42zM623 480q0 37 -23 54q-25 22 -54 25q-22 7 -229 7l-100 -402h97l41 164h49l35 -164
h110l-45 179l28 12l14 6l15 9l20 16l17 20l12 20l10 28zM518 464l-3 -15q-12 -36 -40 -48t-86 -12v30h-11l21 87h16h21q37 0 61 -11q21 -12 21 -31z" />
    <glyph glyph-name="macron" unicode="&#xaf;" 
d="M552 794h-564l-40 -160h564z" />
    <glyph glyph-name="degree" unicode="&#xb0;" horiz-adv-x="400" 
d="M367 626q0 42 -26 80q-34 52 -112 52q-66 0 -124 -49t-73 -107q-4 -8 -4 -19v-23q0 -43 26 -81q42 -52 110 -52q66 0 124 46q57 45 73 112q5 10 5 19zM252 612l-3 -14q-6 -24 -27 -41q-23 -17 -43 -17t-30 13q-6 9 -6 19l2 16q3 12 9 21l19 18q24 18 43 18q20 0 30 -13
q6 -10 6 -20z" />
    <glyph glyph-name="plusminus" unicode="&#xb1;" horiz-adv-x="832" 
d="M784 468h-242l40 160h-165l-40 -160h-244l-40 -156h244l-40 -160h164l40 160h243zM699 126h-651l-40 -156h650z" />
    <glyph glyph-name="twosuperior" unicode="&#xb2;" horiz-adv-x="449" 
d="M491 633q0 65 -51 90q-12 9 -22 11q-8 5 -28 8l-51 3h-20h-272l-34 -134h266l27 -2l12 -2l-3 1v-6l-2 -6q-6 -15 -11 -20q-7 -5 -21 -5h-29h-26h-32l-41 -1l-30 -4l-30 -8l-32 -11q-37 -15 -61 -49q-10 -12 -13 -18l-2 -4q-4 -10 -5 -15q-4 -5 -56 -206h476l35 134h-309
l-1 -6q10 29 20 41q9 9 54 9h82q83 0 132 40q29 23 45 51q19 27 28 68q1 5 3 17q2 14 2 24z" />
    <glyph glyph-name="threesuperior" unicode="&#xb3;" horiz-adv-x="418" 
d="M449 630l-1 21q-4 22 -11 35q-6 12 -15 21l-15 11l-17 10l-18 8l-16 3l-17 3l-17 1l-13 1l-272 1l-34 -134h229l29 -3l10 -5l-2 -6q-6 -18 -15 -21l-19 -6q-7 -3 -46 -3h-12h-16h-21h-27h-35h-46l-35 -134h196l29 3q7 -1 7 -7q-6 -27 -16 -31l-7 -3q-6 -3 -14 -3
q-6 -3 -43 -3h-11h-14h-19h-25h-33h-42h-56l-35 -134h276q31 0 60 7q30 7 49 15q55 25 73 63l13 24l10 29l2 8q4 7 4 18l-2 36l-7 20l-11 17l-5 6l17 13l14 14q28 28 37 63q2 8 4 24q1 7 1 18z" />
    <glyph glyph-name="acute" unicode="&#xb4;" 
d="M526 759h-252l-189 -199h146z" />
    <glyph glyph-name="mu" unicode="&#xb5;" horiz-adv-x="609" 
d="M717 563h-206l-116 -270l-19 -43l-19 -38l-24 -36l-12 -13l-13 -11q-25 -22 -55 -22q-32 0 -32 29l1 8l3 17q7 33 16 55l30 69l108 255h-206l-341 -806h204l106 252q-19 31 -29 31q-7 0 -10 -9q-1 -3 -1 -8q0 -4 2 -8l13 -17l12 -11l16 -13q24 -18 61 -18l4 -1
q45 0 84 24q13 8 35 26l2 2q21 21 39 46l-57 30l-41 -113h192z" />
    <glyph glyph-name="paragraph" unicode="&#xb6;" 
d="M608 753h-309l-38 -3q-20 0 -43 -9l-41 -16l-37 -22q-36 -24 -63 -60q-17 -23 -24 -40l-15 -42l-4 -32l-1 -20v-10q3 -26 10 -50q4 -16 15 -31l18 -19q16 -14 28 -21q9 -6 27 -11l19 -6l16 -3l-97 -388h138l167 668h15l-167 -668h138l167 668h54z" />
    <glyph glyph-name="periodcentered" unicode="&#xb7;" horiz-adv-x="590" 
d="M473 408q0 30 -11 57q-22 48 -60 66q-33 14 -77 14q-27 0 -48 -7q-25 -8 -49 -21l-23 -15q-15 -10 -23 -18q-20 -20 -34 -40q-19 -34 -28 -70l-3 -36l3 -29l8 -27q14 -30 23 -40l15 -16l18 -11l15 -6l23 -8q12 -4 37 -4q22 0 49 7q32 12 51 22q50 28 72 61l13 20l12 22
l9 23l2 11l4 23z" />
    <glyph glyph-name="periodcentered" unicode="&#x2219;" horiz-adv-x="590" 
d="M473 408q0 30 -11 57q-22 48 -60 66q-33 14 -77 14q-27 0 -48 -7q-25 -8 -49 -21l-23 -15q-15 -10 -23 -18q-20 -20 -34 -40q-19 -34 -28 -70l-3 -36l3 -29l8 -27q14 -30 23 -40l15 -16l18 -11l15 -6l23 -8q12 -4 37 -4q22 0 49 7q32 12 51 22q50 28 72 61l13 20l12 22
l9 23l2 11l4 23z" />
    <glyph glyph-name="cedilla" unicode="&#xb8;" 
d="M421 -99q0 16 -1 19q0 1 -1 3l-3 9q-9 33 -51 48l-33 8l13 48h-118l-41 -164h59q12 1 24 8h4l29 -5l-26 15l-9 -14q-3 -3 -9 -3h-14l-34 3l-36 8l-64 15l-29 -116q42 -13 60 -17q26 -6 45 -9q34 -7 69 -7q69 0 111 39q21 16 32 36q12 18 17 40q5 10 5 19z" />
    <glyph glyph-name="onesuperior" unicode="&#xb9;" horiz-adv-x="174" 
d="M232 745h-168l-123 -490h168z" />
    <glyph glyph-name="ordmasculine" unicode="&#xba;" horiz-adv-x="457" 
d="M476 587l-3 34q-10 41 -36 72l-19 17l-13 12l-20 10l-19 7l-42 13l-47 3l-48 -3l-26 -5l-22 -7q-49 -14 -88 -44q-38 -27 -65 -68q-25 -39 -31 -61q-8 -21 -8 -26q-2 -6 -2 -16l-3 -14l-1 -10l-3 -11q2 -15 32 -53q0 31 -5 46q-6 13 -12 13q-7 -1 -9 -5l-4 -8l1 -16
l2 -12l7 -22q19 0 19 7q-2 6 -13 14l-13 8l7 -36l3 -6q7 -16 11 -22l15 -25l30 -27q18 -12 39 -19q21 -9 42 -12l49 -3q54 0 97 15l24 9l21 11q23 11 39 24q43 32 66 71q13 17 23 38q5 9 11 27q3 9 7 27q7 27 7 53zM304 570l-3 -26l-4 -12l-3 -12l-6 -10l-10 -17l-11 -12
q-8 -8 -22 -16q-19 -13 -38 -13q-11 0 -19 2l-4 1q-4 1 -5 1q-18 8 -22 22q-6 14 -6 25l2 9l7 27l2 7l6 13l8 16q3 6 15 14l19 14l25 10l22 3q14 0 17 -1l3 -1q6 -1 11 -4q8 -4 12 -18z" />
    <glyph glyph-name="guillemotright" unicode="&#xbb;" horiz-adv-x="631" 
d="M624 258l-145 210h-226l146 -198l-265 -210h244zM388 260l-248 -200h-245l266 210l-147 198h227z" />
    <glyph glyph-name="onequarter" unicode="&#xbc;" horiz-adv-x="820" 
d="M787 432h-169l-344 -264l-33 -126h291l-18 -72h157l18 72h63l34 131h-63zM583 240l-17 -67h-71zM262 745h-164l-116 -461h164zM572 747h-148l-497 -777h150z" />
    <glyph glyph-name="onehalf" unicode="&#xbd;" horiz-adv-x="762" 
d="M765 327q0 61 -55 86q-25 17 -97 17h-16h-260l-33 -128h254l32 -1l3 -1l1 3l-1 -6l-1 -7l-10 -15q-10 -7 -24 -7l-25 -1h-13l-20 1h-32l-35 -2l-25 -2l-25 -6l-26 -9q-24 -10 -44 -30l-21 -22q-10 -12 -26 -65q-18 -55 -45 -162h458l33 128h-296l-1 -6l-1 -4q10 28 19 39
q8 9 58 9h72q78 0 128 38q48 37 68 115q5 12 5 19zM262 745h-164l-116 -461h164zM572 747h-148l-497 -777h150z" />
    <glyph glyph-name="threequarters" unicode="&#xbe;" horiz-adv-x="1053" 
d="M1020 432h-169l-345 -264l-33 -126h291l-18 -72h158l18 72h62l34 131h-62zM815 240l-17 -67h-71zM804 747h-148l-496 -777h150zM470 633l-1 26q-6 47 -54 69q-18 9 -104 13q-76 4 -238 4l-33 -129h221q24 0 36 -5l-3 -15q-6 -16 -89 -16h-64l-72 1l-33 -129h188l22 1
q13 -1 13 -8l-2 -5q-10 -27 -205 -27h-62l-33 -129h266q54 0 105 20q26 12 44 27l11 11q3 2 5 4q3 3 10 15l3 6q4 6 5 10q4 8 6 13l8 25v5q5 12 5 21l-1 18q-3 32 -21 53q27 21 43 43q15 23 21 47z" />
    <glyph glyph-name="questiondown" unicode="&#xbf;" horiz-adv-x="693" 
d="M781 749h-228l-47 -187h228zM735 571l-15 -60l-5 -16l-9 -25l-7 -28l-14 -31l-20 -30q-14 -24 -39 -47l-24 -18l-39 -26q-20 -13 -66 -22q-27 -4 -46 -5q-34 -2 -55 -2l-51 1l-50 1q-45 0 -70 -14q-23 -11 -35 -46l-1 -5l-1 -4l-1 -13q0 -8 2 -14l18 -9l15 -3l35 -2h392
l-47 -183h-409h-22h-13h-11l-29 1l-31 3q-19 2 -34 8q-24 9 -35 17q-31 20 -50 57l-11 31l-4 30v6v22v32l1 7q0 7 5 19l1 5v6q20 74 62 130q40 55 101 81q22 8 32 11q4 2 34 9q21 4 35 5q22 2 37 2q175 0 201 17q13 6 21 23l17 39l11 40h224z" />
    <glyph glyph-name="Agrave" unicode="&#xc0;" horiz-adv-x="723" 
d="M565 755l-88 199h-239l198 -199h129zM667 -30l-138 779h-200l-521 -779h232l105 172h269l23 -172h230zM387 329h-123l100 159z" />
    <glyph glyph-name="Aacute" unicode="&#xc1;" horiz-adv-x="723" 
d="M732 954h-252l-186 -199h145zM667 -30l-138 779h-200l-521 -779h232l105 172h269l23 -172h230zM387 329h-123l100 159z" />
    <glyph glyph-name="Acircumflex" unicode="&#xc2;" horiz-adv-x="723" 
d="M641 755l-88 199h-149l-186 -199h146l90 62l60 -62h127zM667 -30l-138 779h-200l-521 -779h232l105 172h269l23 -172h230zM387 329h-123l100 159z" />
    <glyph glyph-name="Atilde" unicode="&#xc3;" horiz-adv-x="723" 
d="M677 948h-111l-17 -25q-9 -10 -17 -12l-20 3l-29 9l-36 7l-31 3q-21 0 -44 -9t-41 -24q-17 -13 -38 -42q-25 -33 -55 -97h115l12 22q4 6 10 12h19l8 -3l13 -2l20 -4l5 29h-2q-6 0 -9 -3q-5 -5 -5 -11q0 -14 20 -17l14 -4q17 -6 43 -6l27 3l27 8q30 16 49 38l18 21l12 20
q14 19 20 32zM668 -30l-138 779h-200l-521 -779h232l105 172h269l23 -172h230zM388 329h-123l100 159z" />
    <glyph glyph-name="Adieresis" unicode="&#xc4;" horiz-adv-x="723" 
d="M661 948h-183l-48 -187h183zM487 948l-48 -187h-183l48 187h183zM668 -30l-138 779h-200l-521 -779h232l105 172h269l23 -172h230zM388 329h-123l100 159z" />
    <glyph glyph-name="Aring" unicode="&#xc5;" horiz-adv-x="723" 
d="M598 875q0 39 -26 74q-39 45 -96 45q-54 0 -104 -41q-49 -42 -61 -91l-3 -33q0 -23 6 -38q7 -16 9 -20q1 -4 10 -16q13 -16 25 -25q25 -22 76 -22q46 0 95 39q54 45 66 97zM466 857q-6 -10 -10 -13q-6 -4 -11 -6l-5 2l-1 6q4 8 9 13l6 3q1 1 2 1q1 1 2 1t2 1l4 -2z
M662 -30l-138 779h-200l-521 -779h232l105 172h269l23 -172h230zM382 329h-123l100 159z" />
    <glyph glyph-name="AE" unicode="&#xc6;" horiz-adv-x="1117" 
d="M1188 749h-281l-54 -3l-47 -4l-61 -14l-20 -8l-27 -9l-16 -9q-5 -2 -6 -3q-7 -4 -21 -14l-40 -32l-22 -19l-20 -21l-7 -7l12 16l-18 127h-204l-521 -779h232l105 172h273l9 -28l9 -25l11 -21q14 -26 25 -37q6 -6 16 -14t17 -12q39 -23 81 -29q44 -6 380 -6l47 185h-288
q-39 0 -62 6q-23 5 -32 20q-13 19 -13 41v4l3 32l3 13h417l47 185h-412q38 57 143 83q102 25 295 25zM430 329h-139l116 186z" />
    <glyph glyph-name="Ccedilla" unicode="&#xc7;" horiz-adv-x="654" 
d="M774 749h-292l-39 -2l-42 -3l-48 -8l-43 -14q-58 -16 -98 -49l-35 -30l-15 -15l-13 -15q-25 -28 -47 -62l-19 -36l-20 -36l-15 -40l-13 -42l-14 -43q-15 -69 -15 -132l1 -36l7 -39l13 -39q17 -36 44 -65q23 -21 33 -28q2 -1 6 -4q9 -6 14 -9l1 -1q15 -8 22 -10
q5 -2 19 -6q4 -1 7 -2q14 -4 48 -7q32 -3 77 -3q12 0 63 -1q34 0 62 -1q43 -1 156 -1l47 185h-288l-63 4q-22 6 -30 20l-11 23l-3 16l-1 22l1 21l4 32l5 20l2 13l3 12l4 15l8 28l10 27l18 39l15 33q10 19 24 31l16 15l19 14q38 26 369 26zM429 -104l-3 28q-16 52 -85 64
l13 48h-119l-41 -164h59q12 1 24 8h4l29 -5l-26 15l-9 -15q-3 -1 -9 -1q-3 -1 -13 -1l-34 3l-37 8l-64 15l-29 -116q5 -1 17 -5q29 -8 42 -12q17 -5 48 -10q11 -2 30 -4l6 -1q7 -1 31 -1q68 0 112 38q18 14 32 39q15 23 19 42z" />
    <glyph glyph-name="Egrave" unicode="&#xc8;" horiz-adv-x="676" 
d="M588 755l-88 199h-238l198 -199h128zM721 749h-292l-39 -2l-42 -3l-48 -8l-43 -14q-58 -16 -98 -49l-35 -30l-15 -15l-13 -15q-25 -28 -47 -62l-19 -36l-20 -36l-15 -40l-13 -42l-14 -43q-15 -69 -15 -132l1 -36l8 -39l12 -39q17 -36 44 -65q23 -21 33 -28q2 -1 6 -4
q9 -6 14 -9l1 -1q15 -8 22 -10q5 -2 19 -6q4 -1 7 -2q14 -4 48 -7q32 -3 77 -3q12 0 63 -1q34 0 62 -1q43 -1 156 -1l47 185h-288l-59 4q-19 6 -25 12q-5 4 -17 21q-6 11 -6 34l5 45h418l47 185h-416q21 49 53 72q44 36 389 36z" />
    <glyph glyph-name="Eacute" unicode="&#xc9;" horiz-adv-x="676" 
d="M756 954h-253l-185 -199h144zM721 749h-292l-39 -2l-42 -3l-48 -8l-43 -14q-58 -16 -98 -49l-35 -30l-15 -15l-13 -15q-25 -28 -47 -62l-19 -36l-20 -36l-15 -40l-13 -42l-14 -43q-15 -69 -15 -132l1 -36l8 -39l12 -39q17 -36 44 -65q23 -21 33 -28q2 -1 6 -4q9 -6 14 -9
l1 -1q15 -8 22 -10q5 -2 19 -6q4 -1 7 -2q14 -4 48 -7q32 -3 77 -3q12 0 63 -1q34 0 62 -1q43 -1 156 -1l47 185h-288l-59 4q-19 6 -25 12q-5 4 -17 21q-6 11 -6 34l5 45h418l47 185h-416q21 49 53 72q44 36 389 36z" />
    <glyph glyph-name="Ecircumflex" unicode="&#xca;" horiz-adv-x="676" 
d="M664 755l-88 199h-149l-185 -199h146l90 62l60 -62h126zM721 749h-292l-39 -2l-42 -3l-48 -8l-43 -14q-58 -16 -98 -49l-35 -30l-15 -15l-13 -15q-25 -28 -47 -62l-19 -36l-20 -36l-15 -40l-13 -42l-14 -43q-15 -69 -15 -132l1 -36l8 -39l12 -39q17 -36 44 -65
q23 -21 33 -28q2 -1 6 -4q9 -6 14 -9l1 -1q15 -8 22 -10q5 -2 19 -6q4 -1 7 -2q14 -4 48 -7q32 -3 77 -3q12 0 63 -1q34 0 62 -1q43 -1 156 -1l47 185h-288l-59 4q-19 6 -25 12q-5 4 -17 21q-6 11 -6 34l5 45h418l47 185h-416q21 49 53 72q44 36 389 36z" />
    <glyph glyph-name="Edieresis" unicode="&#xcb;" horiz-adv-x="676" 
d="M684 948h-183l-48 -187h183zM510 948l-48 -187h-183l48 187h183zM722 749h-292l-39 -2l-42 -3l-48 -8l-43 -14q-58 -16 -98 -49l-35 -30l-15 -15l-13 -15q-25 -28 -47 -62l-19 -36l-20 -36l-15 -40l-13 -42l-14 -43q-15 -69 -15 -132l1 -36l8 -39l12 -39q17 -36 44 -65
q23 -21 33 -28q2 -1 6 -4q9 -6 14 -9l1 -1q15 -8 22 -10q5 -2 19 -6q4 -1 7 -2q14 -4 48 -7q32 -3 77 -3q12 0 63 -1q34 0 62 -1q43 -1 156 -1l47 185h-288l-59 4q-19 6 -25 12q-5 4 -17 21q-6 11 -6 34l5 45h418l47 185h-416q21 49 53 72q44 36 389 36z" />
    <glyph glyph-name="Igrave" unicode="&#xcc;" horiz-adv-x="309" 
d="M359 755l-87 199h-239l198 -199h128zM336 749h-222l-195 -779h222z" />
    <glyph glyph-name="Iacute" unicode="&#xcd;" horiz-adv-x="309" 
d="M527 954h-252l-186 -199h145zM336 749h-222l-195 -779h222z" />
    <glyph glyph-name="Icircumflex" unicode="&#xce;" horiz-adv-x="309" 
d="M436 755l-88 199h-149l-186 -199h146l90 62l60 -62h127zM336 749h-222l-195 -779h222z" />
    <glyph glyph-name="Idieresis" unicode="&#xcf;" horiz-adv-x="309" 
d="M456 948h-183l-48 -187h183zM282 948l-48 -187h-183l48 187h183zM337 749h-222l-195 -779h222z" />
    <glyph glyph-name="Eth" unicode="&#xd0;" horiz-adv-x="779" 
d="M797 465l-1 43l-3 46q-4 29 -13 53q-7 18 -15 30l-15 21q-20 26 -44 44q-26 18 -55 26q-19 8 -57 12q-35 4 -94 4q-71 1 -161 3q-118 2 -192 2l-79 -317h-72l-35 -136h72l-81 -326h374q78 0 139 15q62 13 117 54l5 4q19 13 24 18l24 21l3 2q12 11 19 18q12 14 18 22
l25 35l33 62q12 20 22 51l13 34q2 4 2 13l3 15l3 12l2 13l4 13l4 18l7 35zM580 488l-1 -15q-1 -6 -4 -27q-1 -7 -4 -27q-5 -28 -12 -53q-12 -60 -34 -105q-18 -43 -51 -73l-14 -12l-14 -9q-10 -5 -16 -5l-28 -6l-23 -1h-164l34 141h168l35 136h-168l32 132h152l40 -2l19 -3
l17 -3q11 -5 26 -24q10 -13 10 -44z" />
    <glyph glyph-name="Ntilde" unicode="&#xd1;" horiz-adv-x="777" 
d="M706 948h-111l-17 -25q-9 -10 -17 -12l-20 3l-29 9l-35 8l-32 2q-46 0 -89 -38q-42 -39 -89 -134h115l15 26q1 3 7 7l1 1l25 -2l17 -5l27 -5l10 -2q11 -4 16 -5q3 -1 12 -1l15 -1l32 4l19 6l14 6q19 12 41 34l17 19l13 20l14 22zM810 749h-216l-103 -435l-138 435h-238
l-195 -779h219l109 461l147 -461h220z" />
    <glyph glyph-name="Ograve" unicode="&#xd2;" horiz-adv-x="773" 
d="M592 755l-88 199h-238l198 -199h128zM771 505v16q0 44 -13 79q-14 37 -37 65q-20 31 -48 47l-12 7l-11 6q-13 8 -23 11l-54 15q-24 9 -52 9l-66 3q-39 0 -65 -3l-42 -5l-23 -4l-16 -4q-25 -7 -51 -18q-4 -1 -19 -7q-6 -2 -10 -4l-44 -24q-7 -4 -18 -12l-8 -5
q-9 -6 -23 -18q-24 -23 -51 -55l-31 -45l-15 -27q-42 -77 -63 -164q-13 -54 -17 -84q-5 -40 -5 -66l5 -56q3 -29 9 -44q12 -39 35 -68q21 -23 51 -43l22 -14l21 -10q10 -7 21 -7l21 -6l43 -9l20 -3l55 -3h13l74 4l74 12q85 24 154 75q69 52 115 135q7 13 15 29l2 4
q10 20 21 50q15 34 28 88q18 81 18 153zM542 452l-3 -37l-6 -29l-5 -21q-6 -31 -15 -52l-24 -49q-41 -91 -120 -116l-33 -7l-34 -3l-40 4l-43 13q-21 10 -29 27q-7 15 -7 44q0 65 14 124q14 60 35 103q55 94 125 117l32 6l37 3l31 -3l23 -4l9 -4l17 -8l12 -10q15 -16 15 -25
l6 -26l1 -4z" />
    <glyph glyph-name="Oacute" unicode="&#xd3;" horiz-adv-x="773" 
d="M760 954h-253l-185 -199h144zM771 505v16q0 44 -13 79q-14 37 -37 65q-20 31 -48 47l-12 7l-11 6q-13 8 -23 11l-54 15q-24 9 -52 9l-66 3q-39 0 -65 -3l-42 -5l-23 -4l-16 -4q-25 -7 -51 -18q-4 -1 -19 -7q-6 -2 -10 -4l-44 -24q-7 -4 -18 -12l-8 -5q-9 -6 -23 -18
q-24 -23 -51 -55l-31 -45l-15 -27q-42 -77 -63 -164q-13 -54 -17 -84q-5 -40 -5 -66l5 -56q3 -29 9 -44q12 -39 35 -68q21 -23 51 -43l22 -14l21 -10q10 -7 21 -7l21 -6l43 -9l20 -3l55 -3h13l74 4l74 12q85 24 154 75q69 52 115 135q7 13 15 29l2 4q10 20 21 50
q15 34 28 88q18 81 18 153zM542 452l-3 -37l-6 -29l-5 -21q-6 -31 -15 -52l-24 -49q-41 -91 -120 -116l-33 -7l-34 -3l-40 4l-43 13q-21 10 -29 27q-7 15 -7 44q0 65 14 124q14 60 35 103q55 94 125 117l32 6l37 3l31 -3l23 -4l9 -4l17 -8l12 -10q15 -16 15 -25l6 -26l1 -4z
" />
    <glyph glyph-name="Ocircumflex" unicode="&#xd4;" horiz-adv-x="773" 
d="M668 755l-88 199h-149l-186 -199h147l90 62l60 -62h126zM771 505v16q0 44 -13 79q-14 37 -37 65q-20 31 -48 47l-12 7l-11 6q-13 8 -23 11l-54 15q-24 9 -52 9l-66 3q-39 0 -65 -3l-42 -5l-23 -4l-16 -4q-25 -7 -51 -18q-4 -1 -19 -7q-6 -2 -10 -4l-44 -24q-7 -4 -18 -12
l-8 -5q-9 -6 -23 -18q-24 -23 -51 -55l-31 -45l-15 -27q-42 -77 -63 -164q-13 -54 -17 -84q-5 -40 -5 -66l5 -56q3 -29 9 -44q12 -39 35 -68q21 -23 51 -43l22 -14l21 -10q10 -7 21 -7l21 -6l43 -9l20 -3l55 -3h13l74 4l74 12q85 24 154 75q69 52 115 135q7 13 15 29l2 4
q10 20 21 50q15 34 28 88q18 81 18 153zM542 452l-3 -37l-6 -29l-5 -21q-6 -31 -15 -52l-24 -49q-41 -91 -120 -116l-33 -7l-34 -3l-40 4l-43 13q-21 10 -29 27q-7 15 -7 44q0 65 14 124q14 60 35 103q55 94 125 117l32 6l37 3l31 -3l23 -4l9 -4l17 -8l12 -10q15 -16 15 -25
l6 -26l1 -4z" />
    <glyph glyph-name="Otilde" unicode="&#xd5;" horiz-adv-x="773" 
d="M704 948h-111l-17 -25q-9 -10 -17 -12l-20 3l-29 9l-35 8l-32 2q-46 0 -86 -37q-45 -42 -91 -135h114q21 34 35 34l15 -3l32 -8l47 -9h6l12 -1l27 3l29 9q30 16 49 38l14 16l14 22q17 23 21 34zM772 505v16q0 44 -13 79q-14 37 -37 65q-20 31 -48 47l-12 7l-11 6
q-13 8 -23 11l-54 15q-24 9 -52 9l-66 3q-39 0 -65 -3l-42 -5l-23 -4l-16 -4q-25 -7 -51 -18q-4 -1 -19 -7q-6 -2 -10 -4l-44 -24q-7 -4 -18 -12l-8 -5q-9 -6 -23 -18q-24 -23 -51 -55l-31 -45l-15 -27q-42 -77 -63 -164q-13 -54 -17 -84q-5 -40 -5 -66l5 -56q3 -29 9 -44
q12 -39 35 -68q21 -23 51 -43l22 -14l21 -10q10 -7 21 -7l21 -6l43 -9l20 -3l55 -3h13l74 4l74 12q85 24 154 75q69 52 115 135q7 13 15 29l2 4q10 20 21 50q15 34 28 88q18 81 18 153zM543 452l-3 -37l-6 -29l-5 -21q-6 -31 -15 -52l-24 -49q-41 -91 -120 -116l-33 -7
l-34 -3l-40 4l-43 13q-21 10 -29 27q-7 15 -7 44q0 65 14 124q14 60 35 103q55 94 125 117l32 6l37 3l31 -3l23 -4l9 -4l17 -8l12 -10q15 -16 15 -25l6 -26l1 -4z" />
    <glyph glyph-name="Odieresis" unicode="&#xd6;" horiz-adv-x="773" 
d="M688 948h-183l-48 -187h183zM514 948l-48 -187h-183l48 187h183zM772 505v16q0 44 -13 79q-14 37 -37 65q-20 31 -48 47l-12 7l-11 6q-13 8 -23 11l-54 15q-24 9 -52 9l-66 3q-39 0 -65 -3l-42 -5l-23 -4l-16 -4q-25 -7 -51 -18q-4 -1 -19 -7q-6 -2 -10 -4l-44 -24
q-7 -4 -18 -12l-8 -5q-9 -6 -23 -18q-24 -23 -51 -55l-31 -45l-15 -27q-42 -77 -63 -164q-13 -54 -17 -84q-5 -40 -5 -66l5 -56q3 -29 9 -44q12 -39 35 -68q21 -23 51 -43l22 -14l21 -10q10 -7 21 -7l21 -6l43 -9l20 -3l55 -3h13l74 4l74 12q85 24 154 75q69 52 115 135
q7 13 15 29l2 4q10 20 21 50q15 34 28 88q18 81 18 153zM543 452l-3 -37l-6 -29l-5 -21q-6 -31 -15 -52l-24 -49q-41 -91 -120 -116l-33 -7l-34 -3l-40 4l-43 13q-21 10 -29 27q-7 15 -7 44q0 65 14 124q14 60 35 103q55 94 125 117l32 6l37 3l31 -3l23 -4l9 -4l17 -8
l12 -10q15 -16 15 -25l6 -26l1 -4z" />
    <glyph glyph-name="multiply" unicode="&#xd7;" horiz-adv-x="832" 
d="M741 467l-88 118l-213 -173l-132 177l-135 -109l131 -175l-215 -173l89 -117l214 172l134 -176l135 108l-133 175z" />
    <glyph glyph-name="Oslash" unicode="&#xd8;" horiz-adv-x="773" 
d="M899 757h-181l-40 -35l-10 6l-22 9l-20 5l-13 4l-16 6l-42 6l-36 3l-52 1l-70 -5l-43 -7l-37 -10q-39 -12 -74 -24l-33 -19l-33 -24l-30 -25q-15 -13 -28 -31l-27 -36q-7 -9 -12 -18q-8 -12 -11 -18q-49 -85 -68 -158q-7 -29 -8 -37q0 -3 -2 -13q-4 -21 -5 -27
q-5 -32 -5 -52l-1 -38q0 -37 3 -57l5 -26l7 -21l5 -17l-143 -137h182l45 41q33 -20 56 -29q21 -10 43 -10l28 -3l41 -5h48q82 0 151 17q67 16 101 40q30 22 64 52q24 23 36 39q18 18 33 42l18 30q23 40 43 89l13 34l17 60q8 37 13 77q4 32 4 68v21q0 13 -2 31q-1 14 -6 27
q-6 26 -19 51zM530 573l-12 7l-318 -300l1 10q6 43 26 123q20 79 77 127q56 49 99 49l64 -1h11l20 -4l14 -4zM609 490l-10 25q-6 11 -12 11q-4 -1 -9 -9q-4 -7 -4 -13l2 -23l1 -20l-1 -26l-3 -29l-8 -37l-12 -43q-48 -130 -107 -165q-24 -12 -31 -15q-10 -4 -33 -12
q-26 -8 -48 -8q-40 0 -76 10l-16 9z" />
    <glyph glyph-name="Ugrave" unicode="&#xd9;" horiz-adv-x="768" 
d="M591 755l-88 199h-238l198 -199h128zM800 749h-214l-113 -453l-17 -57q-9 -26 -19 -39q-18 -33 -50 -45l-20 -9q-7 -4 -18 -4q-9 -2 -25 -4q-9 -1 -26 -1l-39 2l-28 7l-18 10l-10 11q-5 8 -5 15v13v4l2 24l3 21l4 22l121 483h-215l-114 -458l-6 -22l-6 -29l-1 -9l-5 -21
l-4 -30v-19v-16v-7q1 -5 4 -16l1 -4q3 -11 7 -20q3 -12 12 -29q4 -9 10 -22q2 -6 3 -8q20 -37 81 -56q63 -20 167 -20h6q105 0 179 20q71 20 105 55q15 15 33 35q6 6 17 20q8 11 9 12q24 31 34 56l7 22l10 31l6 18l6 18z" />
    <glyph glyph-name="Uacute" unicode="&#xda;" horiz-adv-x="768" 
d="M759 954h-253l-185 -199h144zM800 749h-214l-113 -453l-17 -57q-9 -26 -19 -39q-18 -33 -50 -45l-20 -9q-7 -4 -18 -4q-9 -2 -25 -4q-9 -1 -26 -1l-39 2l-28 7l-18 10l-10 11q-5 8 -5 15v13v4l2 24l3 21l4 22l121 483h-215l-114 -458l-6 -22l-6 -29l-1 -9l-5 -21l-4 -30
v-19v-16v-7q1 -5 4 -16l1 -4q3 -11 7 -20q3 -12 12 -29q4 -9 10 -22q2 -6 3 -8q20 -37 81 -56q63 -20 167 -20h6q105 0 179 20q71 20 105 55q15 15 33 35q6 6 17 20q8 11 9 12q24 31 34 56l7 22l10 31l6 18l6 18z" />
    <glyph glyph-name="Ucircumflex" unicode="&#xdb;" horiz-adv-x="768" 
d="M667 755l-88 199h-149l-186 -199h147l90 62l60 -62h126zM800 749h-214l-113 -453l-17 -57q-9 -26 -19 -39q-18 -33 -50 -45l-20 -9q-7 -4 -18 -4q-9 -2 -25 -4q-9 -1 -26 -1l-39 2l-28 7l-18 10l-10 11q-5 8 -5 15v13v4l2 24l3 21l4 22l121 483h-215l-114 -458l-6 -22
l-6 -29l-1 -9l-5 -21l-4 -30v-19v-16v-7q1 -5 4 -16l1 -4q3 -11 7 -20q3 -12 12 -29q4 -9 10 -22q2 -6 3 -8q20 -37 81 -56q63 -20 167 -20h6q105 0 179 20q71 20 105 55q15 15 33 35q6 6 17 20q8 11 9 12q24 31 34 56l7 22l10 31l6 18l6 18z" />
    <glyph glyph-name="Udieresis" unicode="&#xdc;" horiz-adv-x="768" 
d="M687 948h-183l-48 -187h183zM513 948l-48 -187h-183l48 187h183zM801 749h-214l-113 -453l-17 -57q-9 -26 -19 -39q-18 -33 -50 -45l-20 -9q-7 -4 -18 -4q-9 -2 -25 -4q-9 -1 -26 -1l-39 2l-28 7l-18 10l-10 11q-5 8 -5 15v13v4l2 24l3 21l4 22l121 483h-215l-114 -458
l-6 -22l-6 -29l-1 -9l-5 -21l-4 -30v-19v-16v-7q1 -5 4 -16l1 -4q3 -11 7 -20q3 -12 12 -29q4 -9 10 -22q2 -6 3 -8q20 -37 81 -56q63 -20 167 -20h6q105 0 179 20q71 20 105 55q15 15 33 35q6 6 17 20q8 11 9 12q24 31 34 56l7 22l10 31l6 18l6 18z" />
    <glyph glyph-name="Yacute" unicode="&#xdd;" horiz-adv-x="619" 
d="M684 954h-253l-186 -199h145zM792 749h-256l-224 -250l-99 250h-234l185 -435l-87 -344h217l83 334z" />
    <glyph glyph-name="Thorn" unicode="&#xde;" horiz-adv-x="744" 
d="M751 435v10l-1 12q0 14 -6 29l-15 34q-21 37 -59 57l-3 2l-20 10q-5 2 -17 5q-7 3 -9 3q-10 4 -34 8l-51 4l-79 1h-137l34 139h-215l-195 -779h215l40 160h159l86 3l16 1l21 1l17 4l32 7l38 14l43 21q52 28 85 78q20 27 30 50l18 56l4 18l2 24v18zM520 394l-3 -15
q-10 -33 -75 -47q-62 -13 -195 -13l25 104h151h5l23 -1l22 -2l19 -3q15 -3 24 -14q4 -3 4 -9z" />
    <glyph glyph-name="germandbls" unicode="&#xdf;" horiz-adv-x="689" 
d="M670 609l-3 36q-12 43 -41 66q-12 11 -28 18q-15 8 -33 11q-12 5 -22 5q-8 2 -21 2l-13 2h-170l-50 -4l-20 -3l-20 -6q-44 -17 -64 -35q-26 -31 -35 -58l-10 -29l-14 -49l-2 -8h-99l-41 -163h99l-106 -424h209l146 590q9 28 87 28l31 -3q20 0 27 -3l-3 -11l-4 -15l-14 -8
l-16 -9l-17 -10l-6 -2l-27 -15l-24 -14l-61 -33q-42 -25 -51 -70l-6 -31l-1 -21v-11l6 -17l8 -18l11 -12l12 -12l15 -12l16 -9l28 -15l46 -20l19 -10l20 -11v-6l-3 -15l-2 -9q-18 -27 -209 -27l-43 -169h223l45 4l18 6l20 7q41 18 66 42q33 30 49 64q12 19 17 34q5 18 9 33
q2 5 5 18q3 10 3 12l2 27l-2 25q-4 25 -26 57q-23 34 -77 55l-87 41l3 6q1 2 1 9q-34 0 -34 -15q0 -7 9 -16q11 -8 17 -8q7 1 7 8v-8l4 -1l128 66l34 23l14 15l11 13q25 36 35 76q2 8 4 24q1 8 1 22z" />
    <glyph glyph-name="agrave" unicode="&#xe0;" horiz-adv-x="635" 
d="M487 560l-87 199h-234l194 -199h127zM602 401q0 53 -22 81q-19 27 -40 44q-22 16 -47 22q-40 9 -407 9l-43 -169h271l38 -2l24 -4q12 -7 16 -12q2 -4 2 -14v-6h-159l-46 -3l-45 -4l-39 -11l-39 -17l-35 -23q-10 -7 -17 -14q-8 -10 -12 -16q-13 -15 -25 -38l-21 -46
l-3 -16q-6 -30 -6 -54q0 -51 27 -84q20 -27 151 -40q135 -14 380 -14l88 354q9 45 9 77zM353 185l-12 -51h-150l-30 4l-3 2l4 20q0 10 15 17l9 2l16 4z" />
    <glyph glyph-name="aacute" unicode="&#xe1;" horiz-adv-x="635" 
d="M656 759h-253l-186 -199h144zM602 401q0 53 -22 81q-19 27 -40 44q-22 16 -47 22q-40 9 -407 9l-43 -169h271l38 -2l24 -4q12 -7 16 -12q2 -4 2 -14v-6h-159l-46 -3l-45 -4l-39 -11l-39 -17l-35 -23q-10 -7 -17 -14q-8 -10 -12 -16q-13 -15 -25 -38l-21 -46l-3 -16
q-6 -30 -6 -54q0 -51 27 -84q20 -27 151 -40q135 -14 380 -14l88 354q9 45 9 77zM353 185l-12 -51h-150l-30 4l-3 2l4 20q0 10 15 17l9 2l16 4z" />
    <glyph glyph-name="acircumflex" unicode="&#xe2;" horiz-adv-x="635" 
d="M563 560l-87 199h-149l-189 -199h149l90 62l60 -62h126zM602 401q0 53 -22 81q-19 27 -40 44q-22 16 -47 22q-40 9 -407 9l-43 -169h271l38 -2l24 -4q12 -7 16 -12q2 -4 2 -14v-6h-159l-46 -3l-45 -4l-39 -11l-39 -17l-35 -23q-10 -7 -17 -14q-8 -10 -12 -16
q-13 -15 -25 -38l-21 -46l-3 -16q-6 -30 -6 -54q0 -51 27 -84q20 -27 151 -40q135 -14 380 -14l88 354q9 45 9 77zM353 185l-12 -51h-150l-30 4l-3 2l4 20q0 10 15 17l9 2l16 4z" />
    <glyph glyph-name="atilde" unicode="&#xe3;" horiz-adv-x="635" 
d="M601 753h-113l-17 -25q-9 -10 -17 -12l-19 3l-30 9l-35 8l-31 2q-48 0 -90 -39q-43 -39 -88 -133h114q19 33 33 34l5 -1l17 -3l19 -3l21 -6q18 -8 31 -8h22q21 0 43 8q20 7 42 23q19 13 42 47q21 32 51 96zM603 401q0 53 -22 81q-19 27 -40 44q-22 16 -47 22
q-40 9 -407 9l-43 -169h271l38 -2l24 -4q12 -7 16 -12q2 -4 2 -14v-6h-159l-46 -3l-45 -4l-39 -11l-39 -17l-35 -23q-10 -7 -17 -14q-8 -10 -12 -16q-13 -15 -25 -38l-21 -46l-3 -16q-6 -30 -6 -54q0 -51 27 -84q20 -27 151 -40q135 -14 380 -14l88 354q9 45 9 77zM354 185
l-12 -51h-150l-30 4l-3 2l4 20q0 10 15 17l9 2l16 4z" />
    <glyph glyph-name="adieresis" unicode="&#xe4;" horiz-adv-x="635" 
d="M583 753h-183l-47 -187h183zM409 753l-47 -187h-183l47 187h183zM603 401q0 53 -22 81q-19 27 -40 44q-22 16 -47 22q-40 9 -407 9l-43 -169h271l38 -2l24 -4q12 -7 16 -12q2 -4 2 -14v-6h-159l-46 -3l-45 -4l-39 -11l-39 -17l-35 -23q-10 -7 -17 -14q-8 -10 -12 -16
q-13 -15 -25 -38l-21 -46l-3 -16q-6 -30 -6 -54q0 -51 27 -84q20 -27 151 -40q135 -14 380 -14l88 354q9 45 9 77zM354 185l-12 -51h-150l-30 4l-3 2l4 20q0 10 15 17l9 2l16 4z" />
    <glyph glyph-name="aring" unicode="&#xe5;" horiz-adv-x="635" 
d="M527 690l-1 22q0 8 -3 14l-7 17l-10 26l-13 11l-11 8l-20 16l-22 -5l5 -1h8l7 1v3q0 1 -1 2l-26 6l-28 3h-10q-38 0 -91 -41q-50 -44 -62 -92l-3 -38q0 -17 7 -37q12 -37 42 -55q28 -22 77 -22q44 0 96 40q51 45 63 93zM397 678l-10 -14l-11 -6l-7 4l9 15l12 6zM596 401
q0 53 -22 81q-19 27 -40 44q-22 16 -47 22q-40 9 -407 9l-43 -169h271l38 -2l24 -4q12 -7 16 -12q2 -4 2 -14v-6h-159l-46 -3l-45 -4l-39 -11l-39 -17l-35 -23q-10 -7 -17 -14q-8 -10 -12 -16q-13 -15 -25 -38l-21 -46l-3 -16q-6 -30 -6 -54q0 -51 27 -84q20 -27 151 -40
q135 -14 380 -14l88 354q9 45 9 77zM347 185l-12 -51h-150l-30 4l-3 2l4 20q0 10 15 17l9 2l16 4z" />
    <glyph glyph-name="ae" unicode="&#xe6;" horiz-adv-x="906" 
d="M984 557h-259l-16 -1l-23 -1l-14 -2l-12 -2l-23 -3l-15 -5l-19 -7l-20 -7l-31 -17l-15 12l-12 7l-23 13l-17 5l-15 3l-28 4l-331 1l-43 -169h267l45 -3q20 -5 28 -11q3 -3 3 -16l-1 -8h-150l-46 -3l-45 -4l-39 -11l-39 -17l-35 -23q-10 -7 -17 -14q-8 -10 -12 -16
q-13 -15 -25 -38l-21 -46l-3 -16q-6 -30 -6 -54q0 -51 27 -84q20 -27 130 -40q114 -14 317 -14l10 40q49 -21 139 -30q84 -10 242 -10l43 169h-233l-45 2q-18 3 -26 10q-10 6 -10 17v4l1 13h324l42 165h-326v-15l3 8l9 13l11 9q10 12 31 16l28 5l252 2zM370 185
q-125 0 -147 -2q-16 -3 -22 -6q-12 -3 -19 -24l-1 -13l-4 2h9l31 -3h142z" />
    <glyph glyph-name="ccedilla" unicode="&#xe7;" horiz-adv-x="527" 
d="M627 557h-229l-25 -1l-38 -3l-46 -8l-9 -2q-17 -4 -23 -6q-1 0 -9 -3q-11 -3 -15 -5q-10 -4 -18 -9l-48 -31q-31 -25 -64 -67l-28 -39q-15 -22 -20 -35l-7 -16l-8 -22l-17 -59q-6 -28 -6 -61l2 -38l5 -29l9 -26l14 -30l15 -22q16 -23 39 -37q23 -15 52 -23
q48 -15 327 -15l44 173h-186h-18q-53 0 -85 21q-10 9 -10 33q0 27 9 60q19 81 60 104q40 22 103 22l14 -1h172zM368 -107v8l-1 20l-6 23q-6 15 -24 27q-21 13 -56 17l13 48h-119l-41 -164h59q12 1 24 8h4l29 -5l-26 15l-9 -15q-3 -1 -9 -1q-3 -1 -13 -1l-34 3l-37 8l-64 15
l-29 -116q58 -18 103 -25q26 -5 36 -6q14 -2 34 -2q68 0 112 38q21 18 33 39q15 21 19 42z" />
    <glyph glyph-name="egrave" unicode="&#xe8;" horiz-adv-x="527" 
d="M487 560l-87 199h-234l194 -199h127zM578 557h-243l-65 -4q-33 -4 -59 -12q-61 -18 -134 -80q-72 -61 -102 -190q-12 -54 -12 -94q0 -70 33 -121q27 -41 133 -64q103 -22 302 -22l43 169h-225h-30l-32 5q-15 6 -18 15v9l1 9h313l43 171h-309l10 12q19 17 34 24
q15 4 274 4z" />
    <glyph glyph-name="eacute" unicode="&#xe9;" horiz-adv-x="527" 
d="M656 759h-253l-186 -199h144zM578 557h-243l-65 -4q-33 -4 -59 -12q-61 -18 -134 -80q-72 -61 -102 -190q-12 -54 -12 -94q0 -70 33 -121q27 -41 133 -64q103 -22 302 -22l43 169h-225h-30l-32 5q-15 6 -18 15v9l1 9h313l43 171h-309l10 12q19 17 34 24q15 4 274 4z" />
    <glyph glyph-name="ecircumflex" unicode="&#xea;" horiz-adv-x="527" 
d="M563 560l-87 199h-149l-189 -199h149l90 62l60 -62h126zM578 557h-243l-65 -4q-33 -4 -59 -12q-61 -18 -134 -80q-72 -61 -102 -190q-12 -54 -12 -94q0 -70 33 -121q27 -41 133 -64q103 -22 302 -22l43 169h-225h-30l-32 5q-15 6 -18 15v9l1 9h313l43 171h-309l10 12
q19 17 34 24q15 4 274 4z" />
    <glyph glyph-name="edieresis" unicode="&#xeb;" horiz-adv-x="527" 
d="M583 753h-183l-47 -187h183zM409 753l-47 -187h-183l47 187h183zM579 557h-243l-65 -4q-33 -4 -59 -12q-61 -18 -134 -80q-72 -61 -102 -190q-12 -54 -12 -94q0 -70 33 -121q27 -41 133 -64q103 -22 302 -22l43 169h-225h-30l-32 5q-15 6 -18 15v9l1 9h313l43 171h-309
l10 12q19 17 34 24q15 4 274 4z" />
    <glyph glyph-name="igrave" unicode="&#xec;" horiz-adv-x="266" 
d="M315 560l-87 199h-238l197 -199h128zM285 557h-208l-147 -587h208z" />
    <glyph glyph-name="iacute" unicode="&#xed;" horiz-adv-x="266" 
d="M484 759h-253l-186 -199h144zM285 557h-208l-147 -587h208z" />
    <glyph glyph-name="icircumflex" unicode="&#xee;" horiz-adv-x="266" 
d="M391 560l-87 199h-149l-189 -199h149l90 62l60 -62h126zM285 557h-208l-147 -587h208z" />
    <glyph glyph-name="idieresis" unicode="&#xef;" horiz-adv-x="266" 
d="M411 753h-183l-47 -187h183zM237 753l-47 -187h-183l47 187h183zM286 557h-208l-147 -587h208z" />
    <glyph glyph-name="eth" unicode="&#xf0;" horiz-adv-x="611" 
d="M642 626l-3 125l-214 -52l-67 50h-237l104 -97l24 -24l23 20l-10 14l-149 -36l4 -125l207 49q7 -6 13 -16l7 -10l4 -5l-9 20l19 -10h-6q-11 2 -33 4q-12 1 -37 1q-10 0 -26 -2q-7 -1 -21 -4l-6 -1q-24 -6 -58 -22q-20 -10 -32 -18q-13 -9 -30 -21l-30 -25l-28 -30
q-59 -65 -82 -155q-4 -20 -6 -34q-2 -16 -2 -38q0 -27 5 -52q4 -23 15 -46q37 -82 104 -103q66 -22 124 -22h4q28 0 46 3l44 7l37 10l28 11l57 29q14 8 20 12q8 6 18 15l38 37l19 22l16 23l17 27l8 18l16 39l14 51l6 31q4 12 4 31v18l1 19l-1 36l-5 27l-7 36l-9 30l-10 24
l-18 37l-19 32l-9 12zM390 291l-2 -14l-11 -40l-3 -9l-8 -18l-10 -18q-15 -21 -46 -39q-37 -18 -68 -18l-10 1h-8l-17 5q-25 12 -34 35l-4 16l-2 16l4 33l11 30l12 24q20 32 51 50q32 18 67 18l25 -2q1 -1 3 -1q2 -1 3 -1l9 -2q26 -11 32 -31q6 -21 6 -35z" />
    <glyph glyph-name="ntilde" unicode="&#xf1;" horiz-adv-x="600" 
d="M577 753h-112l-17 -25q-9 -10 -17 -12l-20 3l-28 9l-33 8l-17 2h-28l-22 -4l-22 -7l-17 -9l-13 -8l-20 -20l-17 -21l-12 -17l-12 -19l-30 -67h112q19 34 32 34l4 -1l16 -3l31 -5q38 -12 64 -12q49 0 86 31q21 16 41 46q19 32 51 97zM576 401v6q0 33 -9 54q-13 34 -29 48
q-16 19 -48 29q-5 3 -22 7l-5 1l-30 6q-15 2 -107 4q-59 1 -248 1l-147 -587h202l102 410h86l35 -2l8 -1l4 -2l1 -8l-3 -18v-4l-94 -375h205l89 357l6 29q4 17 4 45z" />
    <glyph glyph-name="ograve" unicode="&#xf2;" horiz-adv-x="609" 
d="M486 560l-87 199h-234l194 -199h127zM601 335l-2 31q-3 25 -9 40l-4 16l-4 11q-6 19 -15 31l-21 28q-23 34 -77 55q-52 21 -122 21q-67 0 -127 -22q-65 -23 -101 -52q-39 -33 -57 -54l-23 -27l-26 -36q-16 -23 -22 -40l-14 -41l-12 -52l-4 -35l5 -73q5 -52 40 -92
q19 -22 43 -38q19 -14 50 -26q18 -8 29 -11q12 -3 30 -6q16 -4 56 -4l28 2l34 4l35 9l40 11q50 17 99 54l26 23l23 23l20 24l19 29l31 58q11 25 25 78q5 22 6 31q1 7 1 30zM392 314l-1 -17l-8 -35l-9 -28l-15 -29q-10 -16 -23 -29q-14 -14 -29 -23q-32 -20 -62 -20l-18 1h-7
l-6 2l-9 4q-26 12 -32 39l-4 19v16l1 18l4 21l10 34l15 29q16 27 32 40l21 16q10 8 21 11l25 7l19 2l24 -3l18 -5q25 -15 28 -36l3 -15l2 -15v-4z" />
    <glyph glyph-name="oacute" unicode="&#xf3;" horiz-adv-x="609" 
d="M655 759h-253l-186 -199h144zM601 335l-2 31q-3 25 -9 40l-4 16l-4 11q-6 19 -15 31l-21 28q-23 34 -77 55q-52 21 -122 21q-67 0 -127 -22q-65 -23 -101 -52q-39 -33 -57 -54l-23 -27l-26 -36q-16 -23 -22 -40l-14 -41l-12 -52l-4 -35l5 -73q5 -52 40 -92q19 -22 43 -38
q19 -14 50 -26q18 -8 29 -11q12 -3 30 -6q16 -4 56 -4l28 2l34 4l35 9l40 11q50 17 99 54l26 23l23 23l20 24l19 29l31 58q11 25 25 78q5 22 6 31q1 7 1 30zM392 314l-1 -17l-8 -35l-9 -28l-15 -29q-10 -16 -23 -29q-14 -14 -29 -23q-32 -20 -62 -20l-18 1h-7l-6 2l-9 4
q-26 12 -32 39l-4 19v16l1 18l4 21l10 34l15 29q16 27 32 40l21 16q10 8 21 11l25 7l19 2l24 -3l18 -5q25 -15 28 -36l3 -15l2 -15v-4z" />
    <glyph glyph-name="ocircumflex" unicode="&#xf4;" horiz-adv-x="609" 
d="M562 560l-87 199h-149l-189 -199h149l90 62l60 -62h126zM601 335l-2 31q-3 25 -9 40l-4 16l-4 11q-6 19 -15 31l-21 28q-23 34 -77 55q-52 21 -122 21q-67 0 -127 -22q-65 -23 -101 -52q-39 -33 -57 -54l-23 -27l-26 -36q-16 -23 -22 -40l-14 -41l-12 -52l-4 -35l5 -73
q5 -52 40 -92q19 -22 43 -38q19 -14 50 -26q18 -8 29 -11q12 -3 30 -6q16 -4 56 -4l28 2l34 4l35 9l40 11q50 17 99 54l26 23l23 23l20 24l19 29l31 58q11 25 25 78q5 22 6 31q1 7 1 30zM392 314l-1 -17l-8 -35l-9 -28l-15 -29q-10 -16 -23 -29q-14 -14 -29 -23
q-32 -20 -62 -20l-18 1h-7l-6 2l-9 4q-26 12 -32 39l-4 19v16l1 18l4 21l10 34l15 29q16 27 32 40l21 16q10 8 21 11l25 7l19 2l24 -3l18 -5q25 -15 28 -36l3 -15l2 -15v-4z" />
    <glyph glyph-name="otilde" unicode="&#xf5;" horiz-adv-x="609" 
d="M600 753h-113l-17 -25q-9 -10 -17 -12l-19 3l-30 9l-35 8l-31 2q-48 0 -90 -39q-43 -39 -88 -133h114l16 25q9 9 15 9l24 -4l26 -4q36 -13 67 -13q21 0 43 8q20 7 42 23q19 13 42 47q21 32 51 96zM602 335l-2 31q-3 25 -9 40l-4 16l-4 11q-6 19 -15 31l-21 28
q-23 34 -77 55q-52 21 -122 21q-67 0 -127 -22q-65 -23 -101 -52q-39 -33 -57 -54l-23 -27l-26 -36q-16 -23 -22 -40l-14 -41l-12 -52l-4 -35l5 -73q5 -52 40 -92q19 -22 43 -38q19 -14 50 -26q18 -8 29 -11q12 -3 30 -6q16 -4 56 -4l28 2l34 4l35 9l40 11q50 17 99 54
l26 23l23 23l20 24l19 29l31 58q11 25 25 78q5 22 6 31q1 7 1 30zM393 314l-1 -17l-8 -35l-9 -28l-15 -29q-10 -16 -23 -29q-14 -14 -29 -23q-32 -20 -62 -20l-18 1h-7l-6 2l-9 4q-26 12 -32 39l-4 19v16l1 18l4 21l10 34l15 29q16 27 32 40l21 16q10 8 21 11l25 7l19 2
l24 -3l18 -5q25 -15 28 -36l3 -15l2 -15v-4z" />
    <glyph glyph-name="odieresis" unicode="&#xf6;" horiz-adv-x="609" 
d="M582 753h-183l-47 -187h183zM408 753l-47 -187h-183l47 187h183zM602 335l-2 31q-3 25 -9 40l-4 16l-4 11q-6 19 -15 31l-21 28q-23 34 -77 55q-52 21 -122 21q-66 0 -128 -22q-64 -22 -101 -52l-25 -22l-31 -31q-24 -24 -48 -64q-1 -2 -4 -6q-7 -9 -10 -14l-5 -10
q-4 -7 -5 -9q-3 -6 -7 -18q-3 -10 -6 -24l-12 -52l-3 -37v-8l5 -63q5 -50 39 -92q19 -22 43 -38q19 -14 50 -26q18 -8 29 -11q12 -3 30 -6q16 -4 56 -4l28 2l34 4l35 9l40 11q50 17 99 54l26 23l23 23l20 24l19 29l31 58q11 25 25 78q5 22 6 31q1 7 1 30zM393 314l-1 -17
l-8 -35l-9 -28l-15 -29q-10 -16 -23 -29q-14 -14 -29 -23q-32 -20 -62 -20l-18 1h-7l-6 2l-9 4q-26 12 -32 39l-4 19v16l1 18l4 21l10 34l15 29q16 27 32 40l21 16q10 8 21 11l25 7l19 2l24 -3l18 -5q25 -15 28 -36l3 -15l2 -15v-4z" />
    <glyph glyph-name="divide" unicode="&#xf7;" horiz-adv-x="832" 
d="M540 456q0 24 -14 44q-22 28 -62 28q-35 0 -63 -25t-36 -55l-2 -21l3 -22l11 -22q27 -28 61 -28q17 0 32 6q6 2 10 5q6 3 20 14t23 26q11 14 14 30zM760 378h-648l-41 -158h648zM470 168q0 16 -4 25q-4 10 -12 19q-17 29 -60 29q-18 0 -35 -6q-13 -5 -29 -17
q-25 -22 -34 -57l-2 -23q0 -23 13 -42q21 -28 60 -28q34 0 62 22q18 13 25 26q11 15 15 33z" />
    <glyph glyph-name="oslash" unicode="&#xf8;" horiz-adv-x="846" 
d="M500 -7q9 4 29 15.5t50.5 35t60.5 59.5t48 81q34 86 34 162q0 44 -8.5 70t-14.5 35l120 114h-174l-33 -30q-1 0 -7 2q-27 9 -62.5 16t-80.5 7q-46 0 -94 -11t-95 -36q-9 -5 -30.5 -20t-52 -45.5t-58.5 -78t-41 -108.5q-2 -7 -4.5 -25.5t-2.5 -41.5q0 -32 7 -63t24 -57
l-126 -112h176l34 29q6 -6 46 -18t93 -12q79 0 162 32zM514 438l-292 -268q-7 28 -7 55q0 42 14.5 77t34 58.5t34 35.5t20.5 16q33 19 66.5 26.5t64.5 7.5q24 0 41.5 -3t23.5 -5zM516 136q-34 -33 -70 -47t-72 -14q-28 0 -48 5.5t-28 9.5l298 260q1 -4 3 -14t2 -26
q0 -39 -18.5 -83.5t-66.5 -90.5z" />
    <glyph glyph-name="ugrave" unicode="&#xf9;" horiz-adv-x="602" 
d="M481 560l-87 199h-238l197 -199h128zM617 557h-203l-102 -412h-89l-28 3l-13 3l-2 2q0 32 95 404h-202l-89 -356q-9 -45 -9 -79q0 -31 8 -53q14 -33 30 -51q17 -18 44 -27q13 -6 48 -11t76 -5q64 -2 133 -3q96 -2 156 -2z" />
    <glyph glyph-name="uacute" unicode="&#xfa;" horiz-adv-x="602" 
d="M650 759h-253l-186 -199h144zM617 557h-203l-102 -412h-89l-28 3l-13 3l-2 2q0 32 95 404h-202l-89 -356q-9 -45 -9 -79q0 -31 8 -53q14 -33 30 -51q17 -18 44 -27q13 -6 48 -11t76 -5q64 -2 133 -3q96 -2 156 -2z" />
    <glyph glyph-name="ucircumflex" unicode="&#xfb;" horiz-adv-x="602" 
d="M557 560l-87 199h-149l-189 -199h149l90 62l60 -62h126zM617 557h-203l-102 -412h-89l-28 3l-13 3l-2 2q0 32 95 404h-202l-89 -356q-9 -45 -9 -79q0 -31 8 -53q14 -33 30 -51q17 -18 44 -27q13 -6 48 -11t76 -5q64 -2 133 -3q96 -2 156 -2z" />
    <glyph glyph-name="udieresis" unicode="&#xfc;" horiz-adv-x="602" 
d="M577 753h-183l-47 -187h183zM403 753l-47 -187h-183l47 187h183zM618 557h-203l-102 -412h-89l-28 3l-13 3l-2 2q0 32 95 404h-202l-89 -356q-9 -45 -9 -79q0 -31 8 -53q14 -33 30 -51q17 -18 44 -27q13 -6 48 -11t76 -5q64 -2 133 -3q96 -2 156 -2z" />
    <glyph glyph-name="yacute" unicode="&#xfd;" horiz-adv-x="602" 
d="M674 759h-253l-186 -199h144zM641 557h-203l-102 -412h-89q-29 0 -41 5l-3 2l-2 13v17l96 375h-200l-87 -348q-11 -49 -11 -85q0 -16 2 -30q1 -11 6 -22q20 -56 70 -80q5 -3 17 -7l9 -3q4 -1 5 -1t2 -1q7 -2 12 -3h3q9 -2 13 -2q15 -5 53 -5h11h14h18h23h28l-8 -8
q-19 -14 -322 -14l-43 -167h314l30 2l34 4q22 3 34 8l30 11q34 18 55 36q24 19 41 46q18 25 66 189q50 177 125 480z" />
    <glyph glyph-name="thorn" unicode="&#xfe;" horiz-adv-x="611" 
d="M628 332l-1 20l-4 36q-2 10 -5 23q-1 4 -2 7l-4 12l-3 7q-9 22 -23 41q-7 13 -15 19l-22 17l-21 12l-25 12q-23 8 -72 14q-58 5 -127 5l48 192h-204l-242 -968h204l47 189h97l49 2l42 6l43 12l37 13q46 24 78 56q83 85 116 211q7 22 7 34l1 5q1 8 1 11v12zM419 331
q0 -22 -10 -58l-19 -54q-9 -22 -21 -34q-25 -26 -46 -31l-3 -1q-21 -4 -24 -4q-2 0 -18 -2l-15 -2q-2 0 -7 -1l-7 -1h-24h-24l58 240h26l39 1q62 0 86 -21q9 -9 9 -32z" />
    <glyph glyph-name="ydieresis" unicode="&#xff;" horiz-adv-x="602" 
d="M600 753h-183l-47 -187h183zM426 753l-47 -187h-183l47 187h183zM641 557h-203l-102 -412h-89q-29 0 -41 5l-3 2l-2 13v17l96 375h-200l-87 -348q-11 -49 -11 -85q0 -16 2 -30q1 -11 6 -22q20 -56 70 -80q5 -3 17 -7l9 -3q4 -1 5 -1t2 -1q7 -2 12 -3h3q9 -2 13 -2
q15 -5 53 -5h11h14h18h23h28l-8 -8q-19 -14 -322 -14l-43 -167h314l30 2l34 4q22 3 34 8l30 11q34 18 55 36q24 19 41 46q18 25 66 189q50 177 125 480z" />
  </font>
</defs>
</svg>
