<?xml version="1.0" standalone="no"?>
<!DOCTYPE svg PUBLIC "-//W3C//DTD SVG 1.1//EN" "http://www.w3.org/Graphics/SVG/1.1/DTD/svg11.dtd" >
<svg>
<metadata>
Created by FontForge 20110222 at Mon Mar  7 12:45:09 2011
 By www-data
Copyright [c] - Roger White - 1994 - All Rights Reserved - see .txt file for terms for distribution and use.
</metadata>
<defs>
<font id="NewtownBold" horiz-adv-x="500" >
  <font-face 
    font-family="Newtown"
    font-weight="700"
    font-stretch="normal"
    units-per-em="1000"
    panose-1="2 11 8 0 0 0 0 0 0 0"
    ascent="800"
    descent="-200"
    x-height="557"
    cap-height="749"
    bbox="-111 -264 1363 994"
    underline-thickness="50"
    underline-position="-50"
    unicode-range="U+0020-2122"
  />
    <missing-glyph />
    <glyph glyph-name="space" unicode=" " horiz-adv-x="296" 
 />
    <glyph glyph-name="space" unicode="&#xa0;" horiz-adv-x="296" 
 />
    <glyph glyph-name="exclam" unicode="!" horiz-adv-x="313" 
d="M262 -30v189h-212v-189h212zM260 154h-210v595h210v-595z" />
    <glyph glyph-name="quotedbl" unicode="&#x22;" horiz-adv-x="330" 
d="M323 400v331h-156v-331h156zM163 400v331h-154v-331h154z" />
    <glyph glyph-name="numbersign" unicode="#" horiz-adv-x="770" 
d="M788 542h-137l73 203h-174l-70 -203h-55l70 203h-169l-73 -203h-144l-57 -158h144l-20 -57h-137l-62 -160h143l-70 -201h167l74 201h58l-73 -201h170l72 201h145l55 160h-143l20 57h136zM427 384l-21 -59h-61l21 59h61z" />
    <glyph glyph-name="dollar" unicode="$" horiz-adv-x="752" 
d="M739 234q0 61 -25 109q-25 50 -70 71q-23 14 -41 18l-19 7l-20 3l-30 4l-30 1h-29l-47 1v112h270v189h-270v64h-116v-63h8h-26q-55 0 -91 -6l-29 -6l-27 -9l-26 -13l-27 -17q-21 -14 -33 -32q-16 -21 -26 -51q-24 -54 -24 -114q0 -54 17 -107q19 -51 56 -82
q40 -31 92 -45q53 -9 136 -9v-102h-272v-187h272v-70h116v70h5h29q57 0 97 6l45 14l22 10l19 11q34 25 53 56l10 14l10 20l11 38q10 41 10 95zM312 448l-43 3l-30 8q-11 6 -12 13q-3 8 -3 28v4q0 34 20 42l20 6l22 4l26 3v-111zM527 216q0 -38 -16 -44q-15 -8 -36 -11
q-17 -4 -47 -4l2 103l27 1h17l20 -2l22 -10q7 -5 9 -11q2 -10 2 -22z" />
    <glyph glyph-name="percent" unicode="%" horiz-adv-x="922" 
d="M932 199l-3 39q-1 6 -4 18q0 1 -1 6l-6 18q-13 49 -47 81q-34 36 -84 48q-19 4 -32 6q-8 1 -35 1h-8q-17 0 -39 -2q-13 -1 -32 -5q-29 -10 -58 -25q-59 -32 -77 -91q-9 -27 -12 -52l-4 -35v-30q0 -45 15 -84q12 -29 19 -42q12 -19 29 -34q35 -32 82 -44l38 -7h3
q13 -2 19 -2h16l48 5q11 0 26 3q9 2 29 8q74 21 105 117q10 23 10 48q3 21 3 55zM769 189q0 -47 -16 -66q-7 -7 -17 -13q-8 -4 -23 -4q-28 0 -36 9l-12 16l-6 19l-3 20l-1 21l4 42l8 20l9 11q9 9 36 9q26 0 39 -16q18 -22 18 -68zM679 747h-142l-304 -777h142zM432 537
q0 34 -21 107t-100 92l-54 11q-19 4 -26 4h-15h-22l-24 -2l-27 -5l-21 -5q-37 -10 -70 -42q-19 -19 -29 -35l-12 -24l-7 -20q-8 -25 -11 -42q-3 -19 -3 -41q0 -27 1 -34l1 -7l3 -24l7 -32l9 -30q25 -75 124 -102q41 -9 77 -9q21 0 40 3q14 2 33 8q55 13 87 37q30 23 39 54
l12 48l6 32zM269 507q0 -32 -16 -48q-16 -18 -42 -18l-24 4q-12 5 -17 13q-15 21 -15 53q0 28 1 36q1 5 2 11q0 6 1 11l11 23q9 9 18 12l24 3l7 1l5 -2l15 -6q10 -4 15 -11q7 -4 10 -25q5 -20 5 -57z" />
    <glyph glyph-name="ampersand" unicode="&#x26;" horiz-adv-x="805" 
d="M805 265v183h-407v-183h95l-1 16l-6 -15l-9 -23l-8 -22q-7 -16 -43 -49q-34 -28 -65 -28l-55 1l-21 4q-22 10 -32 25q-12 15 -12 32l2 19q5 20 10 25q13 11 20 11l28 4h7h66v183h-55q-21 0 -38 3q-16 3 -28 9q-13 5 -18 26l-2 19q0 23 19 36q24 15 292 15v193h-274
l-46 -3l-40 -7q-42 -12 -73 -33q-69 -46 -84 -139l-2 -37q0 -24 5 -49l3 -10q3 -14 4 -16q2 -8 6 -20q1 -3 1 -5l15 -30l14 -19l12 -13l19 -15q-33 -30 -49 -53q-10 -15 -14 -26q-6 -12 -9 -25q-6 -25 -6 -58l3 -43q7 -34 22 -66q21 -33 41 -51q52 -49 115 -62q11 -2 25 -6
q2 -1 27 -3q4 -1 9 -1l57 -3q145 0 224 61q78 60 111 123q13 19 14 25l18 46l18 54h95z" />
    <glyph glyph-name="quotesingle" unicode="'" horiz-adv-x="197" 
d="M190 634v59l-2 28l-4 28h-175v-185h57v-134q52 48 80 79q2 2 5 6q9 11 12 17q8 12 11 19q16 36 16 83z" />
    <glyph glyph-name="parenleft" unicode="(" horiz-adv-x="348" 
d="M359 -157q-24 43 -45 83q-8 15 -20 43l-9 18q-19 39 -38 98q-29 101 -29 210q0 46 8 108q3 24 11 56q3 17 11 49q13 44 39 100l72 141h-160q-87 -118 -124 -218q-25 -60 -35 -116q-11 -60 -11 -121q0 -118 46 -234q37 -90 124 -217h160z" />
    <glyph glyph-name="parenright" unicode=")" horiz-adv-x="348" 
d="M319 296q0 117 -46 234q-41 105 -124 219h-162q32 -55 44 -78q18 -34 30 -61q26 -54 39 -104q16 -51 24 -101q6 -51 6 -110q0 -105 -29 -210q-18 -50 -40 -100q-27 -58 -72 -142h160q43 58 74 112q31 58 49 108q47 120 47 233z" />
    <glyph glyph-name="asterisk" unicode="*" 
d="M468 496l-76 41l76 45l-71 122l-74 -43v88h-146v-88l-72 43l-71 -122l74 -45l-74 -41l71 -124l72 42v-87h146v87l74 -42z" />
    <glyph glyph-name="plus" unicode="+" horiz-adv-x="832" 
d="M739 220v158h-242v248h-160v-248h-244v-158h244v-250h160v250h242z" />
    <glyph glyph-name="comma" unicode="," horiz-adv-x="197" 
d="M190 32v57l-4 66h-177v-185h57v-128q57 48 80 74q19 19 28 42q16 35 16 74z" />
    <glyph glyph-name="hyphen" unicode="-" horiz-adv-x="387" 
d="M391 177v185h-396v-185h396z" />
    <glyph glyph-name="period" unicode="." horiz-adv-x="197" 
d="M188 -30v185h-179v-185h179z" />
    <glyph glyph-name="slash" unicode="/" horiz-adv-x="420" 
d="M470 757h-142l-378 -879h138z" />
    <glyph glyph-name="zero" unicode="0" horiz-adv-x="773" 
d="M777 307q0 137 -25 219q-39 127 -142 184q-83 47 -251 47q-170 0 -267 -103q-26 -28 -42 -55q-14 -23 -29 -68q-24 -73 -24 -172q0 -195 98 -298q98 -102 292 -102q200 0 295 103t95 245zM556 359l-1 -35l-4 -39q-9 -75 -51 -111q-23 -20 -44 -27q-17 -6 -33 -8
q-7 -1 -36 -1q-95 0 -136 60q-35 53 -35 160q0 104 37 162t102 58l64 -3q28 -3 46 -12q21 -9 34 -18q12 -10 19 -22l11 -19l16 -42q9 -19 9 -62z" />
    <glyph glyph-name="one" unicode="1" horiz-adv-x="264" 
d="M241 -30v779h-218v-779h218z" />
    <glyph glyph-name="two" unicode="2" horiz-adv-x="682" 
d="M689 476l-2 58l-4 38l-8 31l-12 34l-7 13l-8 13l-18 21q-37 39 -92 54q-3 1 -5 2l-18 6q-5 1 -21 1q-18 2 -27 2h-28h-442v-185l323 -2q106 0 120 -8q19 -12 19 -51q0 -33 -35 -41q-8 -4 -53 -4h-13h-16h-21q-47 0 -88 -3q-44 -3 -63 -7q-86 -18 -126 -67
q-24 -31 -35 -70q-12 -40 -12 -94v-247h689v183h-467q0 76 15 97q9 11 33 16q23 3 71 3l90 1l55 3q102 15 147 63q59 59 59 140z" />
    <glyph glyph-name="three" unicode="3" horiz-adv-x="633" 
d="M627 213q0 45 -28 95q-18 32 -52 54q18 16 27 28q11 13 18 25q34 52 34 92q0 38 -3 56l-14 54q-5 20 -11 31q-8 17 -15 26q-22 28 -49 40q-22 8 -37 15l-6 2q-9 2 -12 3q-12 5 -32 8q-34 7 -90 7h-373v-183q13 0 67 -1q36 0 66 -1q46 -1 145 -1q90 0 110 -11
q20 -12 20 -45q0 -30 -22 -43q-10 -7 -15 -8q-10 -2 -16 -3l-34 -1h-265v-183q311 0 334 -14q22 -12 22 -45q0 -31 -22 -44t-65 -13h-325v-183h389q78 0 138 27q83 41 101 107l12 46q3 21 3 63z" />
    <glyph glyph-name="four" unicode="4" horiz-adv-x="773" 
d="M772 101v183h-97v465h-234l-440 -467v-181h461v-131h213v131h97zM462 284h-191l191 204v-204z" />
    <glyph glyph-name="five" unicode="5" horiz-adv-x="686" 
d="M696 207q0 118 -68 184q-69 65 -181 65h-226v110h438v183h-658v-476q422 0 439 -13q18 -13 18 -48q0 -34 -18 -46q-12 -10 -27 -12l-32 -1h-380v-183h413q128 0 199 53q83 62 83 184z" />
    <glyph glyph-name="six" unicode="6" horiz-adv-x="727" 
d="M738 257q0 86 -88 144q-70 43 -190 43h-224q12 66 41 92q38 30 130 30h292v183q-245 0 -398 -26q-151 -27 -198 -71q-105 -100 -105 -301q0 -205 99 -298q98 -93 237 -93q64 0 110 3q40 3 72 8q40 10 67 22q34 13 52 24q61 40 87 101l10 27q4 11 5 26zM512 201
q0 -29 -33 -46q-30 -14 -101 -14q-32 0 -62 8q-30 11 -45 26q-30 29 -38 88h218q28 0 45 -14q16 -14 16 -48z" />
    <glyph glyph-name="seven" unicode="7" horiz-adv-x="635" 
d="M667 586v163h-697v-183h431l-447 -596h267z" />
    <glyph glyph-name="eight" unicode="8" horiz-adv-x="736" 
d="M740 173q0 90 -28 136l-25 30l-10 10q-3 2 -5 4t-9 7l-6 4q29 28 45 58q28 49 28 93l-4 64l-12 44q-10 37 -36 61q-26 26 -74 43q-60 22 -139 22l-242 -2l-26 -3l-21 -4q-65 -19 -91 -34q-50 -32 -65 -86l-12 -46q-4 -17 -4 -32v-30q0 -9 2 -23q1 -10 6 -22t12 -27
q9 -18 13 -25q16 -24 43 -50q-37 -25 -57 -56q-29 -49 -29 -138q0 -94 78 -153q65 -48 176 -48q173 0 278 13q108 13 138 36q76 58 76 154zM509 507q0 -30 -22 -43q-10 -7 -24 -9q-13 -3 -23 -3h-16q-157 0 -174 11t-20 20l-3 25q0 33 22 46q21 12 65 12h110q41 0 64 -14
q11 -8 17 -17q4 -8 4 -28zM509 211q0 -31 -22 -44q-20 -14 -63 -14q-5 0 -29 1q-16 0 -29 1q-20 1 -64 1q-44 4 -56 11q-21 15 -21 44q0 32 22 45t66 13h111q41 0 64 -14q21 -15 21 -44z" />
    <glyph glyph-name="nine" unicode="9" horiz-adv-x="728" 
d="M726 345q0 92 -16 157q-17 69 -43 111q-72 112 -206 133l-69 9q-30 3 -78 3q-23 0 -52 -3q-32 -3 -50 -7q-12 -2 -29 -7l-9 -3q-7 -3 -16 -6t-16 -6q-13 -6 -24 -10l-6 -3q-16 -8 -24 -13q-63 -43 -85 -102q-13 -29 -13 -49l-2 -89q0 -83 88 -141q37 -24 80 -34
q47 -12 110 -12h223q-3 -22 -12 -40q-13 -30 -42 -57q-19 -14 -42 -17q-15 -3 -37 -5h-5q-12 -1 -35 -1h-289l1 -183q251 0 401 27q149 25 199 75q48 47 74 115q24 68 24 158zM490 456h-215q-29 0 -46 14q-15 17 -15 49q0 31 26 43q14 7 41 10q26 3 62 3q73 0 108 -31
q32 -27 39 -88z" />
    <glyph glyph-name="colon" unicode=":" horiz-adv-x="213" 
d="M194 238v185h-177v-185h177zM194 -30v185h-177v-185h177z" />
    <glyph glyph-name="semicolon" unicode=";" horiz-adv-x="213" 
d="M194 238v185h-177v-185h177zM196 41v58l-3 31l-3 25h-173v-185h55v-128q57 48 80 74q19 22 28 41q16 33 16 84z" />
    <glyph glyph-name="less" unicode="&#x3c;" horiz-adv-x="832" 
d="M733 -32v171l-385 160l385 158v171l-634 -260v-138z" />
    <glyph glyph-name="equal" unicode="=" horiz-adv-x="832" 
d="M739 325v156h-646v-156h646zM739 115v157h-646v-157h646z" />
    <glyph glyph-name="greater" unicode="&#x3e;" horiz-adv-x="832" 
d="M733 230v138l-634 260v-171l387 -158l-387 -160v-171z" />
    <glyph glyph-name="question" unicode="?" horiz-adv-x="693" 
d="M693 501q0 89 -36 152q-43 73 -133 90l-39 5l-57 1h-433v-185h105q11 0 61 -1q33 0 61 -1q43 -1 134 -1q82 0 96 -11q10 -7 10 -15q2 -10 2 -16v-14q0 -30 -21 -39t-80 -9q-141 0 -192 -12q-39 -12 -59 -23q-25 -13 -45 -33q-43 -46 -54 -121l-3 -40l-1 -80h224l1 51
l3 30q3 16 12 22q20 17 117 17l118 1q44 0 81 18q38 17 63 42q20 22 30 38q12 17 21 42q9 29 11 44zM233 -30v187h-222v-187h222z" />
    <glyph glyph-name="at" unicode="@" horiz-adv-x="1000" 
d="M986 354v38l-1 22l-3 16l-1 8l-6 31l-11 34l-16 37l-11 20q-2 4 -13 18q-3 5 -4 6q-12 17 -21 27q-19 22 -44 41q-48 39 -106 61q-63 28 -110 32q-12 4 -27 4q-10 2 -22 2l-51 2l-60 -3l-71 -12l-43 -11l-57 -21l-52 -28q-25 -13 -33 -19l-6 -4q-9 -7 -12 -9
q-49 -39 -80 -75q-32 -40 -50 -77l-18 -34l-12 -31l-10 -26q-6 -18 -7 -29l-8 -41q-6 -33 -6 -68v-10l4 -74q1 -3 3 -15q3 -13 5 -21q5 -16 9 -30l10 -26l12 -25l21 -39l20 -29l39 -43q39 -39 97 -69q25 -13 63 -28q31 -13 67 -22q68 -15 136 -15q70 0 155 18q32 8 51 16
q17 6 50 23q29 15 57 33q40 25 69 46l-73 107l-53 -36l-27 -13l-16 -8l-31 -13l-17 -8l-26 -8l-27 -7l-40 -7q-7 -2 -16 -3q-14 -2 -21 -2l-36 -1l-59 4l-55 10l-42 15l-30 13l-24 16l-24 15l-12 11l-16 16l-11 11l-14 19l-15 24l-17 36q-7 20 -12 36q-2 7 -4 18q0 1 -1 5
t-1 19v4l2 60l5 30l9 40l17 44q18 43 69 100q53 53 119 81q34 13 71 21l3 1q38 6 48 7t55 1h6q41 0 75 -9q11 -3 37 -14l7 -3q24 -10 49 -24q29 -19 44 -35q18 -19 30 -45q28 -57 28 -105q0 -46 -15 -91t-39 -72l-14 -15l-9 -8l-26 -18l-25 -9h-2q-8 -2 -12 -2q-5 0 -8 1
l2 16l82 329h-142l-16 -28q-49 41 -130 41h-4q-13 -1 -30 -5q-13 -3 -21 -6q-21 -6 -45 -19q-17 -8 -40 -28l-34 -36l-26 -37q-12 -19 -18 -39l-12 -33q-6 -18 -7 -27l-4 -20l-3 -26l-1 -26q0 -57 23 -105q23 -47 65 -68l23 -11q5 -3 23 -7l4 -1l28 -4l27 -1q26 0 50 6
q24 8 42 18l33 25q14 -24 38 -34q24 -11 43 -14q17 -4 32 -4l45 3l20 4l19 6l39 14l32 19q10 5 26 18l24 19l16 17l24 28l21 33l10 20l13 30l9 25q13 33 16 56q4 17 4 42zM562 344l-24 -100q-6 -29 -18 -41l-14 -17l-10 -12l-6 -5l-14 -10q-12 -5 -32 -5q-18 0 -27 12
q-9 11 -11 20q-3 8 -3 29l4 38l8 41l18 42q14 22 25 33q25 25 51 25q24 0 37 -13q12 -13 16 -37z" />
    <glyph glyph-name="A" unicode="A" horiz-adv-x="723" 
d="M792 -30l-333 779h-200l-328 -779h226l62 172h273l66 -172h234zM419 329h-127l62 163z" />
    <glyph glyph-name="B" unicode="B" horiz-adv-x="756" 
d="M741 173q0 94 -36 142q-22 30 -47 46l24 23l21 25q19 27 27 50q8 24 8 44l-1 37l-3 28l-9 45q-21 72 -83 99l-53 19q-16 7 -43 10q-7 1 -19 3q-19 4 -25 4q-11 1 -59 1h-399v-779h425q129 0 193 48q79 58 79 155zM515 506q0 -27 -16 -40q-21 -12 -54 -12h-190v106h190
q35 0 52 -13q18 -13 18 -41zM517 210q0 -28 -16 -41q-21 -12 -54 -12h-192v110q230 0 246 -13t16 -44z" />
    <glyph glyph-name="C" unicode="C" horiz-adv-x="654" 
d="M647 -30v185h-317l-29 6q-24 6 -38 22q-16 16 -25 41q-16 48 -16 112q0 70 12 116l16 47q10 21 24 35q19 18 42 26q21 6 53 6h278v183q-324 0 -366 -6l-42 -9l-42 -12q-77 -27 -124 -92q-40 -58 -61 -139q-15 -69 -15 -168q0 -103 53 -198q63 -113 182 -143q22 -7 34 -7
l5 -1q8 -1 12 -1h13l67 -3h284z" />
    <glyph glyph-name="D" unicode="D" horiz-adv-x="771" 
d="M772 413q0 61 -22 120t-63 108q-91 108 -285 108h-358v-779h362q95 0 149 20q54 16 128 78q38 32 59 83q18 45 24 97q6 53 6 165zM546 358q0 -45 -6 -86q-7 -43 -23 -74q-20 -31 -50 -37l-29 -5l-38 -1h-145v409h145l40 -2l36 -6q28 -8 44 -39q11 -23 15 -44l6 -39
q1 -2 2 -8q1 -4 2 -11v-23z" />
    <glyph glyph-name="E" unicode="E" horiz-adv-x="676" 
d="M647 -30v185h-317l-30 5l-12 5l-11 6l-14 12l-9 12q-16 16 -19 45l-5 31h417v185h-415q17 108 137 108h278v185q-325 0 -369 -6l-38 -8l-43 -13q-77 -27 -124 -92q-42 -59 -61 -138q-15 -69 -15 -168q0 -104 53 -199q63 -113 182 -143q22 -7 34 -7l5 -1q8 -1 12 -1h13
l67 -3h284z" />
    <glyph glyph-name="F" unicode="F" horiz-adv-x="678" 
d="M682 265v183h-428q9 60 36 84q19 19 47 26q29 6 71 6h274v185q-107 0 -193 -3q-75 -3 -143 -8q-126 -12 -162 -31q-86 -44 -119 -142q-27 -76 -27 -235v-360h213v295h431z" />
    <glyph glyph-name="G" unicode="G" horiz-adv-x="742" 
d="M721 -30v486h-415v-187h201v-108q-36 0 -86 2q-30 1 -70 5q-62 9 -76 20q-27 24 -37 65q-11 44 -11 127q0 80 31 132t109 52h354v185q-401 0 -451 -6q-53 -6 -83 -25q-105 -53 -154 -158q-36 -84 -36 -191q0 -106 23 -178q15 -44 37 -82q19 -34 46 -55l38 -30
q26 -20 47 -26l57 -18q18 -5 22 -5q5 -2 15 -3q14 -2 27 -2h412z" />
    <glyph glyph-name="H" unicode="H" horiz-adv-x="727" 
d="M682 -30v779h-210v-291h-217v291h-211v-779h211v301h217v-301h210z" />
    <glyph glyph-name="I" unicode="I" horiz-adv-x="309" 
d="M262 -30v779h-218v-779h218z" />
    <glyph glyph-name="J" unicode="J" horiz-adv-x="559" 
d="M524 291v458h-216l-2 -481l-8 -52q-9 -37 -41 -52q-31 -15 -83 -15h-208v-179h227l62 1l36 3q132 21 187 111q46 76 46 206z" />
    <glyph glyph-name="K" unicode="K" horiz-adv-x="672" 
d="M753 -30l-314 396l314 383h-259l-239 -292v292h-211v-779h211v299l229 -299h269z" />
    <glyph glyph-name="L" unicode="L" horiz-adv-x="557" 
d="M581 -30v179l-211 4q-33 0 -58 5q-24 5 -33 9q-39 23 -39 64l-2 51l-1 42v425h-210q0 -320 19 -487q18 -171 53 -209q74 -83 236 -83h246z" />
    <glyph glyph-name="M" unicode="M" horiz-adv-x="957" 
d="M913 -30v779h-273l-161 -487l-160 487h-275v-779h215l-10 394l131 -394h205l127 389l-8 -389h209z" />
    <glyph glyph-name="N" unicode="N" horiz-adv-x="777" 
d="M735 -30v779h-212l4 -433l-245 433h-238v-779h215l-4 459l260 -459h220z" />
    <glyph glyph-name="O" unicode="O" horiz-adv-x="773" 
d="M777 307q0 138 -25 220q-39 130 -142 187q-85 49 -251 49q-168 0 -268 -106q-47 -52 -71 -125q-14 -39 -18 -79q-5 -45 -5 -92q0 -102 25 -176t69 -124q96 -106 295 -106q196 0 296 106q95 101 95 246zM552 358q0 -103 -37 -159q-22 -30 -42 -46q-21 -15 -43 -15
q-59 0 -86 6l-23 5l-23 7q-23 11 -38 29l-15 28l-6 21q-18 69 -18 150q0 78 37 134q21 32 53 47q33 14 75 14q91 0 130 -62q19 -30 27 -68q9 -39 9 -91z" />
    <glyph glyph-name="P" unicode="P" horiz-adv-x="742" 
d="M743 478q0 76 -28 136q-28 61 -85 94q-19 12 -52 23q-11 4 -33 10q-16 3 -35 3q-15 2 -48 4q-18 1 -60 1h-358v-779h211v252l214 -1l53 4l38 11l18 4q83 23 124 95q41 73 41 143zM515 486q0 -43 -27 -60q-29 -17 -80 -17h-153v151h145q59 0 87 -16t28 -58z" />
    <glyph glyph-name="Q" unicode="Q" horiz-adv-x="773" 
d="M866 -30l-146 142q6 11 14 28q7 16 9 23q7 18 11 32l6 21q1 3 2 7q8 36 11 79q3 47 3 115q0 139 -97 240q-100 105 -294 105q-199 0 -293 -103q-95 -104 -95 -218l2 -132l2 -28l4 -23q35 -167 128 -238q86 -65 231 -65q60 0 114 9q56 9 100 25l19 -19h269zM551 358
q0 -99 -38 -160q-39 -61 -127 -61l-34 5l-16 3l-19 6q-37 16 -60 47q-19 25 -27 68t-8 123q0 74 35 133q34 58 129 58q91 0 130 -63q35 -55 35 -159z" />
    <glyph glyph-name="R" unicode="R" horiz-adv-x="750" 
d="M784 -30l-186 314q27 10 51 31q18 15 38 43q40 58 40 140q0 81 -35 143q-43 75 -118 93q-19 5 -24 6q-3 1 -13 1l-35 5l-57 3h-401v-779h211v281h131l159 -281h239zM515 500q0 -31 -14 -45q-20 -17 -91 -17h-155v122h155l58 -4q23 -3 33 -12q14 -14 14 -44z" />
    <glyph glyph-name="S" unicode="S" horiz-adv-x="756" 
d="M747 179q0 80 -8 117q-10 37 -19 53q-10 17 -27 34q-9 11 -21 19l-24 16q-7 5 -14 9q-2 1 -9 3l-4 2l-27 8l-23 4l-26 3l-59 1q-7 0 -39 1q-22 0 -40 1q-28 1 -94 1q-32 0 -54 5q-6 1 -14 3q-7 2 -8 2q-16 13 -16 41q0 31 22 44q23 14 66 14h403v189h-427
q-132 0 -200 -53q-41 -32 -62 -83q-11 -27 -16 -57q-4 -25 -4 -69q0 -154 133 -202q34 -13 73 -17q47 -5 102 -5l51 1h32l85 -4q33 -6 41 -14l4 -11q4 -17 4 -43q-2 -14 -20 -23q-19 -10 -67 -10h-408v-189q280 0 440 15q159 13 192 37q82 61 82 157z" />
    <glyph glyph-name="T" unicode="T" horiz-adv-x="619" 
d="M649 562v185h-679v-185h230v-592h217v592h232z" />
    <glyph glyph-name="U" unicode="U" horiz-adv-x="768" 
d="M724 283v466h-210q0 -544 -26 -579q-13 -17 -39 -25q-27 -8 -66 -8q-18 0 -36 2q-16 2 -29 6q-29 9 -40 26q-25 31 -25 116v462h-212v-513l4 -59q4 -23 13 -47l25 -47l32 -47q23 -32 83 -52q38 -13 50 -14q11 -1 26 -5h25l84 -3l87 4q27 0 51 6l52 16q30 10 50 24
q17 12 30 29q48 67 61 116q10 39 10 126z" />
    <glyph glyph-name="V" unicode="V" horiz-adv-x="701" 
d="M782 749h-226l-201 -485l-196 485h-236l338 -779h197z" />
    <glyph glyph-name="W" unicode="W" horiz-adv-x="1105" 
d="M1149 749h-216l-132 -477l-140 477h-224l-121 -471l-140 471h-224l258 -779h230l113 449l128 -449h230z" />
    <glyph glyph-name="X" unicode="X" horiz-adv-x="646" 
d="M710 -30l-266 397l251 382h-248l-129 -203l-132 203h-246l260 -388l-272 -391h254l142 222l133 -222h253z" />
    <glyph glyph-name="Y" unicode="Y" horiz-adv-x="619" 
d="M716 749h-246l-163 -250l-162 250h-238l295 -441v-338h213v338z" />
    <glyph glyph-name="Z" unicode="Z" horiz-adv-x="734" 
d="M692 -30v187h-366l366 423v169h-665v-189h374l-374 -423v-167h665z" />
    <glyph glyph-name="bracketleft" unicode="[" horiz-adv-x="348" 
d="M352 -157v171h-125v561h125v174h-306v-906h306z" />
    <glyph glyph-name="backslash" unicode="\" horiz-adv-x="420" 
d="M470 -122l-380 879h-140l380 -879h140z" />
    <glyph glyph-name="bracketright" unicode="]" horiz-adv-x="348" 
d="M300 -157v906h-305v-174h125v-561h-125v-171h305z" />
    <glyph glyph-name="asciicircum" unicode="^" horiz-adv-x="1000" 
d="M863 409l-288 334h-151l-285 -334h193l168 166l168 -166h195z" />
    <glyph glyph-name="underscore" unicode="_" 
d="M530 -264v159h-559v-159h559z" />
    <glyph glyph-name="grave" unicode="`" 
d="M386 560l-138 199h-244l246 -199h136z" />
    <glyph glyph-name="a" unicode="a" horiz-adv-x="635" 
d="M602 -30q0 111 -5 214q-4 87 -14 160q-19 138 -51 162q-18 15 -36 23q-20 9 -40 15q-42 13 -101 13h-315v-169q318 0 338 -13q15 -10 18 -25q-126 0 -205 -10q-82 -10 -109 -26q-77 -53 -77 -149q0 -99 56 -147q51 -48 138 -48h403zM400 134h-144q-14 0 -24 2q-8 2 -13 4
q-7 3 -7 20q0 16 9 20q10 5 22 5h23h134v-51z" />
    <glyph glyph-name="b" unicode="b" horiz-adv-x="611" 
d="M616 234q0 96 -17 145q-16 46 -52 91q-23 28 -47 42q-9 6 -29 16q-13 7 -34 13q-51 17 -124 17l-84 -1v192h-198v-779q213 0 346 23q129 22 165 61q74 77 74 180zM409 261q0 -36 -6 -59q-6 -24 -18 -36q-28 -25 -65 -25l-83 1h-8v240h56q71 0 98 -26q26 -27 26 -95z" />
    <glyph glyph-name="c" unicode="c" horiz-adv-x="527" 
d="M524 -30v173q-255 0 -287 23q-19 15 -25 37q-6 23 -6 59t7 63q9 26 24 38q14 12 40 16q26 3 71 3h176v175q-14 0 -73 -1q-22 0 -49 -1q-85 -3 -119 -3q-33 0 -60 -3q-31 -5 -58 -13q-76 -22 -124 -112q-42 -79 -42 -166q0 -89 47 -166q53 -84 142 -107q14 -5 22 -6
q7 -1 16 -5q13 0 20 -1l61 -3h217z" />
    <glyph glyph-name="d" unicode="d" horiz-adv-x="609" 
d="M579 -30v779h-201v-192l-97 1q-36 0 -69 -6q-34 -6 -57 -15q-64 -27 -109 -85q-33 -40 -45 -100q-8 -43 -8 -103q0 -66 27 -125q31 -59 83 -103l21 -13l30 -15l28 -11q17 -7 29 -7l27 -5h43h298zM442 385q-2 9 -32 20l-32 12v-274l-12 -1h-38q-69 0 -101 20
q-15 12 -21 28q-6 17 -6 39q0 21 2 51q1 19 5 36q9 30 24 45l9 8l9 6q7 4 22 6l34 1l32 1h39h18l29 -2q10 0 13 1q5 2 6 3z" />
    <glyph glyph-name="e" unicode="e" horiz-adv-x="527" 
d="M528 -30v169q-277 0 -291 10q-15 10 -20 28h311v171h-310q6 20 18 27q22 13 78 13h214v169q-92 0 -174 -5q-75 -5 -130 -15q-112 -19 -148 -55q-77 -77 -77 -217q0 -143 79 -219q39 -39 94 -58q53 -18 123 -18h233z" />
    <glyph glyph-name="f" unicode="f" horiz-adv-x="393" 
d="M415 392v165h-133l-1 -8v27l2 2l5 4q12 6 31 6l40 -1l22 -3l34 -5v170q-115 0 -195 -8q-74 -9 -92 -20q-19 -16 -30 -33t-16 -42q-5 -27 -5 -89h-99v-165h99v-422h205v422h133z" />
    <glyph glyph-name="g" unicode="g" horiz-adv-x="609" 
d="M585 20v537h-284q-86 0 -139 -21q-51 -20 -106 -74q-39 -37 -52 -98q-9 -40 -9 -121q0 -87 54 -165q61 -91 166 -105q23 -3 39 -3q11 -1 30 -1h11h18l65 1q-12 -22 -48 -22h-278v-167q207 0 330 18q123 17 148 45q55 61 55 176zM428 400q-1 7 -10 11q-9 3 -34 3v-275h-59
l-29 1l-26 3q-33 5 -51 36q-18 35 -18 98q0 57 30 84q18 15 44 19q30 5 66 5l60 1l16 2q11 5 11 12z" />
    <glyph glyph-name="h" unicode="h" horiz-adv-x="602" 
d="M573 -30q0 245 -18 377q-18 131 -48 157q-32 25 -64 38q-33 13 -84 13l-132 2v192h-196v-779h196v410q122 0 134 -12q9 -7 9 -16q2 -10 2 -18v-16v-348h201z" />
    <glyph glyph-name="i" unicode="i" horiz-adv-x="266" 
d="M235 558v191h-204v-191h204zM235 -30v587h-204v-587h204z" />
    <glyph glyph-name="j" unicode="j" horiz-adv-x="266" 
d="M235 558v191h-204v-191h204zM235 25v532h-204v-259q0 -330 -13 -337q-13 -9 -70 -9h-20h-26v-171h63l87 -1q76 0 131 63q52 58 52 182z" />
    <glyph glyph-name="k" unicode="k" horiz-adv-x="602" 
d="M674 557h-260l-181 -205v397h-199v-779h199v201l167 -201h272l-273 300z" />
    <glyph glyph-name="l" unicode="l" horiz-adv-x="262" 
d="M233 -30v779h-204v-779h204z" />
    <glyph glyph-name="m" unicode="m" horiz-adv-x="877" 
d="M843 -30q0 112 -5 217q-4 87 -14 161q-19 135 -51 161q-33 24 -76 36t-103 12h-563v-587h198v410h104v-410h203v412h12h56q20 0 30 -12q10 -13 10 -54v-346h199z" />
    <glyph glyph-name="n" unicode="n" horiz-adv-x="600" 
d="M573 -30q0 114 -5 219q-4 89 -14 162q-21 137 -52 159q-32 23 -76 35q-43 12 -104 12h-291v-587h198v410h54q72 0 81 -11q8 -13 8 -53v-346h201z" />
    <glyph glyph-name="o" unicode="o" horiz-adv-x="609" 
d="M613 264q0 134 -88 219q-86 85 -220 85q-135 0 -222 -84q-88 -85 -88 -220q0 -133 86 -222q42 -40 100 -61q57 -22 124 -22q137 0 222 84q42 44 65 100q21 54 21 121zM409 263q0 -56 -29 -93q-28 -37 -76 -37q-49 0 -77 37q-27 39 -27 92q0 57 27 94q30 36 79 36
q50 0 77 -38q26 -38 26 -91z" />
    <glyph glyph-name="p" unicode="p" horiz-adv-x="611" 
d="M616 260l-2 41l-4 31l-7 29l-11 32q-37 82 -106 126q-68 38 -158 38h-297v-776h198v189l86 -1q74 0 129 19q71 24 109 74q17 23 21 33q2 4 5 9t5 9q13 23 20 54l9 48zM409 260q0 -74 -36 -98q-31 -19 -122 -19h-22v241h17h75q37 0 64 -24q16 -13 19 -36q2 -8 4 -27
q1 -11 1 -37z" />
    <glyph glyph-name="q" unicode="q" horiz-adv-x="609" 
d="M579 -219v776q-112 0 -201 -6q-82 -6 -149 -17q-127 -24 -162 -62q-73 -79 -73 -201q0 -117 53 -197t156 -98q32 -7 90 -7h12l75 1v-189h199zM380 143h-56q-70 0 -97 28q-27 29 -27 97q0 33 6 57q7 25 20 36q26 23 66 23h78l10 -1v-240z" />
    <glyph glyph-name="r" unicode="r" horiz-adv-x="471" 
d="M471 277q0 48 -3 91q-3 48 -7 68q-10 60 -29 80q-17 18 -52 29q-34 12 -85 12h-264v-587h198v426l29 -1l21 -3q3 -3 5 -7l-2 -14l-1 -18l-2 -76h192z" />
    <glyph glyph-name="s" unicode="s" horiz-adv-x="594" 
d="M585 155q0 57 -16 96q-39 83 -151 98l-156 3h-19q-27 0 -27 12q0 18 8 21l20 3h37h276v169q-214 0 -334 -13q-123 -13 -150 -34q-60 -54 -60 -125q0 -69 12 -102q16 -47 49 -69q18 -12 37 -18q21 -8 53 -11l79 -3h16l85 1q24 0 36 -5q10 -6 10 -16q-2 -12 -11 -17
q-10 -6 -33 -6h-323v-169h387q84 0 133 66q42 60 42 119z" />
    <glyph glyph-name="t" unicode="t" horiz-adv-x="414" 
d="M423 -30v164h-51q-33 0 -55 5q-20 3 -32 15q-9 13 -10 19l-1 36v183h149v165h-149v192h-199v-192h-97v-165h97q0 -153 15 -251q13 -96 35 -118q50 -53 141 -53h157z" />
    <glyph glyph-name="u" unicode="u" horiz-adv-x="602" 
d="M567 -30v587h-199v-412q-121 0 -132 12q-11 11 -11 46v354h-198q0 -111 5 -216q4 -90 14 -163q20 -136 52 -160t75 -36q44 -12 102 -12h292z" />
    <glyph glyph-name="v" unicode="v" horiz-adv-x="609" 
d="M653 557h-216l-134 -325l-127 325h-220l249 -587h188z" />
    <glyph glyph-name="w" unicode="w" horiz-adv-x="873" 
d="M929 557h-209l-93 -301l-95 301h-193l-93 -301l-93 301h-209l204 -587h196l90 291l93 -291h202z" />
    <glyph glyph-name="x" unicode="x" horiz-adv-x="553" 
d="M613 557h-236l-102 -138l-97 138h-236l217 -293l-215 -294h236l95 132l96 -132h238l-214 290z" />
    <glyph glyph-name="y" unicode="y" horiz-adv-x="602" 
d="M567 14v543h-199v-412h-83l-35 2q-13 5 -18 12q-7 7 -8 16l-1 38v344h-196q0 -136 4 -213q4 -87 12 -158q18 -134 44 -160q29 -25 63 -39q35 -15 80 -15l132 -2q-12 -22 -48 -22h-278v-167q209 0 331 17q117 16 146 47q28 31 41 70q13 38 13 99z" />
    <glyph glyph-name="z" unicode="z" horiz-adv-x="584" 
d="M569 -30v173h-268l268 257v157h-554v-175h268l-268 -257v-155h554z" />
    <glyph glyph-name="braceleft" unicode="{" 
d="M462 -231v161l-50 1q-24 0 -35 4q-13 3 -16 12l-6 20l-1 29v117q0 56 -9 81q-10 24 -18 37q-7 12 -22 23l-6 5l6 5q29 21 39 57q10 26 10 83v35q0 119 5 132q7 12 17 15l31 3h55v160l-52 3q-73 0 -100 -6l-43 -11q-15 -4 -26 -12q-26 -15 -36 -31l-13 -19q-2 -4 -4 -10
l-1 -3q-2 -5 -3 -9q-9 -39 -9 -96v-121q0 -22 -1 -28q0 -3 -1 -6l-3 -18q-5 -16 -13 -24q-17 -17 -70 -17h-41v-164q57 0 79 -3q24 -4 34 -14q9 -9 12 -25q1 -6 3 -21q1 -4 1 -7v-21q0 -178 13 -223q15 -46 60 -70q43 -25 132 -25l26 1h56z" />
    <glyph glyph-name="bar" unicode="|" 
d="M331 -264v1058h-162v-1058h162z" />
    <glyph glyph-name="braceright" unicode="}" 
d="M454 177v164h-40l-33 2l-27 5l-14 10l-7 11q-4 7 -5 24l-3 39v123q0 35 -3 60q-3 22 -8 40q-14 47 -51 65q-19 12 -32 16l-33 10q-34 6 -79 6h-29l-50 -3v-160l46 -1q25 0 37 -3l14 -5l8 -26l3 -18v-13q0 -3 1 -17q1 -28 1 -44q1 -35 1 -79l4 -58q13 -40 40 -61l6 -4
q-21 -15 -30 -33q-23 -38 -23 -114q0 -129 -3 -147l-5 -21q-3 -9 -13 -10q-10 -3 -30 -3h-3q-20 -2 -29 -2h-25v-161h57h26h10h12l31 3l19 2q16 3 24 7q2 1 4 1q8 2 9 3q13 4 21 8q2 1 5 3t5 3q37 17 50 64q12 31 12 91v11q0 6 1 33q0 18 1 33q1 23 1 71q4 48 13 57
q20 18 73 18h40z" />
    <glyph glyph-name="asciitilde" unicode="~" horiz-adv-x="1000" 
d="M831 661v29v12v16h-160l-1 -33l-2 -34l-4 -30q-9 -19 -14 -21q-16 -8 -25 -8q-24 3 -30 7q-17 9 -30 22l-21 19l-14 14q-79 64 -141 64q-59 0 -110 -19q-54 -20 -85 -87q-15 -31 -21 -72q-6 -40 -6 -105h156l5 77l9 26q7 10 20 16l19 6l17 -2l8 -3l13 -9l11 -11l14 -15
l25 -21q73 -64 161 -64q33 0 69 12q58 21 86 60q29 39 41 84l4 22l3 27z" />
    <glyph glyph-name="quotesinglbase" unicode="&#x201a;" horiz-adv-x="214" 
d="M189 55v36v20l-3 44h-177v-185h55v-132q65 62 82 82q23 26 29 46q8 22 11 40q3 21 3 49z" />
    <glyph glyph-name="florin" unicode="&#x192;" horiz-adv-x="773" 
d="M653 570v179h-151l-55 -4l-23 -6l-18 -5q-22 -12 -35 -23q-17 -17 -21 -26q-8 -12 -12 -22q-2 -4 -5 -15l-3 -8l-8 -25l-6 -29l-24 -117h-134v-177h99l-55 -268l-7 -29l-4 -6l-5 -8q-6 -7 -12 -7l-23 -4l-31 -1h-45v-177h63l16 -1h16l52 2l20 3l33 6l20 7l15 7l15 8
l14 11q18 15 26 28q7 9 11 18q5 9 6 16l12 36l11 40l10 52l52 267h151v177h-115l17 80q5 20 9 23q6 2 12 2h26l29 -1h14z" />
    <glyph glyph-name="quotedblbase" unicode="&#x201e;" horiz-adv-x="367" 
d="M359 55v36v20l-3 44h-177v-185h55v-132q65 62 83 83q20 23 28 44q14 36 14 90zM189 55q0 -28 -3 -49q-3 -18 -11 -40q-6 -20 -29 -46q-17 -20 -82 -82v132h-55v185h177l3 -44v-20v-36z" />
    <glyph glyph-name="ellipsis" unicode="&#x2026;" horiz-adv-x="1000" 
d="M921 -30v185h-180v-185h180zM587 -30v185h-179v-185h179zM255 -30v185h-180v-185h180z" />
    <glyph glyph-name="dagger" unicode="&#x2020;" 
d="M501 365v183h-147v201h-208v-201h-147v-183h147v-489h208v489h147z" />
    <glyph glyph-name="daggerdbl" unicode="&#x2021;" 
d="M501 83v183h-147v110h147v181h-147v192h-208v-192h-147v-181h147v-110h-147v-183h147v-207h208v207h147z" />
    <glyph glyph-name="circumflex" unicode="&#x2c6;" 
d="M460 560l-137 199h-146l-137 -199h136l74 62l74 -62h136z" />
    <glyph glyph-name="perthousand" unicode="&#x2030;" horiz-adv-x="1386" 
d="M680 747h-143l-303 -777h141zM433 537q0 34 -21 107q-22 73 -101 92q-67 15 -101 15l-25 -1l-13 -1l-22 -4l-26 -6q-39 -12 -72 -42q-17 -17 -30 -37q-12 -21 -18 -43q-12 -39 -12 -76v-6l4 -59l6 -38l10 -30q26 -75 123 -102q41 -9 77 -9q21 0 40 3q14 2 33 8
q106 24 124 92l14 46l7 41q3 20 3 50zM270 507q0 -31 -17 -48q-16 -18 -42 -18l-24 4q-12 5 -19 15t-7 21q-5 20 -5 42l2 25l3 24q3 11 9 20q15 15 37 15l15 -1l5 -1l11 -4q11 -3 17 -12l4 -6l5 -15l4 -28l1 -6q1 -11 1 -15v-12zM920 248q0 5 -1.5 17.5t-6.5 31.5t-15 37
t-26 29q-32 32 -86 46q-28 6 -45 6l-30 1q-38 0 -71 -10q-35 -11 -61 -25q-29 -15 -45 -37q-17 -22 -27 -52q-9 -27 -12 -50q-3 -24 -3 -64q0 -46 14 -86q12 -29 19 -42q12 -19 29 -34q35 -32 82 -44l39 -7l37 -2l48 5l26 4l29 6q74 21 105 118q6 9 7.5 25t1.5 25
q1 -4 2 -13.5t2.5 -20.5t4 -21.5t3.5 -13.5q22 -78 124 -105q39 -9 77 -9q15 0 39 2q14 1 33 5l34 13l16 7l22 15l21 17q27 27 42 75l7 24q5 12 5 20l3 47l-3 47l-7 27l-5 19q-28 99 -104 120q-67 15 -106 15l-43 -4q-29 -3 -44 -9q-43 -19 -71 -44q-18 -18 -29 -35
q-11 -20 -17 -43q-2 -7 -6.5 -18.5t-7.5 -14.5zM1198 189l-1 -16l-4 -28l-12 -24q-13 -15 -40 -15q-26 0 -40 17t-14 63v6q0 27 4 42q4 16 10 23q15 16 42 16q25 0 38 -16l6 -11l6 -12q5 -22 5 -45zM770 189q0 -47 -17 -67q-16 -15 -31 -15l-37 4l-8 4l-12 16l-5 19l-4 20
l-1 21l4 42l6 12l12 20q11 8 35 8q26 0 39 -16q19 -22 19 -68z" />
    <glyph glyph-name="Scaron" unicode="&#x160;" horiz-adv-x="756" 
d="M587 968h-136l-74 -62l-74 62h-136l137 -199h146zM747 215q0 59 -14 103q-15 43 -40 65l-46 37l-25 12q-9 4 -32 9q-24 5 -43 6q-13 1 -61 1h-199q-34 0 -51 14q-12 10 -13 23l-1 35v4q0 23 21 30q20 6 66 6h403v189h-429l-61 -4l-36 -4l-15 -4l-45 -17l-40 -23
q-9 -7 -21 -19q-7 -5 -15 -16l-15 -23l-11 -23q-11 -31 -14 -50q-3 -15 -5 -41q-1 -13 -1 -42v-8q0 -103 73 -157q71 -55 196 -55l203 -2l18 -1l25 -13q7 -10 8 -26l1 -14q0 -27 -15 -36q-24 -12 -72 -12h-408v-189h12q72 1 162 2q33 0 114 1q85 0 113 1h93l35 5l16 3
q58 16 88 40q41 29 56 72l13 34q7 14 7 28l4 27z" />
    <glyph glyph-name="guilsinglleft" unicode="&#x2039;" horiz-adv-x="398" 
d="M420 468h-237l-201 -202l195 -206h239l-202 204z" />
    <glyph glyph-name="OE" unicode="&#x152;" horiz-adv-x="1201" 
d="M1175 -30v185h-279l-40 2l-30 5q-23 8 -38 23l-15 23l-11 24q-6 21 -6 39h419v185h-406l-10 -10l1 23l18 45q15 25 38 34q31 16 80 16h279v185l-307 -1l-26 -2l-32 -5l-23 -2q-35 -4 -75 -25l-30 -17l-27 -19l-17 13l-34 18l-39 20l-41 15q-49 18 -157 18
q-110 0 -197 -45q-88 -46 -133 -139q-40 -89 -40 -202q0 -58 6 -105q6 -43 17 -84q11 -37 30 -69q17 -33 41 -58q48 -51 126 -78q37 -15 77 -20q42 -6 93 -6q79 0 143 24q67 23 124 60q31 -22 58 -36l40 -17q23 -8 50 -12q10 -2 29 -4q11 -1 34 -1h11h13h286zM556 356
l-4 -53l-11 -52q-11 -46 -33 -71q-13 -16 -27 -22q-13 -8 -23 -11q-38 -13 -73 -13q-38 0 -70 12q-32 13 -54 38q-22 22 -34 69q-8 32 -9 52q-2 26 -2 40q0 49 3 71l6 33l6 30l11 30l19 27l11 12l13 10l29 14l36 9l34 3l38 -4l35 -8q33 -14 53 -37q23 -23 32 -69
q8 -32 11 -54q3 -25 3 -56z" />
    <glyph glyph-name="quoteleft" unicode="&#x2018;" horiz-adv-x="197" 
d="M188 564v185h-179v-63l-1 -38q0 -52 16 -96q12 -24 29 -44q24 -27 81 -72v128h54z" />
    <glyph glyph-name="quoteright" unicode="&#x2019;" horiz-adv-x="197" 
d="M190 634v59l-2 28l-4 28h-175v-185h57v-134q52 48 80 79q2 2 5 6q9 11 12 17q8 12 11 19q16 36 16 83z" />
    <glyph glyph-name="quotedblleft" unicode="&#x201c;" horiz-adv-x="367" 
d="M358 564v185h-179l-1 -64v-38q0 -30 4 -49q5 -25 14 -47q8 -24 27 -44q25 -28 80 -71v128h55zM188 564v185h-179v-63l-1 -38q0 -52 16 -96q12 -24 29 -44q24 -27 81 -72v128h54z" />
    <glyph glyph-name="quotedblright" unicode="&#x201d;" horiz-adv-x="367" 
d="M359 648l-1 65v36h-179v-185h55v-130q58 50 81 76q19 19 28 42q16 38 16 96zM189 648q0 -57 -15 -96q-3 -7 -11 -19q-4 -5 -10 -14q-5 -5 -8 -9q-12 -15 -34 -35l-27 -24q-16 -13 -20 -17v130h-55v185h179v-36z" />
    <glyph glyph-name="bullet" unicode="&#x2022;" horiz-adv-x="197" 
d="M206 379q0 31 -16 54q-16 24 -42 36q-23 14 -62 14q-22 0 -41 -13q-21 -15 -38 -40l-8 -16q-4 -7 -4 -14l-3 -17v-19q0 -35 35 -64t74 -29q60 0 84 45l15 27q6 17 6 36z" />
    <glyph glyph-name="endash" unicode="&#x2013;" horiz-adv-x="1000" 
d="M1030 177l-2 185h-1057l1 -185h1058z" />
    <glyph glyph-name="emdash" unicode="&#x2014;" 
d="M530 177v185h-559v-185h559z" />
    <glyph glyph-name="tilde" unicode="&#x2dc;" 
d="M444 753h-109q-13 -36 -20 -37l-19 3l-32 9l-35 8l-20 2h-22l-24 -3q-13 -3 -26 -11l-24 -20q-12 -12 -20 -24l-8 -15l-7 -18l-9 -28q-6 -17 -13 -53h107l11 26q1 3 9 8l23 -4l15 -3l16 -2l33 -10l14 -1l20 -1q45 0 81 33q18 16 33 50q15 36 26 91z" />
    <glyph glyph-name="trademark" unicode="&#x2122;" horiz-adv-x="832" 
d="M735 417v328h-146l-39 -108l-42 108h-145v-328h124v71l28 -71h69l27 69v-69h124zM368 628h-82v-211h-132v211h-82v117h296v-117z" />
    <glyph glyph-name="scaron" unicode="&#x161;" horiz-adv-x="594" 
d="M503 759h-134l-76 -64l-76 64h-134l137 -200h146zM585 176q0 43 -19 79q-22 39 -44 55q-21 14 -34 20q-18 8 -32 12q-21 8 -36 8h-3q-12 2 -18 2h-20h-127q-23 0 -29 3q-7 3 -7 9l2 15q2 9 18 9h22h13h10h276v169q-271 0 -408 -38q-136 -37 -136 -98l4 -95l2 -12
q7 -34 9 -41q16 -39 46 -59l15 -9l15 -6l31 -10l26 -4l21 -1l22 -1h21h48l44 1q73 0 73 -21q-1 -16 -10 -20t-34 -4h-323v-169h387q56 0 86 24l27 20l17 18l17 25q9 16 13 31q15 38 15 88z" />
    <glyph glyph-name="guilsinglright" unicode="&#x203a;" horiz-adv-x="398" 
d="M390 264l-196 204h-239l202 -204l-206 -204h237z" />
    <glyph glyph-name="oe" unicode="&#x153;" horiz-adv-x="920" 
d="M921 -30v169q-257 0 -279 5q-19 7 -25 16l-7 17h311v171h-312q6 20 16 27q9 6 27 9q13 4 26 4h27h216v169q-17 0 -67 -1q-47 -1 -52 -1q-85 -3 -120 -3q-43 0 -70 -3q-27 -4 -43 -9q-40 -13 -70 -43q-36 31 -75 47q-51 21 -119 21q-71 0 -125 -21l-21 -10l-31 -16
q-19 -12 -26 -18q-7 -5 -20 -18l-18 -21l-12 -13l-7 -12q-21 -27 -33 -66q-16 -39 -16 -99v-8q0 -68 21 -118q7 -17 14 -30q5 -12 12 -23q18 -25 35 -44q43 -42 98 -64l34 -11l27 -6l26 -4l29 -1h6h7l40 4l28 7l45 14l9 3l10 4l6 3q6 2 8 4q17 7 34 21l12 8q23 -23 40 -33
q34 -20 64 -23l24 -3l21 -1h30h12h233zM410 270q0 -17 -3 -37q-4 -24 -7 -34q-11 -30 -37 -47q-28 -19 -56 -19l-25 2l-4 1l-10 3q-37 15 -52 47t-15 68v4l1 33l4 22l5 14l6 15l15 19q12 12 33 24l7 2l15 2l18 3l20 -3l22 -5q31 -13 46 -45q17 -32 17 -69z" />
    <glyph glyph-name="Ydieresis" unicode="&#x178;" horiz-adv-x="619" 
d="M477 794v187h-179v-187h179zM303 794v187h-179v-187h179zM716 749h-246l-163 -250l-162 250h-238l295 -441v-338h213v338z" />
    <glyph glyph-name="exclamdown" unicode="&#xa1;" horiz-adv-x="313" 
d="M262 560v189h-212v-189h212zM260 -30v593h-210v-593h210z" />
    <glyph glyph-name="cent" unicode="&#xa2;" horiz-adv-x="410" 
d="M423 118v152h-106v190h106v152h-106v63h-117v-65l-19 -2l-25 -4l-21 -7q-48 -14 -98 -64q-52 -52 -52 -121l1 -69l2 -26l10 -34l8 -27q12 -42 48 -78q38 -32 80 -43l42 -11l24 -3v-65h117v62h106zM200 281q-14 7 -21 17q-15 24 -15 66v4q0 25 4 40q3 14 11 26q7 8 21 16
v-169z" />
    <glyph glyph-name="sterling" unicode="&#xa3;" horiz-adv-x="682" 
d="M686 -30v183h-349v128h175v163h-175l-1 15l-1 35l3 29l3 17l6 8l11 7q24 9 268 9v185h-214h-15l-71 -4l-24 -2l-25 -5q-63 -15 -89 -50l-12 -15l-9 -13l-15 -25q-14 -23 -17 -49q-9 -40 -9 -121v-16v-5h-129v-163h129v-128h-129v-183h689z" />
    <glyph glyph-name="currency" unicode="&#xa4;" horiz-adv-x="605" 
d="M619 650l-94 95l-106 -104q-56 29 -115 29q-33 0 -58 -7q-28 -7 -57 -21l-105 103l-96 -95l106 -104l-18 -41q-10 -24 -10 -40l-1 -34l3 -27l4 -29l10 -27l7 -18l6 -10l-105 -103l96 -97l104 104q49 -28 98 -28q55 0 88 11q8 2 24 9q7 4 15 7l3 1l105 -104l95 97
l-105 103q14 29 22 57q6 26 6 57q0 32 -7 56q-8 28 -21 55zM409 442l-4 -37l-6 -16l-5 -8l-16 -22l-22 -15l-27 -11l-10 -2q-8 -2 -13 -2h-11l-21 4l-21 9q-27 19 -40 40q-13 19 -13 50l3 28q4 14 11 25q14 25 39 38l12 6q7 4 13 4l25 3q28 0 54 -16q26 -17 38 -36l10 -24
q4 -7 4 -18z" />
    <glyph glyph-name="yen" unicode="&#xa5;" horiz-adv-x="619" 
d="M716 749h-246l-163 -250l-162 250h-240l168 -246h-95v-119h178l3 -4h-181v-119h224v-291h213v291h230v119h-179l3 4h176v119h-97z" />
    <glyph glyph-name="brokenbar" unicode="&#xa6;" 
d="M331 298v431h-162v-431h162zM331 -200v429h-162v-429h162z" />
    <glyph glyph-name="section" unicode="&#xa7;" 
d="M514 65l-1 29l-1 17l-1 15l-2 21l-10 30l-12 24l-10 16l-12 14l8 -4q21 18 29 35q9 21 10 29q1 7 1 22v34q-2 22 -5 32l-8 26l-10 21q-26 54 -83 71q-9 4 -31 10q-16 3 -35 3q-31 4 -52 4h-43h-19l-8 1h-5l-11 7l-10 6q-2 2 -2 8l3 15q3 12 12 15l8 3l20 1h32h207v179
h-260q-51 0 -90 -12t-60 -30l-18 -17l-18 -19q-16 -20 -25 -40q-16 -36 -16 -90q0 -49 17 -94l14 -25l14 -18q-21 -16 -31 -38q-10 -21 -13 -39l-3 -40v-4q0 -19 6 -39q6 -21 12 -33q1 -3 5 -11q1 -4 2 -6q28 -51 82 -69q24 -9 54 -12q17 -3 31 -3q10 -1 29 -1h11h13h28h14
q18 0 28 -7t10 -17l-3 -16q-3 -9 -12 -12q-8 -4 -38 -4h-18h-219v-177h270l25 2h17l41 8l34 15q19 10 34 22q23 16 33 33l12 17l9 19q11 23 16 40q4 13 4 33zM322 323q-4 -21 -31 -37h-64q-26 0 -40 9l-6 8q1 8 7 18q8 9 23 16l8 1l8 1h8l13 1h19q29 0 42 -3q11 -3 13 -14z
" />
    <glyph glyph-name="dieresis" unicode="&#xa8;" 
d="M426 566v187h-179v-187h179zM253 566v187h-179v-187h179z" />
    <glyph glyph-name="copyright" unicode="&#xa9;" horiz-adv-x="832" 
d="M808 360l-1 32l-4 35q-3 18 -9 38l-10 29l-24 50l-20 36l-26 34l-34 37q-26 25 -49 39q-27 18 -63 33q-36 17 -74 23q-32 7 -78 7q-15 0 -39 -2q-13 -1 -37 -5q-3 -1 -12 -3q-15 -3 -22 -5q-14 -4 -26 -9l-57 -28l-25 -15l-17 -13l-12 -11l-28 -24l-14 -14l-12 -14
q-11 -12 -19 -27l-13 -18l-11 -22l-10 -17l-10 -25l-13 -34q0 -1 -1 -4q-2 -6 -3 -11v-3q-2 -9 -2 -13l-6 -42l-1 -21l-1 -14q0 -24 3 -50q3 -28 7 -44q13 -47 31 -79l20 -32l19 -28l19 -25l18 -20q40 -36 103 -75q36 -20 67 -30q21 -7 31 -8q18 -2 30 -2l63 1l19 1l36 6
l43 11l47 16q57 26 112 80q52 51 79 109q24 56 30 92q6 38 6 78zM691 361l-3 -37l-8 -38l-10 -32l-16 -31l-19 -30l-19 -20l-17 -17l-15 -13l-28 -17l-28 -17l-19 -10l-32 -8q-2 -1 -8 -2q-4 0 -11 -2h-40q-74 0 -136 36q-31 20 -56 44q-25 23 -45 56t-29 63q-9 32 -9 63
q0 64 22 115l9 18l16 29l16 22l17 18q39 37 92 60q53 21 103 21q53 0 104 -22q54 -26 87 -59l18 -19l17 -22q16 -24 17 -29l8 -18q22 -50 22 -102zM630 321h-152q-7 -43 -22 -61q-14 -17 -41 -17q-31 0 -48 32q-16 31 -16 77v4l2 41q3 22 7 29l14 31l18 17l14 6l13 2
q21 0 34 -12q9 -6 14 -20q3 -13 6 -42h155q-9 55 -18 80q-9 24 -23 42q-14 21 -32 34q-20 17 -38 24q-39 19 -96 19q-48 0 -97 -20l-37 -22l-25 -20q-17 -15 -37 -48l-15 -29l-10 -31l-6 -22l-1 -15l-1 -39v-25q0 -47 24 -100q31 -59 80 -91q28 -18 50 -24l34 -9l37 -1l34 2
q77 12 120 54q25 22 40 56l1 2q11 27 12 33q6 26 6 63z" />
    <glyph glyph-name="ordfeminine" unicode="&#xaa;" horiz-adv-x="477" 
d="M460 320v260q0 36 -12 67q-12 32 -37 57q-33 28 -62 36l-16 4q-11 4 -24 4l-20 1h-266v-136h202l41 -4q15 -3 17 -5h-99l-26 -1l-24 -1l-25 -4l-17 -4q-33 -9 -64 -39l-12 -18l-11 -20q-4 -9 -5 -20q-2 -18 -2 -34v-11q0 -50 38 -91q20 -18 121 -29q101 -12 303 -12z
M292 454h-101l-22 1l-4 3l2 2v5q15 5 125 5v-16z" />
    <glyph glyph-name="guillemotleft" unicode="&#xab;" horiz-adv-x="631" 
d="M657 468h-235l-200 -202l194 -206h236l-202 204zM420 468h-237l-201 -202l195 -206h239l-202 204z" />
    <glyph glyph-name="logicalnot" unicode="&#xac;" horiz-adv-x="832" 
d="M739 148v304h-646v-156h490v-148h156z" />
    <glyph glyph-name="registered" unicode="&#xae;" horiz-adv-x="832" 
d="M808 361q0 10 -2 34v3q-1 10 -4 32l-1 9l-11 37l-12 36q-15 35 -35 66q-17 27 -37 47l-16 16l-18 16l-16 15q-7 7 -15 10q-10 9 -24 15l-20 12l-13 5q-7 5 -17 8q-36 16 -73 24q-32 7 -78 7q-40 0 -75 -6q-41 -8 -53 -14l-41 -18l-18 -10l-23 -13l-19 -13l-27 -21
l-34 -32q-39 -40 -69 -111q-31 -69 -31 -152v-6q0 -39 8 -79q8 -37 24 -72q16 -37 36 -64q19 -29 50 -60q29 -30 59 -51q31 -21 64 -35q34 -15 65 -22q13 -4 28 -7q5 -1 24 -1l52 1l19 1l36 6l43 11l47 16q57 26 112 80q52 51 79 109q24 56 30 92q6 38 6 79zM691 356l-2 -26
l-5 -26l-8 -30l-15 -35q-9 -19 -23 -38l-2 -3q-8 -11 -12 -15q-5 -6 -17 -18q-13 -13 -20 -18q-3 -2 -8 -6q-9 -7 -14 -10q-20 -14 -47 -23q-58 -21 -106 -21l-35 2l-36 8l-37 15l-20 10l-23 14q-46 31 -82 91q-19 31 -28 59q-5 19 -6 28q-2 14 -2 36q0 60 23 115
q22 52 58 87q16 19 40 32l24 15l23 11q54 22 107 22q76 0 139 -39q63 -40 98 -100q21 -35 27 -59q1 -5 2 -9q5 -22 6 -27q1 -8 1 -42zM598 164l-88 179l23 11q9 3 12 7l13 9q20 17 30 36q9 20 9 47l-4 26q-12 39 -38 58q-29 18 -58 22q-25 7 -231 7v-402h97v164h49l76 -164
h110zM464 451q0 -18 -10 -22q-21 -10 -72 -10h11v57h-14h21q32 0 55 -10q9 -3 9 -15z" />
    <glyph glyph-name="macron" unicode="&#xaf;" 
d="M530 634v160h-559v-160h559z" />
    <glyph glyph-name="degree" unicode="&#xb0;" horiz-adv-x="400" 
d="M363 593q0 33 -13 63t-35 53q-49 49 -119 49q-68 0 -115 -50q-48 -49 -48 -115t48 -117q51 -49 117 -49q68 0 117 49q48 48 48 117zM250 591q0 -19 -17 -35q-16 -16 -33 -16q-24 0 -39 18q-15 17 -15 35q0 21 16 37q18 15 34 15q25 0 38 -16q16 -16 16 -38z" />
    <glyph glyph-name="plusminus" unicode="&#xb1;" horiz-adv-x="832" 
d="M739 312v156h-242v160h-160v-160h-244v-156h244v-160h160v160h242zM739 -30v156h-646v-156h646z" />
    <glyph glyph-name="twosuperior" unicode="&#xb2;" horiz-adv-x="449" 
d="M462 598q0 90 -73 127q-13 9 -25 12q-13 4 -28 5l-50 3h-20h-278v-134h256l28 -2l14 -2q4 -1 4 -9l1 -12q0 -3 -3 -8q-7 -7 -20 -7h-26h-26h-32l-41 -1l-30 -4l-58 -19q-36 -18 -54 -55l-6 -17q-4 -8 -4 -21q-3 -18 -3 -199h472v134l-305 -2q0 28 9 40q6 7 46 7l38 -1h43
q39 0 72 11q33 14 53 32q25 26 35 54q11 30 11 68z" />
    <glyph glyph-name="threesuperior" unicode="&#xb3;" horiz-adv-x="418" 
d="M422 401v10l-2 20v24l-8 -1q-10 25 -25 41l-10 8l22 25q22 31 22 66q0 34 -13 67t-33 47l-19 12l-15 8l-22 8l-15 3l-17 3l-18 1l-13 1l-278 1v-134h219l30 -3l15 -5q5 -3 5 -13q-1 -2 -1 -4q0 -3 -1 -5q0 -2 -3 -5q-1 -1 -1 -2l-16 -4q-6 -3 -46 -3h-12h-16h-21h-28h-37
h-48v-134h186h24q22 0 22 -11v-13q-1 -10 -7 -13q-7 -4 -14 -4q-6 -3 -43 -3h-12h-15h-19h-25h-34h-44h-58v-134h266q33 0 58 6q27 8 48 18q51 25 61 67l9 31q2 8 2 24z" />
    <glyph glyph-name="acute" unicode="&#xb4;" 
d="M496 759h-244l-138 -199h136z" />
    <glyph glyph-name="mu" unicode="&#xb5;" horiz-adv-x="609" 
d="M614 563h-202l-49 -276q-6 -35 -18 -80l-13 -35q-7 -12 -18 -22q-20 -20 -46 -20q-43 0 -49 46l-1 16q0 49 15 122l43 249h-202l-139 -806h200l44 253q-13 17 -19 20q-8 5 -13 5q-10 0 -10 -14q0 -8 3 -11l14 -14l15 -10l18 -13q15 -10 29 -13q11 -4 34 -4l6 -1
q41 0 78 25l5 3l-15 -13h186z" />
    <glyph glyph-name="paragraph" unicode="&#xb6;" 
d="M510 638v115h-301l-38 -3q-15 0 -41 -10q-18 -4 -38 -15l-33 -22q-35 -29 -52 -67q-17 -40 -17 -85l3 -29l7 -31l8 -21l14 -27l9 -15l10 -12l24 -19l29 -19q15 -8 29 -11l20 -6l18 -4l8 -1v-386h134v668h19v-668h134v668h54z" />
    <glyph glyph-name="periodcentered" unicode="&#xb7;" horiz-adv-x="590" 
d="M468 357v13q0 56 -31 102q-30 45 -70 59q-33 14 -78 14q-44 0 -93 -28l-21 -17l-18 -20l-14 -20l-11 -23q-11 -27 -11 -71q0 -9 2 -23q1 -6 4 -17l1 -5q8 -21 21 -45l31 -37q15 -15 36 -24q19 -10 41 -13q8 -4 19 -4l18 -1q11 0 27 2q11 2 23 6l46 22q25 18 40 34
q15 17 19 30l10 21l8 25z" />
    <glyph glyph-name="periodcentered" unicode="&#x2219;" horiz-adv-x="590" 
d="M468 357v13q0 56 -31 102q-30 45 -70 59q-33 14 -78 14q-44 0 -93 -28l-21 -17l-18 -20l-14 -20l-11 -23q-11 -27 -11 -71q0 -9 2 -23q1 -6 4 -17l1 -5q8 -21 21 -45l31 -37q15 -15 36 -24q19 -10 41 -13q8 -4 19 -4l18 -1q11 0 27 2q11 2 23 6l46 22q25 18 40 34
q15 17 19 30l10 21l8 25z" />
    <glyph glyph-name="cedilla" unicode="&#xb8;" 
d="M422 -128q0 37 -15 66q-16 28 -57 42q-16 7 -43 10v46h-114v-164h49l20 4q4 1 13 1l-1 -4q-2 -2 -5 -2t-4 1l-10 1l-34 3l-38 8l-74 17v-122q51 -13 103 -22q41 -7 71 -7q38 0 62 10q26 10 42 30q35 40 35 82z" />
    <glyph glyph-name="onesuperior" unicode="&#xb9;" horiz-adv-x="174" 
d="M169 255v490h-164v-490h164z" />
    <glyph glyph-name="ordmasculine" unicode="&#xba;" horiz-adv-x="457" 
d="M468 535q0 50 -18 92q-20 41 -52 69l-17 14l-18 11q-12 9 -22 11l-21 7l-43 13l-48 3l-47 -3l-29 -6l-18 -6q-47 -14 -78 -46q-13 -12 -18 -18q0 -1 -6 -7q-5 -7 -10 -13q-10 -14 -16 -34q-16 -36 -16 -70l1 -38v-10l4 -26l2 -6l2 -12l11 -27l2 2l8 -17q1 -1 2 -3l8 -12
l2 -3q4 -5 5 -6l21 -24q31 -27 76 -43q26 -9 45 -12l49 -3q55 0 94 15l22 10l20 10l34 26q33 27 51 70q18 44 18 92zM300 534l-1 -9v-9l-3 -10l-6 -18q-1 -7 -7 -10l-16 -14q-18 -12 -32 -12h-16l-16 4q-23 9 -33 28l-9 20l-3 14v23l1 8l4 17l3 14q7 15 25 25q19 11 38 11
t34 -6q16 -8 24 -23t10 -25z" />
    <glyph glyph-name="guillemotright" unicode="&#xbb;" horiz-adv-x="631" 
d="M628 264l-194 204h-238l201 -204l-207 -204h236zM390 264l-196 204h-237l202 -204l-207 -204h236z" />
    <glyph glyph-name="onequarter" unicode="&#xbc;" horiz-adv-x="820" 
d="M829 42v131h-63v259h-161l-283 -270v-120h291v-72h153v72h63zM613 173h-78l78 73v-73zM470 747h-138l-304 -777h140zM163 284h-160v461h160v-461z" />
    <glyph glyph-name="onehalf" unicode="&#xbd;" horiz-adv-x="762" 
d="M776 297q0 83 -74 118q-28 15 -100 15h-16h-266v-128h244l34 -1l8 -3l3 -5l1 -11l-3 -7q-10 -7 -19 -7l-25 -1h-13l-20 1h-32l-35 -2l-25 -2l-28 -9l-20 -8q-41 -21 -57 -52q-4 -6 -7 -24t-3 -45q0 -6 -1 -35q0 -19 -1 -35q-1 -25 -1 -86h454v128l-293 -1q0 21 7 36
q5 5 26 5q2 0 10 -1q3 0 7 -1h15h18h47q39 0 70 10q33 12 50 29q45 45 45 122zM470 747h-138l-304 -777h140zM163 284h-160v461h160v-461z" />
    <glyph glyph-name="threequarters" unicode="&#xbe;" horiz-adv-x="1053" 
d="M1061 42v131h-62v259h-161l-284 -270v-120h291v-72h154v72h62zM845 173h-78l78 73v-73zM702 747h-138l-303 -777h140zM405 420v11l-3 21l-2 7l-4 13q-12 26 -34 45q43 42 43 93q0 11 -6 33l-2 8q-4 16 -5 17q-12 39 -63 60q-12 5 -40 10q-27 3 -62 3q-56 1 -128 3
q-41 1 -121 1v-129h211q31 0 43 -6q4 -4 4 -11v-11q0 -12 -39 -12l-80 3q-24 0 -47 1t-55 1v-129h178q17 0 22 -1q10 -2 15 -4q8 -3 8 -15q0 -21 -93 -21l-89 1l-78 1v-129h256q31 0 56 6q21 5 46 16q26 14 40 28q13 13 19 33q10 26 10 53z" />
    <glyph glyph-name="questiondown" unicode="&#xbf;" horiz-adv-x="693" 
d="M682 562v187h-224v-187h224zM698 -30v183h-382l-35 2l-16 3l-26 12l-6 11q-4 7 -4 26v4q0 29 22 41q24 11 61 11l50 -1l51 -1q53 0 101 8q43 10 62 23q48 34 55 47l16 21l13 25l11 34l7 29l1 31l1 20l1 16l1 56h-224v-48q0 -42 -18 -56q-11 -8 -22 -9q-13 -3 -37 -3
q-6 0 -30 -1q-16 0 -30 -1q-21 -1 -75 -1q-33 0 -70 -8q-30 -6 -62 -19q-62 -30 -89 -86q-27 -55 -27 -131l1 -8v-5l4 -46l5 -13l7 -26l6 -19l7 -11l17 -29q25 -33 58 -54q36 -19 53 -21q11 -1 29 -5h22l29 -1h11h14h22h415z" />
    <glyph glyph-name="Agrave" unicode="&#xc0;" horiz-adv-x="723" 
d="M496 755l-138 199h-245l246 -199h137zM792 -30l-333 779h-200l-328 -779h226l62 172h273l66 -172h234zM419 329h-127l62 163z" />
    <glyph glyph-name="Aacute" unicode="&#xc1;" horiz-adv-x="723" 
d="M605 954h-244l-138 -199h137zM792 -30l-333 779h-200l-328 -779h226l62 172h273l66 -172h234zM419 329h-127l62 163z" />
    <glyph glyph-name="Acircumflex" unicode="&#xc2;" horiz-adv-x="723" 
d="M572 755l-138 199h-149l-138 -199h138l74 62l74 -62h139zM792 -30l-333 779h-200l-328 -779h226l62 172h273l66 -172h234zM419 329h-127l62 163z" />
    <glyph glyph-name="Atilde" unicode="&#xc3;" horiz-adv-x="723" 
d="M550 948h-105q-13 -36 -20 -37l-19 3l-32 9l-37 7l-32 3q-19 0 -42 -9t-40 -24q-15 -15 -29 -46q-16 -35 -31 -93h111q5 15 5 24l4 10h20l8 -3l14 -2l21 -4l5 29h-2q-5 0 -8 -3q-4 -4 -4 -11q0 -15 20 -18l16 -3q15 -6 42 -6q3 1 8 1q4 0 7 1l15 3l21 8q30 17 44 40
l13 22q6 8 11 24q3 5 5 11q1 3 3 14q4 11 5 20q2 11 3 30zM792 -30l-333 779h-200l-328 -779h226l62 172h273l66 -172h234zM419 329h-127l62 163z" />
    <glyph glyph-name="Adieresis" unicode="&#xc4;" horiz-adv-x="723" 
d="M536 761v187h-179v-187h179zM362 761v187h-179v-187h179zM792 -30l-333 779h-200l-328 -779h226l62 172h273l66 -172h234zM419 329h-127l62 163z" />
    <glyph glyph-name="Aring" unicode="&#xc5;" horiz-adv-x="723" 
d="M503 850q0 58 -44 102q-45 42 -103 42q-55 0 -96 -44q-42 -43 -42 -96q0 -18 4 -31q1 -2 2 -5q3 -14 6 -18q2 -5 8 -17q16 -23 26 -33q13 -13 28 -22q32 -20 78 -20q48 0 91 43q42 42 42 99zM373 849l-2 -2l-2 -5l-5 -4q-8 0 -11 3l-6 10l4 9l5 5q6 0 10 -4q2 -2 4 -5
l1 -2q1 -1 1 -2q1 -2 1 -3zM792 -30l-333 779h-200l-328 -779h226l62 172h273l66 -172h234zM419 329h-127l62 163z" />
    <glyph glyph-name="AE" unicode="&#xc6;" horiz-adv-x="1117" 
d="M1089 -30v185h-278q-21 0 -31 1q-12 0 -37 5q-23 5 -37 22q-16 18 -20 27q-7 12 -8 23l-5 32l-1 6h417v185h-413q38 108 413 108v185h-271l-63 -3l-37 -4l-58 -15l-20 -7l-24 -11l-39 -28l-34 -32q-18 -20 -31 -41l-4 -6l8 11l-51 136h-204l-328 -779h226l62 172h275
l20 -34l17 -25l13 -19q18 -20 35 -35q15 -14 36 -25q36 -22 84 -28q47 -6 388 -6zM437 329h-142l80 215h-18z" />
    <glyph glyph-name="Ccedilla" unicode="&#xc7;" horiz-adv-x="654" 
d="M647 -30v185h-278q-21 0 -31 1q-13 0 -38 5q-23 5 -38 23l-16 23l-8 17l-7 22l-5 24l-3 31l-1 18v16l1 11v13l1 27l4 29l7 37l7 34q7 19 13 26l13 17l14 12q28 25 365 25v183h-282l-39 -2l-41 -3l-26 -5l-21 -5l-41 -12q-54 -19 -87 -51q-14 -14 -17 -18q-4 -6 -12 -15
l-22 -28l-16 -31l-14 -34l-11 -35l-11 -37q-6 -16 -6 -42l-2 -40l-2 -43q0 -92 27 -170q15 -42 39 -76l27 -34l30 -28q58 -46 114 -58q16 -5 50 -6q33 -3 76 -3q12 0 64 -1q35 0 64 -1q45 -1 159 -1zM520 -123l-4 25l-10 29q-13 25 -39 40q-16 10 -30 15q-13 4 -32 4v46
h-115v-164h49l21 4q4 1 13 1l-3 -7h-3q-4 0 -5 1l-9 2l-34 3l-39 8l-74 17v-122q51 -13 103 -22q41 -7 71 -7q72 0 106 40q17 20 26 44q8 24 8 43z" />
    <glyph glyph-name="Egrave" unicode="&#xc8;" horiz-adv-x="676" 
d="M519 755l-138 199h-244l246 -199h136zM647 -30v185h-278l-64 4q-19 6 -34 18l-18 18q-18 23 -23 76h417v185h-415q8 50 32 74q37 34 383 34v185h-282l-39 -2l-41 -3l-26 -5l-21 -5l-41 -12q-54 -19 -87 -51q-14 -14 -17 -18q-4 -6 -12 -15l-22 -28l-16 -31l-14 -34
l-11 -35l-11 -37q-6 -16 -6 -42l-2 -40l-2 -43q0 -92 27 -170q15 -42 39 -76l27 -34l30 -28q58 -46 114 -58q16 -5 50 -6q33 -3 76 -3q12 0 64 -1q35 0 64 -1q45 -1 159 -1z" />
    <glyph glyph-name="Eacute" unicode="&#xc9;" horiz-adv-x="676" 
d="M629 954h-243l-137 -199h134zM647 -30v185h-278l-64 4q-19 6 -34 18l-18 18q-18 23 -23 76h417v185h-415q8 50 32 74q37 34 383 34v185h-282l-39 -2l-41 -3l-26 -5l-21 -5l-41 -12q-54 -19 -87 -51q-14 -14 -17 -18q-4 -6 -12 -15l-22 -28l-16 -31l-14 -34l-11 -35
l-11 -37q-6 -16 -6 -42l-2 -40l-2 -43q0 -92 27 -170q15 -42 39 -76l27 -34l30 -28q58 -46 114 -58q16 -5 50 -6q33 -3 76 -3q12 0 64 -1q35 0 64 -1q45 -1 159 -1z" />
    <glyph glyph-name="Ecircumflex" unicode="&#xca;" horiz-adv-x="676" 
d="M595 755l-138 199h-147l-137 -199h136l74 62l74 -62h138zM647 -30v185h-278l-64 4q-19 6 -34 18l-18 18q-18 23 -23 76h417v185h-415q8 50 32 74q37 34 383 34v185h-282l-39 -2l-41 -3l-26 -5l-21 -5l-41 -12q-54 -19 -87 -51q-14 -14 -17 -18q-4 -6 -12 -15l-22 -28
l-16 -31l-14 -34l-11 -35l-11 -37q-6 -16 -6 -42l-2 -40l-2 -43q0 -92 27 -170q15 -42 39 -76l27 -34l30 -28q58 -46 114 -58q16 -5 50 -6q33 -3 76 -3q12 0 64 -1q35 0 64 -1q45 -1 159 -1z" />
    <glyph glyph-name="Edieresis" unicode="&#xcb;" horiz-adv-x="676" 
d="M559 761v187h-179v-187h179zM385 761v187h-179v-187h179zM647 -30v185h-278l-64 4q-19 6 -34 18l-18 18q-18 23 -23 76h417v185h-415q8 50 32 74q37 34 383 34v185h-282l-39 -2l-41 -3l-26 -5l-21 -5l-41 -12q-54 -19 -87 -51q-14 -14 -17 -18q-4 -6 -12 -15l-22 -28
l-16 -31l-14 -34l-11 -35l-11 -37q-6 -16 -6 -42l-2 -40l-2 -43q0 -92 27 -170q15 -42 39 -76l27 -34l30 -28q58 -46 114 -58q16 -5 50 -6q33 -3 76 -3q12 0 64 -1q35 0 64 -1q45 -1 159 -1z" />
    <glyph glyph-name="Igrave" unicode="&#xcc;" horiz-adv-x="309" 
d="M288 755l-137 199h-243l246 -199h134zM262 -30v779h-218v-779h218z" />
    <glyph glyph-name="Iacute" unicode="&#xcd;" horiz-adv-x="309" 
d="M400 954h-244l-138 -199h137zM262 -30v779h-218v-779h218z" />
    <glyph glyph-name="Icircumflex" unicode="&#xce;" horiz-adv-x="309" 
d="M367 755l-138 199h-149l-138 -199h138l74 62l74 -62h139zM262 -30v779h-218v-779h218z" />
    <glyph glyph-name="Idieresis" unicode="&#xcf;" horiz-adv-x="309" 
d="M331 761v187h-179v-187h179zM157 761v187h-179v-187h179zM262 -30v779h-218v-779h218z" />
    <glyph glyph-name="Eth" unicode="&#xd0;" horiz-adv-x="779" 
d="M780 325v29l-1 16v10l-1 19l-2 32l-4 25l-3 17l-11 41l-14 46q-24 61 -68 105q-44 42 -112 64q-22 7 -60 11q-36 4 -94 4q-78 2 -163 3q-118 2 -195 2v-317h-72v-136h72v-326h364q79 0 132 13q15 5 32 11q15 6 25 12q29 15 54 37q26 20 43 41q21 24 30 44q24 42 37 99
l8 53zM560 358q0 -56 -9 -103q-4 -24 -11 -39l-4 -8q-4 -7 -5 -8q-3 -5 -11 -15l-11 -12l-6 -4l-17 -7l-25 -6l-23 -1h-174v141h168v136h-168v132h146l41 -2l19 -3l19 -3q15 -6 36 -27q12 -13 18 -27q7 -15 8 -19t1 -18q2 -15 3 -22q4 -20 4 -26q1 -11 1 -59z" />
    <glyph glyph-name="Ntilde" unicode="&#xd1;" horiz-adv-x="777" 
d="M579 948h-105q-13 -36 -20 -37l-19 3l-33 9l-36 8l-32 2q-49 0 -84 -39q-34 -38 -58 -133h111l5 22l1 2q2 6 4 10l26 -2l19 -5l29 -5l31 -7q10 -2 23 -2q17 0 35 6l16 6l9 4q18 9 38 35l12 23l11 21q9 17 9 25zM735 -30v779h-212l4 -433l-245 433h-238v-779h215l-4 459
l260 -459h220z" />
    <glyph glyph-name="Ograve" unicode="&#xd2;" horiz-adv-x="773" 
d="M521 755l-138 199h-244l246 -199h136zM777 352v6q0 90 -24 169q-30 92 -83 142q-21 23 -57 43l-25 13l-12 6l-14 6l-56 14q-24 9 -54 9l-67 3l-64 -3l-41 -5l-36 -9q-45 -12 -76 -30q-39 -20 -79 -59l-19 -23l-20 -33q-5 -8 -10 -19q-3 -7 -7 -17l-12 -39
q-14 -46 -17 -69q-3 -16 -5 -43v-4q-1 -14 -1 -43v-8q0 -89 15 -149l20 -54l8 -20l11 -23q20 -36 51 -66l30 -25q14 -11 29 -17l45 -24l24 -6l21 -5l66 -12l56 -3h13q39 0 58 3l51 8l35 7q81 22 138 73q30 30 51 63q21 36 33 78q24 75 24 165zM552 357l-3 -50l-11 -50
q-9 -42 -30 -70q-24 -28 -56 -39l-31 -7l-33 -3l-42 5l-48 13q-45 18 -59 78q-18 69 -18 126q0 56 10 99q31 88 91 111l29 6l36 3l32 -3l24 -4l12 -5l22 -9l15 -11q18 -18 24 -30l12 -20l3 -9q4 -10 6 -17l1 -4q2 -10 4 -22l3 -15q5 -12 5 -21l2 -38v-14z" />
    <glyph glyph-name="Oacute" unicode="&#xd3;" horiz-adv-x="773" 
d="M631 954h-243l-137 -199h134zM777 352v6q0 90 -24 169q-30 92 -83 142q-21 23 -57 43l-25 13l-12 6l-14 6l-56 14q-24 9 -54 9l-67 3l-64 -3l-41 -5l-36 -9q-45 -12 -76 -30q-39 -20 -79 -59l-19 -23l-20 -33q-5 -8 -10 -19q-3 -7 -7 -17l-12 -39q-14 -46 -17 -69
q-3 -16 -5 -43v-4q-1 -14 -1 -43v-8q0 -89 15 -149l20 -54l8 -20l11 -23q20 -36 51 -66l30 -25q14 -11 29 -17l45 -24l24 -6l21 -5l66 -12l56 -3h13q39 0 58 3l51 8l35 7q81 22 138 73q30 30 51 63q21 36 33 78q24 75 24 165zM552 357l-3 -50l-11 -50q-9 -42 -30 -70
q-24 -28 -56 -39l-31 -7l-33 -3l-42 5l-48 13q-45 18 -59 78q-18 69 -18 126q0 56 10 99q31 88 91 111l29 6l36 3l32 -3l24 -4l12 -5l22 -9l15 -11q18 -18 24 -30l12 -20l3 -9q4 -10 6 -17l1 -4q2 -10 4 -22l3 -15q5 -12 5 -21l2 -38v-14z" />
    <glyph glyph-name="Ocircumflex" unicode="&#xd4;" horiz-adv-x="773" 
d="M597 755l-138 199h-149l-138 -199h139l74 62l74 -62h138zM777 352v6q0 90 -24 169q-30 92 -83 142q-21 23 -57 43l-25 13l-12 6l-14 6l-56 14q-24 9 -54 9l-67 3l-64 -3l-41 -5l-36 -9q-45 -12 -76 -30q-39 -20 -79 -59l-19 -23l-20 -33q-5 -8 -10 -19q-3 -7 -7 -17
l-12 -39q-14 -46 -17 -69q-3 -16 -5 -43v-4q-1 -14 -1 -43v-8q0 -89 15 -149l20 -54l8 -20l11 -23q20 -36 51 -66l30 -25q14 -11 29 -17l45 -24l24 -6l21 -5l66 -12l56 -3h13q39 0 58 3l51 8l35 7q81 22 138 73q30 30 51 63q21 36 33 78q24 75 24 165zM552 357l-3 -50
l-11 -50q-9 -42 -30 -70q-24 -28 -56 -39l-31 -7l-33 -3l-42 5l-48 13q-45 18 -59 78q-18 69 -18 126q0 56 10 99q31 88 91 111l29 6l36 3l32 -3l24 -4l12 -5l22 -9l15 -11q18 -18 24 -30l12 -20l3 -9q4 -10 6 -17l1 -4q2 -10 4 -22l3 -15q5 -12 5 -21l2 -38v-14z" />
    <glyph glyph-name="Otilde" unicode="&#xd5;" horiz-adv-x="773" 
d="M575 948h-105q-13 -36 -20 -37l-19 3l-33 9l-36 8l-32 2q-48 0 -82 -40q-35 -38 -59 -132h108q15 34 24 34l17 -3l33 -8l49 -9h5l14 -1l25 4l29 10q24 13 44 42l21 38l9 29q4 12 6 26q1 6 1 13q1 10 1 12zM777 352v6q0 90 -24 169q-30 92 -83 142q-21 23 -57 43l-25 13
l-12 6l-14 6l-56 14q-24 9 -54 9l-67 3l-64 -3l-41 -5l-36 -9q-45 -12 -76 -30q-39 -20 -79 -59l-19 -23l-20 -33q-5 -8 -10 -19q-3 -7 -7 -17l-12 -39q-14 -46 -17 -69q-3 -16 -5 -43v-4q-1 -14 -1 -43v-8q0 -89 15 -149l20 -54l8 -20l11 -23q20 -36 51 -66l30 -25
q14 -11 29 -17l45 -24l24 -6l21 -5l66 -12l56 -3h13q39 0 58 3l51 8l35 7q81 22 138 73q30 30 51 63q21 36 33 78q24 75 24 165zM552 357l-3 -50l-11 -50q-9 -42 -30 -70q-24 -28 -56 -39l-31 -7l-33 -3l-42 5l-48 13q-45 18 -59 78q-18 69 -18 126q0 56 10 99q31 88 91 111
l29 6l36 3l32 -3l24 -4l12 -5l22 -9l15 -11q18 -18 24 -30l12 -20l3 -9q4 -10 6 -17l1 -4q2 -10 4 -22l3 -15q5 -12 5 -21l2 -38v-14z" />
    <glyph glyph-name="Odieresis" unicode="&#xd6;" horiz-adv-x="773" 
d="M561 761v187h-179v-187h179zM777 352v6q0 90 -24 169q-30 92 -83 142q-21 23 -57 43l-25 13l-12 6l-14 6l-56 14q-24 9 -54 9l-67 3l-64 -3l-41 -5l-36 -9q-45 -12 -76 -30q-39 -20 -79 -59l-19 -23l-20 -33q-5 -8 -10 -19q-3 -7 -7 -17l-12 -39q-14 -46 -17 -69
q-3 -16 -5 -43v-4q-1 -14 -1 -43v-8q0 -89 15 -149l20 -54l8 -20l11 -23q20 -36 51 -66l30 -25q14 -11 29 -17l45 -24l24 -6l21 -5l66 -12l56 -3h13q39 0 58 3l51 8l35 7q81 22 138 73q30 30 51 63q21 36 33 78q24 75 24 165zM387 761h-179v187h179v-187zM552 357l-3 -50
l-11 -50q-9 -42 -30 -70q-24 -28 -56 -39l-31 -7l-33 -3l-42 5l-48 13q-45 18 -59 78q-18 69 -18 126q0 56 10 99q31 88 91 111l29 6l36 3l32 -3l24 -4l12 -5l22 -9l15 -11q18 -18 24 -30l12 -20l3 -9q4 -10 6 -17l1 -4q2 -10 4 -22l3 -15q5 -12 5 -21l2 -38v-14z" />
    <glyph glyph-name="multiply" unicode="&#xd7;" horiz-adv-x="832" 
d="M708 124l-178 176l173 172l-116 113l-170 -172l-174 176l-116 -114l175 -176l-172 -172l115 -112l171 170l176 -174z" />
    <glyph glyph-name="Oslash" unicode="&#xd8;" horiz-adv-x="773" 
d="M797 757h-172l-31 -34l-12 6q-6 4 -24 8l-21 7l-11 3q-10 4 -20 5l-42 6l-37 3l-52 1l-69 -5q-46 -6 -77 -17q-41 -11 -68 -24q-33 -22 -56 -43q-5 -4 -14 -13q-7 -7 -12 -15q-12 -13 -21 -30q-22 -37 -33 -76q-28 -82 -28 -160q0 -72 10 -128l11 -51l17 -47l9 -23
l12 -20l10 -18l-107 -130h175l34 40q30 -16 60 -28q26 -10 46 -10l29 -3l42 -5h48q53 0 84 4q37 5 67 12q63 16 92 44q38 35 52 53q14 17 25 39q24 33 35 73l2 5q4 14 5 18t2 9t2 9q2 8 6 21q2 3 6 40q4 32 4 82q0 91 -23 163q-22 69 -54 110zM473 572l-7 4l-244 -300l-4 22
q-7 32 -7 104v18q0 68 44 121q45 48 84 48l64 -1h11l21 -4l15 -4zM576 492l-20 33q-7 10 -13 10q-8 0 -8 -17l4 -21l5 -14l2 -8l12 -48q6 -31 6 -64l-2 -43q-13 -130 -62 -159q-52 -35 -100 -35q-22 0 -43 3q-24 4 -35 7q-16 5 -27 13z" />
    <glyph glyph-name="Ugrave" unicode="&#xd9;" horiz-adv-x="768" 
d="M521 755l-138 199h-244l246 -199h136zM725 749h-210v-460l-4 -58l-9 -39q-1 -3 -5 -9q-4 -8 -10 -14q-8 -9 -20 -17q-13 -8 -34 -11q-17 -4 -48 -4l-40 2l-30 7l-24 12l-14 13q-13 16 -16 36l-4 24l-2 21l-1 20l-1 477h-211v-466v-22l1 -30l1 -14v-13l3 -32l5 -20l6 -21
q10 -28 59 -95q26 -36 90 -54q61 -19 171 -19h6q110 0 177 21q68 21 93 57q57 75 64 127l2 21l3 31l1 36z" />
    <glyph glyph-name="Uacute" unicode="&#xda;" horiz-adv-x="768" 
d="M631 954h-243l-137 -199h134zM725 749h-210v-460l-4 -58l-9 -39q-1 -3 -5 -9q-4 -8 -10 -14q-8 -9 -20 -17q-13 -8 -34 -11q-17 -4 -48 -4l-40 2l-30 7l-24 12l-14 13q-13 16 -16 36l-4 24l-2 21l-1 20l-1 477h-211v-466v-22l1 -30l1 -14v-13l3 -32l5 -20l6 -21
q10 -28 59 -95q26 -36 90 -54q61 -19 171 -19h6q110 0 177 21q68 21 93 57q57 75 64 127l2 21l3 31l1 36z" />
    <glyph glyph-name="Ucircumflex" unicode="&#xdb;" horiz-adv-x="768" 
d="M597 755l-138 199h-149l-138 -199h139l74 62l74 -62h138zM725 749h-210v-460l-4 -58l-9 -39q-1 -3 -5 -9q-4 -8 -10 -14q-8 -9 -20 -17q-13 -8 -34 -11q-17 -4 -48 -4l-40 2l-30 7l-24 12l-14 13q-13 16 -16 36l-4 24l-2 21l-1 20l-1 477h-211v-466v-22l1 -30l1 -14v-13
l3 -32l5 -20l6 -21q10 -28 59 -95q26 -36 90 -54q61 -19 171 -19h6q110 0 177 21q68 21 93 57q57 75 64 127l2 21l3 31l1 36z" />
    <glyph glyph-name="Udieresis" unicode="&#xdc;" horiz-adv-x="768" 
d="M561 761v187h-179v-187h179zM387 761v187h-179v-187h179zM725 749h-210v-460l-4 -58l-9 -39q-1 -3 -5 -9q-4 -8 -10 -14q-8 -9 -20 -17q-13 -8 -34 -11q-17 -4 -48 -4l-40 2l-30 7l-24 12l-14 13q-13 16 -16 36l-4 24l-2 21l-1 20l-1 477h-211v-466v-22l1 -30l1 -14v-13
l3 -32l5 -20l6 -21q10 -28 59 -95q26 -36 90 -54q61 -19 171 -19h6q110 0 177 21q68 21 93 57q57 75 64 127l2 21l3 31l1 36z" />
    <glyph glyph-name="Yacute" unicode="&#xdd;" horiz-adv-x="619" 
d="M557 954h-245l-138 -199h137zM716 749h-246l-163 -250l-162 250h-238l295 -441v-338h213v338z" />
    <glyph glyph-name="Thorn" unicode="&#xde;" horiz-adv-x="744" 
d="M742 346v30v13l-4 24l-3 17l-6 21l-4 12q-9 30 -34 60q-10 14 -15 18q-8 8 -15 13q-14 12 -43 26q-20 10 -41 17l-16 4q-1 0 -4 1q-8 2 -23 3l-52 4l-80 1h-147v139h-211v-779h211v160h153l85 3l16 1l21 1l16 4l31 8l35 15l38 19q51 33 69 82l15 31q3 6 3 18zM515 371
q0 -52 -260 -52v104h145h5l23 -1l23 -2l21 -3q18 0 31 -16q12 -9 12 -30z" />
    <glyph glyph-name="germandbls" unicode="&#xdf;" horiz-adv-x="689" 
d="M667 184v13q0 25 -12 53l-15 26q-8 15 -24 28q-18 18 -35 27q-22 14 -50 23l-95 41l-6 3l-11 12q-22 0 -22 -12q1 -9 10 -18q12 -9 19 -9q8 2 8 10v-10l3 -1l110 67l29 24q13 15 20 31q17 36 17 77q0 43 -19 82q-19 40 -50 60q-28 23 -64 29q-19 6 -28 6l-19 1l-13 2
h-170l-49 -4l-26 -4l-13 -5q-43 -15 -58 -39q-21 -30 -24 -61t-3 -79h-99v-163h99v-424h205v597q0 21 30 21h43l32 -3l21 -1l11 -4q4 -3 4 -16l2 -10l-11 -8l-14 -9q-4 -5 -10 -7l-9 -5l-13 -6l-12 -7l-21 -15l-29 -20l-21 -12q-38 -26 -38 -77q0 -39 8 -63q8 -18 21 -31
l27 -23l16 -10l18 -9l31 -16l52 -21l21 -9l22 -10q10 -6 10 -27l-1 -11q-15 -19 -156 -19h-45v-169h213l44 4l19 6l18 8q37 19 59 44q23 30 34 68q9 36 9 84z" />
    <glyph glyph-name="agrave" unicode="&#xe0;" horiz-adv-x="635" 
d="M443 560l-138 199h-244l245 -199h137zM602 -30v360q0 52 -12 91q-14 39 -36 64q-19 22 -47 41q-25 16 -57 23q-35 8 -410 8v-169h261l38 -2l24 -3q18 -6 29 -19l4 -14h-150l-62 -4l-27 -3l-43 -13l-29 -14q-40 -26 -56 -58q-19 -34 -24 -86v-16q0 -91 53 -136
q25 -24 158 -36q77 -8 163 -11q92 -3 223 -3zM400 135h-144q-20 0 -32 3l-11 6l-1 9v13q0 11 6 12l19 4q17 3 163 3v-50z" />
    <glyph glyph-name="aacute" unicode="&#xe1;" horiz-adv-x="635" 
d="M553 759h-243l-137 -199h134zM602 -30v360q0 52 -12 91q-14 39 -36 64q-19 22 -47 41q-25 16 -57 23q-35 8 -410 8v-169h261l38 -2l24 -3q18 -6 29 -19l4 -14h-150l-62 -4l-27 -3l-43 -13l-29 -14q-40 -26 -56 -58q-19 -34 -24 -86v-16q0 -91 53 -136q25 -24 158 -36
q77 -8 163 -11q92 -3 223 -3zM400 135h-144q-20 0 -32 3l-11 6l-1 9v13q0 11 6 12l19 4q17 3 163 3v-50z" />
    <glyph glyph-name="acircumflex" unicode="&#xe2;" horiz-adv-x="635" 
d="M519 560l-138 199h-149l-138 -199h139l74 62l74 -62h138zM602 -30v360q0 52 -12 91q-14 39 -36 64q-19 22 -47 41q-25 16 -57 23q-35 8 -410 8v-169h261l38 -2l24 -3q18 -6 29 -19l4 -14h-150l-62 -4l-27 -3l-43 -13l-29 -14q-40 -26 -56 -58q-19 -34 -24 -86v-16
q0 -91 53 -136q25 -24 158 -36q77 -8 163 -11q92 -3 223 -3zM400 135h-144q-20 0 -32 3l-11 6l-1 9v13q0 11 6 12l19 4q17 3 163 3v-50z" />
    <glyph glyph-name="atilde" unicode="&#xe3;" horiz-adv-x="635" 
d="M501 753h-109q-13 -36 -20 -37l-19 3l-33 9l-36 8l-32 2q-49 0 -84 -39q-34 -38 -58 -133h109l11 25q6 9 11 9l5 -1l18 -3l20 -3l23 -6l23 -7l31 -1q45 0 81 33q18 17 31 47q16 35 28 94zM602 -30v360q0 52 -12 91q-14 39 -36 64q-19 22 -47 41q-25 16 -57 23
q-35 8 -410 8v-169h261l38 -2l24 -3q18 -6 29 -19l4 -14h-150l-62 -4l-27 -3l-43 -13l-29 -14q-40 -26 -56 -58q-19 -34 -24 -86v-16q0 -91 53 -136q25 -24 158 -36q77 -8 163 -11q92 -3 223 -3zM400 135h-144q-20 0 -32 3l-11 6l-1 9v13q0 11 6 12l19 4q17 3 163 3v-50z
" />
    <glyph glyph-name="adieresis" unicode="&#xe4;" horiz-adv-x="635" 
d="M483 566v187h-179v-187h179zM309 566v187h-179v-187h179zM602 -30v360q0 52 -12 91q-14 39 -36 64q-19 22 -47 41q-25 16 -57 23q-35 8 -410 8v-169h261l38 -2l24 -3q18 -6 29 -19l4 -14h-150l-62 -4l-27 -3l-43 -13l-29 -14q-40 -26 -56 -58q-19 -34 -24 -86v-16
q0 -91 53 -136q25 -24 158 -36q77 -8 163 -11q92 -3 223 -3zM400 135h-144q-20 0 -32 3l-11 6l-1 9v13q0 11 6 12l19 4q17 3 163 3v-50z" />
    <glyph glyph-name="aring" unicode="&#xe5;" horiz-adv-x="635" 
d="M456 669q-1 18 -5 27l-7 23l-4 11l-11 16l-18 24l-4 5q-6 6 -9 7l-10 6l-14 11l-15 6q-15 6 -24 6q-10 2 -28 2h-10q-42 0 -84 -43t-42 -97q0 -22 6 -40l5 -20l10 -14q11 -18 24 -30q12 -14 28 -21q18 -11 36 -16q15 -4 43 -4q44 0 90 43q43 46 43 98zM326 671
q-1 -6 -6 -9l-4 -4q-8 2 -10 5q-1 0 -1 2l-1 1l-3 6l2 7l6 4q9 -2 11 -5zM602 -30v360q0 52 -12 91q-14 39 -36 64q-19 22 -47 41q-25 16 -57 23q-35 8 -410 8v-169h261l38 -2l24 -3q18 -6 29 -19l4 -14h-150l-62 -4l-27 -3l-43 -13l-29 -14q-40 -26 -56 -58
q-19 -34 -24 -86v-16q0 -91 53 -136q25 -24 158 -36q77 -8 163 -11q92 -3 223 -3zM400 135h-144q-20 0 -32 3l-11 6l-1 9v13q0 11 6 12l19 4q17 3 163 3v-50z" />
    <glyph glyph-name="ae" unicode="&#xe6;" horiz-adv-x="906" 
d="M909 -30v169h-223l-48 2q-20 3 -27 8q-14 10 -20 24l-3 12h321v165h-305l-14 -16l-1 4v10l4 8l9 13q8 8 23 13l26 4l258 2v169h-249l-16 -1l-23 -1l-36 -1v-4l-11 -2l-14 -5l-18 -7l-20 -7l-27 -17l-14 10q-10 9 -19 11q-10 7 -22 10l-19 6l-16 3l-28 4l-337 1v-169h257
q54 0 79 -15q9 -4 14 -23h-144l-62 -4l-27 -3l-43 -13l-29 -14q-40 -26 -56 -58q-19 -34 -24 -86v-16q0 -91 53 -136q25 -24 137 -36q66 -8 137 -11q77 -3 186 -3v38q48 -19 145 -28q90 -10 246 -10zM392 139h-136l-32 3l-12 1q-2 2 -2 16q3 18 7 19l20 4q17 3 155 3v-46z
" />
    <glyph glyph-name="ccedilla" unicode="&#xe7;" horiz-adv-x="527" 
d="M524 -30v173h-176h-18q-57 0 -94 22q-17 11 -23 34t-6 61v4q0 80 28 96q19 13 43 18q25 5 54 5l14 -1h178v175h-219l-25 -1l-37 -3l-44 -8l-31 -8q-43 -13 -83 -50q-13 -13 -25 -32l-22 -37q-13 -20 -18 -35l-13 -40q-6 -15 -6 -40l-1 -37v-22q0 -46 21 -100q3 -9 8 -19
q3 -7 9 -18l10 -19l18 -25l21 -22q13 -12 23 -20t23 -15q26 -13 56 -21q51 -15 335 -15zM436 -123q-1 12 -7 34l-14 33q-12 19 -35 30q-14 8 -28 13q-13 3 -31 3v46h-115v-164h49l21 4q4 1 13 1l-3 -7h-3q-4 0 -5 1l-9 2l-34 3l-39 8l-74 17v-122q53 -14 102 -22
q41 -7 71 -7q73 0 107 39q34 38 34 88z" />
    <glyph glyph-name="egrave" unicode="&#xe8;" horiz-adv-x="527" 
d="M443 560l-138 199h-244l245 -199h137zM528 -30v169h-215q-20 0 -30 1q-17 0 -34 4q-20 9 -27 19l-4 14h310v171h-310q3 11 8 16l13 15l15 6q14 3 274 3v169h-233l-65 -4q-34 -5 -56 -12q-61 -18 -117 -81q-57 -63 -57 -193v-4q0 -132 73 -211q36 -39 147 -60
q109 -22 308 -22z" />
    <glyph glyph-name="eacute" unicode="&#xe9;" horiz-adv-x="527" 
d="M553 759h-243l-137 -199h134zM528 -30v169h-215q-20 0 -30 1q-17 0 -34 4q-20 9 -27 19l-4 14h310v171h-310q3 11 8 16l13 15l15 6q14 3 274 3v169h-233l-65 -4q-34 -5 -56 -12q-61 -18 -117 -81q-57 -63 -57 -193v-4q0 -132 73 -211q36 -39 147 -60q109 -22 308 -22z
" />
    <glyph glyph-name="ecircumflex" unicode="&#xea;" horiz-adv-x="527" 
d="M519 560l-138 199h-149l-138 -199h139l74 62l74 -62h138zM528 -30v169h-215q-20 0 -30 1q-17 0 -34 4q-20 9 -27 19l-4 14h310v171h-310q3 11 8 16l13 15l15 6q14 3 274 3v169h-233l-65 -4q-34 -5 -56 -12q-61 -18 -117 -81q-57 -63 -57 -193v-4q0 -132 73 -211
q36 -39 147 -60q109 -22 308 -22z" />
    <glyph glyph-name="edieresis" unicode="&#xeb;" horiz-adv-x="527" 
d="M483 566v187h-179v-187h179zM309 566v187h-179v-187h179zM528 -30v169h-215q-20 0 -30 1q-17 0 -34 4q-20 9 -27 19l-4 14h310v171h-310q3 11 8 16l13 15l15 6q14 3 274 3v169h-233l-65 -4q-34 -5 -56 -12q-61 -18 -117 -81q-57 -63 -57 -193v-4q0 -132 73 -211
q36 -39 147 -60q109 -22 308 -22z" />
    <glyph glyph-name="igrave" unicode="&#xec;" horiz-adv-x="266" 
d="M271 560l-138 199h-244l246 -199h136zM235 -30v587h-204v-587h204z" />
    <glyph glyph-name="iacute" unicode="&#xed;" horiz-adv-x="266" 
d="M381 759h-243l-137 -199h134zM235 -30v587h-204v-587h204z" />
    <glyph glyph-name="icircumflex" unicode="&#xee;" horiz-adv-x="266" 
d="M347 560l-138 199h-149l-138 -199h139l74 62l74 -62h138zM235 -30v587h-204v-587h204z" />
    <glyph glyph-name="idieresis" unicode="&#xef;" horiz-adv-x="266" 
d="M311 566v187h-179v-187h179zM137 566v187h-179v-187h179zM235 -30v587h-204v-587h204z" />
    <glyph glyph-name="eth" unicode="&#xf0;" horiz-adv-x="611" 
d="M613 254v17v19l-5 43q-6 40 -19 73l-15 36l-12 28q-15 30 -30 51l-28 37l-14 18l-13 14l-9 11l107 27l-30 121l-199 -49l-78 49h-251l132 -99l31 -24l20 23l-11 12l-143 -37l36 -121l189 47l28 -29l4 -4l-12 20l27 -8q-12 2 -34 4q-12 1 -39 1q-9 0 -25 -2q-8 -1 -26 -5
q-23 -7 -53 -24l-29 -17q-11 -7 -26 -22q-23 -21 -46 -57q-44 -64 -44 -154v-4q0 -90 53 -167q25 -40 58 -65t72 -35q65 -21 121 -21h4l48 3l40 7l35 10l26 11l51 31q30 18 62 66l17 27l8 17l9 22q6 14 6 24l4 22q2 10 2 21zM409 271l-1 -40l-1 -10l-4 -17l-5 -19
q-1 -6 -12 -17l-20 -15q-30 -18 -61 -18l-10 1h-11l-17 5q-34 15 -48 41q-19 28 -19 65l3 30l6 24q9 31 35 45q14 11 23 12q6 1 18 5h18l26 -2l17 -4q32 -12 47 -39l13 -30z" />
    <glyph glyph-name="ntilde" unicode="&#xf1;" horiz-adv-x="600" 
d="M477 753h-108q-13 -36 -20 -37l-20 3l-32 9l-34 8l-17 2h-28q-20 0 -45 -13q-4 -2 -10 -6l-6 -4q-7 -5 -9 -7l-11 -14q-2 -2 -5 -8l-12 -18l-10 -26l-5 -12l-6 -19l-10 -45h107q13 34 21 34l5 -1l16 -3l33 -5q39 -12 66 -12q46 0 83 34q17 19 30 49q15 31 27 91zM573 -30
v366l-2 37l-6 35l-10 32l-13 26q-18 29 -39 45l-25 16q-11 8 -27 11q-25 11 -61 14q-15 2 -108 4q-60 1 -251 1v-587h198v410h80l35 -2l13 -2q5 -2 9 -7l4 -25l1 -13l1 -361h201z" />
    <glyph glyph-name="ograve" unicode="&#xf2;" horiz-adv-x="609" 
d="M441 560l-138 199h-244l245 -199h137zM614 280q0 51 -17 94l-8 19l-10 18l-15 28l-10 17l-10 12l-28 28q-31 31 -90 52q-30 13 -60 16q-20 4 -34 4h-29q-33 0 -65 -7q-34 -7 -57 -15q-57 -22 -92 -54q-29 -29 -46 -55q-7 -9 -16 -29l-16 -36q-16 -38 -16 -80v-4l1 -52
l3 -33l24 -74q20 -50 62 -88q41 -40 102 -61q35 -14 57 -17q23 -3 37 -3q9 -1 26 -1l27 2l34 4l34 9l36 11q49 21 88 57q23 23 39 48q19 27 26 49l12 36l6 30l2 7q1 4 2 7v18zM409 256q0 -24 -10 -55q-10 -29 -36 -49q-25 -19 -54 -19l-18 1h-7l-7 2l-9 3q-37 15 -52 47
q-16 31 -16 71q0 34 7 61q9 24 23 42q13 14 34 24l20 6l18 2l25 -3l19 -5q33 -15 45 -42l9 -21q4 -4 4 -14q5 -22 5 -51z" />
    <glyph glyph-name="oacute" unicode="&#xf3;" horiz-adv-x="609" 
d="M551 759h-243l-137 -199h134zM614 280q0 51 -17 94l-8 19l-10 18l-15 28l-10 17l-10 12l-28 28q-31 31 -90 52q-30 13 -60 16q-20 4 -34 4h-29q-33 0 -65 -7q-34 -7 -57 -15q-57 -22 -92 -54q-29 -29 -46 -55q-7 -9 -16 -29l-16 -36q-16 -38 -16 -80v-4l1 -52l3 -33
l24 -74q20 -50 62 -88q41 -40 102 -61q35 -14 57 -17q23 -3 37 -3q9 -1 26 -1l27 2l34 4l34 9l36 11q49 21 88 57q23 23 39 48q19 27 26 49l12 36l6 30l2 7q1 4 2 7v18zM409 256q0 -24 -10 -55q-10 -29 -36 -49q-25 -19 -54 -19l-18 1h-7l-7 2l-9 3q-37 15 -52 47
q-16 31 -16 71q0 34 7 61q9 24 23 42q13 14 34 24l20 6l18 2l25 -3l19 -5q33 -15 45 -42l9 -21q4 -4 4 -14q5 -22 5 -51z" />
    <glyph glyph-name="ocircumflex" unicode="&#xf4;" horiz-adv-x="609" 
d="M517 560l-138 199h-149l-138 -199h139l74 62l74 -62h138zM614 280q0 51 -17 94l-8 19l-10 18l-15 28l-10 17l-10 12l-28 28q-31 31 -90 52q-30 13 -60 16q-20 4 -34 4h-29q-33 0 -65 -7q-34 -7 -57 -15q-57 -22 -92 -54q-29 -29 -46 -55q-7 -9 -16 -29l-16 -36
q-16 -38 -16 -80v-4l1 -52l3 -33l24 -74q20 -50 62 -88q41 -40 102 -61q35 -14 57 -17q23 -3 37 -3q9 -1 26 -1l27 2l34 4l34 9l36 11q49 21 88 57q23 23 39 48q19 27 26 49l12 36l6 30l2 7q1 4 2 7v18zM409 256q0 -24 -10 -55q-10 -29 -36 -49q-25 -19 -54 -19l-18 1h-7
l-7 2l-9 3q-37 15 -52 47q-16 31 -16 71q0 34 7 61q9 24 23 42q13 14 34 24l20 6l18 2l25 -3l19 -5q33 -15 45 -42l9 -21q4 -4 4 -14q5 -22 5 -51z" />
    <glyph glyph-name="otilde" unicode="&#xf5;" horiz-adv-x="609" 
d="M499 753h-109q-13 -36 -20 -37l-19 3l-33 9l-36 8l-32 2q-49 0 -84 -39q-34 -38 -58 -133h109l11 26q1 3 9 8l25 -5l27 -3q18 -6 38 -10q17 -3 32 -3q45 0 81 33q18 17 31 47q16 35 28 94zM614 280q0 51 -17 94l-8 19l-10 18l-15 28l-10 17l-10 12l-28 28q-31 31 -90 52
q-30 13 -60 16q-20 4 -34 4h-29q-33 0 -65 -7q-34 -7 -57 -15q-57 -22 -92 -54q-29 -29 -46 -55q-7 -9 -16 -29l-16 -36q-16 -38 -16 -80v-4l1 -52l3 -33l24 -74q20 -50 62 -88q41 -40 102 -61q35 -14 57 -17q23 -3 37 -3q9 -1 26 -1l27 2l34 4l34 9l36 11q49 21 88 57
q23 23 39 48q19 27 26 49l12 36l6 30l2 7q1 4 2 7v18zM409 256q0 -24 -10 -55q-10 -29 -36 -49q-25 -19 -54 -19l-18 1h-7l-7 2l-9 3q-37 15 -52 47q-16 31 -16 71q0 34 7 61q9 24 23 42q13 14 34 24l20 6l18 2l25 -3l19 -5q33 -15 45 -42l9 -21q4 -4 4 -14q5 -22 5 -51z
" />
    <glyph glyph-name="odieresis" unicode="&#xf6;" horiz-adv-x="609" 
d="M481 566v187h-179v-187h179zM614 280q0 51 -17 94l-8 19l-10 18l-15 28l-10 17l-10 12l-28 28q-31 31 -90 52q-30 13 -60 16q-20 4 -34 4h-29q-33 0 -65 -7q-34 -7 -57 -15q-57 -22 -92 -54q-29 -29 -46 -55q-19 -25 -31 -65q-8 -15 -9 -22q-2 -10 -3 -16t-4 -17l-1 -5
v-24l1 -52l4 -35l10 -33l14 -39q20 -49 61 -88q41 -40 102 -61q35 -14 57 -17q23 -3 37 -3q9 -1 26 -1l27 2l34 4l34 9l36 11q49 21 88 57q23 23 39 48q19 27 26 49l12 36l6 30l2 7q1 4 2 7v18zM307 566h-179v187h179v-187zM409 256q0 -24 -10 -55q-10 -29 -36 -49
q-25 -19 -54 -19l-18 1h-7l-7 2l-9 3q-37 15 -52 47q-16 31 -16 71q0 34 7 61q9 24 23 42q13 14 34 24l20 6l18 2l25 -3l19 -5q33 -15 45 -42l9 -21q4 -4 4 -14q5 -22 5 -51z" />
    <glyph glyph-name="divide" unicode="&#xf7;" horiz-adv-x="832" 
d="M502 443q0 17 -7 34q-1 3 -4 8q-4 6 -5 8q-2 3 -8 11q-27 24 -64 24q-17 0 -32 -7q-17 -8 -29 -18q-24 -25 -24 -62q0 -34 24 -60q29 -26 63 -26q16 0 33 7q1 1 6 4q1 0 6 3l12 8q2 1 3 2q26 28 26 64zM737 220v158h-644v-158h644zM504 157q0 40 -27 61q-14 15 -28 19
q-12 4 -34 4q-15 0 -32 -6q-18 -8 -29 -19q-23 -24 -23 -61q0 -36 24 -62q25 -25 62 -25q16 0 33 7l27 18q13 13 19 30q5 9 7 17q1 4 1 17z" />
    <glyph glyph-name="oslash" unicode="&#xf8;" horiz-adv-x="611" 
d="M641 565h-166l-24 -30l-22 7l-24 10l-20 4q-42 9 -100 9l-37 -3l-43 -8l-26 -9l-29 -13l-32 -19l-28 -21l-25 -25l-21 -27l-21 -42l-6 -12l-4 -12l-9 -29q-5 -11 -7 -21q-1 -5 -1 -20l-2 -51l3 -38l7 -36l12 -34l12 -26l12 -19l13 -18l10 -15l-96 -105h170l25 29
q69 -29 156 -29h6q41 0 75 9q36 9 66 25t53 37q19 17 38 44q19 25 28 44q7 9 10 23l8 24l5 21q4 11 5 23l2 62q0 24 -4 41q-2 7 -4 15q-2 9 -3 14q-4 18 -9 31q-21 53 -41 81zM553 310q-2 6 -43 29l-152 84l-161 -191l-4 30v21q0 50 34 87q15 15 30 22q16 8 29 8l49 -4
l22 -8l132 -55zM415 262l-3 -33l-6 -30l-12 -24l-14 -18q-14 -17 -29 -22t-23 -5l-9 -2l-10 -1l-30 4l135 159z" />
    <glyph glyph-name="ugrave" unicode="&#xf9;" horiz-adv-x="602" 
d="M437 560l-138 199h-244l246 -199h136zM567 -30v587h-199v-412h-83l-28 3l-17 4l-10 13q-2 6 -4 105q-1 65 -1 287h-198v-364q0 -17 2 -39q1 -13 5 -34q4 -15 11 -32q5 -15 12 -25q14 -21 40 -44q24 -21 50 -29q14 -5 50 -10q35 -5 75 -5q62 -2 135 -3q98 -2 160 -2z" />
    <glyph glyph-name="uacute" unicode="&#xfa;" horiz-adv-x="602" 
d="M547 759h-243l-137 -199h134zM567 -30v587h-199v-412h-83l-28 3l-17 4l-10 13q-2 6 -4 105q-1 65 -1 287h-198v-364q0 -17 2 -39q1 -13 5 -34q4 -15 11 -32q5 -15 12 -25q14 -21 40 -44q24 -21 50 -29q14 -5 50 -10q35 -5 75 -5q62 -2 135 -3q98 -2 160 -2z" />
    <glyph glyph-name="ucircumflex" unicode="&#xfb;" horiz-adv-x="602" 
d="M513 560l-138 199h-149l-138 -199h139l74 62l74 -62h138zM567 -30v587h-199v-412h-83l-28 3l-17 4l-10 13q-2 6 -4 105q-1 65 -1 287h-198v-364q0 -17 2 -39q1 -13 5 -34q4 -15 11 -32q5 -15 12 -25q14 -21 40 -44q24 -21 50 -29q14 -5 50 -10q35 -5 75 -5q62 -2 135 -3
q98 -2 160 -2z" />
    <glyph glyph-name="udieresis" unicode="&#xfc;" horiz-adv-x="602" 
d="M477 566v187h-179v-187h179zM303 566v187h-179v-187h179zM567 -30v587h-199v-412h-83l-28 3l-17 4l-10 13q-2 6 -4 105q-1 65 -1 287h-198v-364q0 -17 2 -39q1 -13 5 -34q4 -15 11 -32q5 -15 12 -25q14 -21 40 -44q24 -21 50 -29q14 -5 50 -10q35 -5 75 -5q62 -2 135 -3
q98 -2 160 -2z" />
    <glyph glyph-name="yacute" unicode="&#xfd;" horiz-adv-x="602" 
d="M547 759h-243l-137 -199h134zM567 557h-199v-412h-83l-27 1l-16 5l-12 8l-7 17v7v7v367h-196v-356q0 -85 29 -135q15 -27 38 -46q20 -18 47 -29l32 -9q7 -3 17 -5h1q6 -2 22 -3q11 -4 51 -4h11h15h19h23h30l-7 -10q-12 -12 -245 -12h-74v-167h304l30 2l41 5q26 4 53 20
q54 27 81 84q7 16 12 64q4 41 4 127q1 51 3 148q0 43 1 81q2 130 2 245z" />
    <glyph glyph-name="thorn" unicode="&#xfe;" horiz-adv-x="611" 
d="M616 277l-2 31l-4 30l-18 55q-13 31 -24 50q-12 18 -33 37l-21 20l-23 15l-23 13l-26 10q-15 6 -44 11l-5 1q-24 2 -33 3q-24 2 -55 3q-23 1 -76 1v192h-200v-968h200v189h91l48 2l42 6l40 12q21 7 37 16l20 12q1 1 5 4q5 4 8 7q18 15 33 33q63 89 63 215zM409 267
q0 -34 -3 -52q-5 -21 -14 -33q-18 -24 -45 -30q-31 -9 -118 -9v240h-8h27l39 1q62 0 96 -23q26 -21 26 -94z" />
    <glyph glyph-name="ydieresis" unicode="&#xff;" horiz-adv-x="602" 
d="M477 566v187h-179v-187h179zM303 566v187h-179v-187h179zM567 557h-199v-412h-83l-27 1l-16 5l-12 8l-7 17v7v7v367h-196v-356q0 -85 29 -135q15 -27 38 -46q20 -18 47 -29l32 -9q7 -3 17 -5h1q6 -2 22 -3q11 -4 51 -4h11h15h19h23h30l-7 -10q-12 -12 -245 -12h-74v-167
h304l30 2l41 5q26 4 53 20q54 27 81 84q7 16 12 64q4 41 4 127q1 51 3 148q0 43 1 81q2 130 2 245z" />
  </font>
</defs>
</svg>
